<svg width="40" height="41" viewBox="0 0 40 41" fill="none" xmlns="http://www.w3.org/2000/svg">
<path d="M20 6.5C19.2044 6.5 18.4413 6.81607 17.8787 7.37868C17.3161 7.94129 17 8.70435 17 9.5C17 10.2956 17.3161 11.0587 17.8787 11.6213C18.4413 12.1839 19.2044 12.5 20 12.5C20.7956 12.5 21.5587 12.1839 22.1213 11.6213C22.6839 11.0587 23 10.2956 23 9.5C23 8.70435 22.6839 7.94129 22.1213 7.37868C21.5587 6.81607 20.7956 6.5 20 6.5ZM15 9.5C15 8.17392 15.5268 6.90215 16.4645 5.96447C17.4021 5.02678 18.6739 4.5 20 4.5C21.3261 4.5 22.5979 5.02678 23.5355 5.96447C24.4732 6.90215 25 8.17392 25 9.5C25 10.8261 24.4732 12.0979 23.5355 13.0355C22.5979 13.9732 21.3261 14.5 20 14.5C18.6739 14.5 17.4021 13.9732 16.4645 13.0355C15.5268 12.0979 15 10.8261 15 9.5ZM31 8.5C30.4696 8.5 29.9609 8.71071 29.5858 9.08579C29.2107 9.46086 29 9.96957 29 10.5C29 11.0304 29.2107 11.5391 29.5858 11.9142C29.9609 12.2893 30.4696 12.5 31 12.5C31.5304 12.5 32.0391 12.2893 32.4142 11.9142C32.7893 11.5391 33 11.0304 33 10.5C33 9.96957 32.7893 9.46086 32.4142 9.08579C32.0391 8.71071 31.5304 8.5 31 8.5ZM27 10.5C27 9.43913 27.4214 8.42172 28.1716 7.67157C28.9217 6.92143 29.9391 6.5 31 6.5C32.0609 6.5 33.0783 6.92143 33.8284 7.67157C34.5786 8.42172 35 9.43913 35 10.5C35 11.5609 34.5786 12.5783 33.8284 13.3284C33.0783 14.0786 32.0609 14.5 31 14.5C29.9391 14.5 28.9217 14.0786 28.1716 13.3284C27.4214 12.5783 27 11.5609 27 10.5ZM7 10.5C7 9.96957 7.21071 9.46086 7.58579 9.08579C7.96086 8.71071 8.46957 8.5 9 8.5C9.53043 8.5 10.0391 8.71071 10.4142 9.08579C10.7893 9.46086 11 9.96957 11 10.5C11 11.0304 10.7893 11.5391 10.4142 11.9142C10.0391 12.2893 9.53043 12.5 9 12.5C8.46957 12.5 7.96086 12.2893 7.58579 11.9142C7.21071 11.5391 7 11.0304 7 10.5ZM9 6.5C7.93913 6.5 6.92172 6.92143 6.17157 7.67157C5.42143 8.42172 5 9.43913 5 10.5C5 11.5609 5.42143 12.5783 6.17157 13.3284C6.92172 14.0786 7.93913 14.5 9 14.5C10.0609 14.5 11.0783 14.0786 11.8284 13.3284C12.5786 12.5783 13 11.5609 13 10.5C13 9.43913 12.5786 8.42172 11.8284 7.67157C11.0783 6.92143 10.0609 6.5 9 6.5ZM10.2 30.496L10 30.5C8.93913 30.5 7.92172 30.0786 7.17157 29.3284C6.42143 28.5783 6 27.5609 6 26.5V19C6 18.8674 6.05268 18.7402 6.14645 18.6464C6.24021 18.5527 6.36739 18.5 6.5 18.5H10.028C10.108 17.766 10.368 17.084 10.758 16.5H6.5C5.12 16.5 4 17.62 4 19V26.5C3.99991 27.3562 4.18308 28.2026 4.5372 28.9822C4.89133 29.7617 5.40821 30.4565 6.05311 31.0197C6.69801 31.583 7.456 32.0017 8.27613 32.2477C9.09627 32.4937 9.95956 32.5613 10.808 32.446C10.5393 31.8185 10.3356 31.165 10.2 30.496ZM29.192 32.446C29.456 32.482 29.7253 32.5 30 32.5C31.5913 32.5 33.1174 31.8679 34.2426 30.7426C35.3679 29.6174 36 28.0913 36 26.5V19C36 17.62 34.88 16.5 33.5 16.5H29.242C29.634 17.084 29.892 17.766 29.972 18.5H33.5C33.6326 18.5 33.7598 18.5527 33.8536 18.6464C33.9473 18.7402 34 18.8674 34 19V26.5C34.0001 27.0422 33.89 27.5788 33.6764 28.0771C33.4627 28.5755 33.15 29.0252 32.7572 29.3989C32.3643 29.7727 31.8996 30.0627 31.3913 30.2512C30.8829 30.4398 30.3415 30.5231 29.8 30.496C29.6644 31.165 29.4607 31.8185 29.192 32.446ZM14.5 16.5C13.12 16.5 12 17.62 12 19V28.5C12 30.6217 12.8429 32.6566 14.3431 34.1569C15.8434 35.6571 17.8783 36.5 20 36.5C22.1217 36.5 24.1566 35.6571 25.6569 34.1569C27.1571 32.6566 28 30.6217 28 28.5V19C28 17.62 26.88 16.5 25.5 16.5H14.5ZM14 19C14 18.8674 14.0527 18.7402 14.1464 18.6464C14.2402 18.5527 14.3674 18.5 14.5 18.5H25.5C25.6326 18.5 25.7598 18.5527 25.8536 18.6464C25.9473 18.7402 26 18.8674 26 19V28.5C26 30.0913 25.3679 31.6174 24.2426 32.7426C23.1174 33.8679 21.5913 34.5 20 34.5C18.4087 34.5 16.8826 33.8679 15.7574 32.7426C14.6321 31.6174 14 30.0913 14 28.5V19Z" fill="#00A3C0"/>
</svg>
