<svg width="430" height="316" viewBox="0 0 430 316" fill="none" xmlns="http://www.w3.org/2000/svg">
<path d="M4.6461 315.579C2.42151 315.579 0.618134 313.776 0.618134 311.551C0.618134 255.937 45.7027 210.852 101.317 210.852C103.542 210.852 105.345 212.655 105.345 214.88L105.345 294.634C105.345 306.202 95.9678 315.579 84.4 315.579H4.6461Z" fill="#00CDE5"/>
<path d="M325.273 4.37819C325.273 2.1536 327.076 0.35022 329.301 0.35022C384.915 0.35022 430 45.4348 430 101.05C430 103.274 428.197 105.077 425.972 105.077L346.218 105.077C334.65 105.077 325.273 95.6999 325.273 84.132V4.37819Z" fill="#00CDE5"/>
<rect x="46.6981" y="0.35022" width="315.229" height="315.229" rx="20" fill="white" fill-opacity="0.56"/>
<path d="M204.06 119.072C224.052 130.054 248.823 124.355 268.027 137.488C284.892 149.044 301.372 175.769 299.342 196.007C297.078 218.571 275.504 230.392 253.274 227.643C228.806 224.623 215.27 203.37 197.163 189.267C165.508 164.566 78.738 123.245 113.18 71.0372C123.898 54.8408 157.135 40.5105 172.872 60.2627C188.009 79.2647 175.942 103.607 204.06 119.072Z" fill="#00D1FF"/>
<path opacity="0.9" d="M229.306 115.016C249.298 125.999 274.069 120.3 293.272 133.432C310.137 144.988 326.617 171.714 324.587 191.951C322.324 214.515 300.75 226.336 278.52 223.588C254.052 220.568 240.516 199.315 222.409 185.212C190.754 160.51 103.984 119.19 138.425 66.9819C149.143 50.7854 182.381 36.4551 198.117 56.2073C213.255 75.2094 201.188 99.5513 229.306 115.016Z" fill="white"/>
<path d="M204.611 40.4269C207.553 37.8084 211.363 36.0936 216.041 35.2824C220.719 34.4712 225.664 34.9861 230.876 36.827C236.071 38.6679 240.822 41.9926 245.131 46.8009C249.136 51.2729 251.843 55.9572 253.251 60.8538C254.655 65.3818 254.784 70.2094 253.623 74.8058C252.519 79.0663 250.171 82.9011 246.877 85.8199C244.533 88.0176 241.673 89.5895 238.561 90.3907C235.782 91.0828 232.914 91.3464 230.056 91.1725C227.312 90.996 222.55 90.5273 215.77 89.7666C214.183 89.5939 212.588 89.5055 210.991 89.5018C209.898 89.4946 208.808 89.6195 207.744 89.8738C206.901 90.0888 206.081 90.3888 205.298 90.769C204.542 91.141 203.262 91.8282 201.446 92.8432C197.714 95.1255 194.469 94.7262 191.712 91.6454C191.027 90.9169 190.493 90.0598 190.141 89.1238C189.79 88.1877 189.627 87.1912 189.663 86.1919C189.734 84.1618 190.802 82.2221 192.866 80.3728C197.069 76.3449 202.699 74.1499 208.52 74.2699C211.833 74.3805 215.139 74.6583 218.424 75.1021C221.917 75.5245 224.496 75.7893 226.16 75.8776C227.812 75.972 229.47 75.8341 231.084 75.4678C232.694 75.1111 234.183 74.3395 235.403 73.2297C236.596 72.1935 237.552 70.9118 238.205 69.4723C238.858 68.0328 239.192 66.4693 239.185 64.8887C239.236 61.5263 237.975 58.4013 235.403 55.5138C232.364 52.1219 229.272 50.3924 226.128 50.3251C222.985 50.2579 219.242 51.1615 214.9 53.0361C210.483 55.1082 206.963 54.6879 204.34 51.7752C203.593 50.975 203.022 50.0279 202.663 48.9944C202.304 47.9609 202.164 46.8638 202.253 45.7732C202.272 44.7703 202.49 43.7811 202.895 42.8632C203.3 41.9454 203.883 41.1172 204.611 40.4269ZM174.135 108.321C172.487 106.531 171.568 104.191 171.556 101.758C171.518 99.2697 172.592 97.0442 174.778 95.0814C175.677 94.2495 176.739 93.6132 177.897 93.2127C179.055 92.8123 180.283 92.6564 181.505 92.755C182.742 92.8298 183.951 93.153 185.06 93.7055C186.169 94.2579 187.156 95.0282 187.961 95.9703C188.788 96.8663 189.427 97.9195 189.84 99.0674C190.253 100.215 190.431 101.434 190.363 102.652C190.295 103.87 189.984 105.062 189.446 106.157C188.909 107.252 188.157 108.228 187.236 109.027C185.079 110.956 182.768 111.78 180.3 111.498C177.917 111.259 175.713 110.123 174.135 108.321Z" fill="#00CDE5"/>
<g opacity="0.5">
<path d="M260.987 82.6991C261.872 80.5957 263.34 78.7889 265.217 77.4915C267.423 75.9196 270 74.9465 272.694 74.667C275.833 74.3293 279.007 74.7935 281.918 76.0162C284.667 77.0335 287.151 78.6609 289.181 80.7762C290.94 82.6067 292.161 84.886 292.711 87.3645C293.218 89.681 293.021 92.0962 292.144 94.2995C291.549 95.9157 290.556 97.3556 289.256 98.4857C288.093 99.4858 286.783 100.302 285.373 100.907C284.019 101.483 281.626 102.403 278.192 103.668C277.389 103.963 276.604 104.304 275.84 104.689C275.315 104.947 274.824 105.269 274.377 105.648C274.023 105.951 273.702 106.291 273.419 106.663C273.148 107.022 272.7 107.659 272.076 108.554C270.815 110.546 269.166 111.135 267.127 110.319C266.624 110.135 266.162 109.853 265.768 109.489C265.374 109.126 265.056 108.688 264.832 108.201C264.607 107.631 264.504 107.021 264.527 106.409C264.551 105.796 264.702 105.196 264.971 104.645C266.016 101.708 268.184 99.3044 270.998 97.9625C272.609 97.2121 274.257 96.543 275.935 95.9576C277.706 95.3272 279.005 94.8291 279.825 94.476C280.638 94.1232 281.397 93.6585 282.082 93.0953C282.767 92.5361 283.295 91.8082 283.614 90.9833C283.937 90.201 284.086 89.3582 284.053 88.5126C284.019 87.667 283.802 86.8387 283.418 86.0846C282.574 84.425 281.122 83.1556 279.364 82.5415C277.095 81.6462 275.203 81.56 273.69 82.283C271.853 83.2608 270.245 84.6192 268.974 86.2675C267.352 88.3228 265.562 88.9532 263.603 88.1588C263.054 87.9534 262.553 87.636 262.133 87.2269C261.713 86.8177 261.383 86.3257 261.163 85.782C260.931 85.3055 260.795 84.7876 260.765 84.2583C260.735 83.729 260.81 83.199 260.987 82.6991ZM262.708 122.544C261.489 122.082 260.487 121.183 259.896 120.022C259.593 119.412 259.429 118.742 259.416 118.061C259.403 117.379 259.541 116.703 259.82 116.082C260.047 115.465 260.401 114.903 260.858 114.43C261.315 113.958 261.866 113.587 262.474 113.339C263.085 113.079 263.743 112.944 264.407 112.944C265.071 112.944 265.728 113.079 266.339 113.339C266.951 113.57 267.51 113.92 267.983 114.37C268.456 114.821 268.834 115.361 269.095 115.961C269.355 116.56 269.493 117.205 269.499 117.858C269.506 118.512 269.381 119.16 269.132 119.764C268.914 120.411 268.556 121.002 268.083 121.495C267.61 121.987 267.034 122.369 266.396 122.613C265.202 123.057 263.884 123.032 262.708 122.544Z" fill="#5BF9FF"/>
</g>
<g opacity="0.1">
<path d="M303.391 78.9858C302.821 78.0885 302.517 77.0479 302.515 75.9848C302.494 74.7252 302.802 73.482 303.41 72.3786C304.111 71.0934 305.129 70.0084 306.367 69.2263C307.483 68.4403 308.764 67.9186 310.112 67.7006C311.28 67.5113 312.477 67.6465 313.573 68.0914C314.6 68.5071 315.478 69.2208 316.095 70.1404C316.558 70.7953 316.849 71.5564 316.94 72.3533C317.012 73.0626 316.978 73.7787 316.839 74.478C316.7 75.1547 316.419 76.3147 315.994 77.9581C315.898 78.3448 315.823 78.7362 315.767 79.1308C315.694 79.6164 315.732 80.1125 315.881 80.5808C315.95 80.7826 316.076 81.123 316.265 81.6022C316.38 81.7985 316.455 82.0157 316.486 82.2412C316.516 82.4666 316.502 82.6959 316.443 82.9158C316.385 83.1357 316.283 83.3417 316.144 83.5221C316.005 83.7024 315.832 83.8534 315.635 83.9664C315.224 84.2545 314.716 84.3679 314.222 84.2816C313.944 84.2188 313.681 84.0982 313.452 83.9277C313.223 83.7572 313.032 83.5406 312.892 83.2918C312.448 82.6628 312.135 81.951 311.972 81.1987C311.841 80.5465 311.826 79.8764 311.928 79.219C312.064 78.4032 312.243 77.5951 312.463 76.7981C312.69 75.9469 312.842 75.3228 312.924 74.9067C313.003 74.4914 313.026 74.0673 312.993 73.6458C312.957 73.2345 312.816 72.8394 312.583 72.4983C312.368 72.1687 312.084 71.8893 311.751 71.6793C311.419 71.4694 311.044 71.3337 310.654 71.2816C309.788 71.1635 308.909 71.3899 308.208 71.912C307.81 72.1331 307.462 72.4344 307.186 72.7969C306.911 73.1593 306.713 73.5751 306.606 74.0177C306.497 74.9812 306.594 75.9569 306.89 76.88C307.25 78.0464 307.016 78.8975 306.203 79.446C305.98 79.6016 305.727 79.7094 305.46 79.7626C305.193 79.8158 304.918 79.8132 304.652 79.7549C304.401 79.7178 304.16 79.6306 303.943 79.4985C303.727 79.3664 303.539 79.192 303.391 78.9858ZM319.121 88.8587C318.621 89.2005 318.013 89.3464 317.413 89.2685C317.096 89.2234 316.793 89.1076 316.526 88.9298C316.26 88.7519 316.037 88.5165 315.874 88.2409C315.698 87.9911 315.576 87.7075 315.515 87.4079C315.454 87.1084 315.456 86.7995 315.521 86.5008C315.582 86.1975 315.704 85.9096 315.878 85.6541C316.052 85.3985 316.276 85.1805 316.536 85.0129C316.786 84.8389 317.068 84.7174 317.366 84.6556C317.664 84.5938 317.972 84.5931 318.27 84.6536C318.57 84.7089 318.855 84.8253 319.107 84.9956C319.36 85.1659 319.575 85.3864 319.739 85.6434C319.929 85.8985 320.061 86.1921 320.125 86.5037C320.189 86.8152 320.185 87.137 320.111 87.4465C319.969 88.0246 319.616 88.5285 319.121 88.8587Z" fill="#5BF9FF"/>
</g>
<path d="M189.076 254.543L184.31 253.307L187.154 242.407L191.92 243.643L189.076 254.543Z" fill="#FFC3BD"/>
<path d="M184.26 252.047L189.581 253.73C189.625 253.741 189.667 253.761 189.703 253.788C189.74 253.815 189.77 253.85 189.793 253.889C189.816 253.928 189.831 253.972 189.837 254.017C189.842 254.063 189.839 254.108 189.827 254.152L188.705 258.282C188.626 258.499 188.466 258.677 188.26 258.779C188.053 258.881 187.815 258.899 187.595 258.83C185.754 258.2 184.903 257.834 182.551 257.09C181.108 256.636 177.627 255.609 175.616 254.978C173.605 254.348 174.355 252.456 175.232 252.576C179.279 252.999 181.631 252.658 183.314 252.072C183.618 251.959 183.95 251.95 184.26 252.047Z" fill="#263238"/>
<path opacity="0.2" d="M191.92 243.649L187.154 242.413L185.691 248.031L190.457 249.266L191.92 243.649Z" fill="black"/>
<path d="M203.93 132.178C203.93 132.178 195.205 173.643 192.884 187.217C190.363 202.083 184.821 244.645 184.821 244.645L192.922 247.589C192.922 247.589 205.601 202.455 207.524 188.162C211.552 174.191 221.759 132.178 221.759 132.178H203.93Z" fill="#03819B"/>
<path opacity="0.3" d="M215.133 145.713C212.303 152.51 211.275 164.886 211.767 172.287C214.011 163.549 216.501 153.569 218.431 145.751C217.806 143.601 216.949 141.344 215.133 145.713Z" fill="black"/>
<path d="M192.758 248.548L184.071 246.038L184.399 242.363L194.738 245.269L192.758 248.548Z" fill="#263238"/>
<path d="M182.305 252.311C182.735 252.434 183.177 252.513 183.623 252.545C183.646 252.548 183.669 252.545 183.689 252.535C183.709 252.525 183.726 252.508 183.737 252.488C183.748 252.47 183.755 252.449 183.755 252.428C183.755 252.407 183.748 252.386 183.737 252.368C183.617 252.217 182.576 250.912 181.927 250.95C181.852 250.952 181.78 250.974 181.716 251.013C181.652 251.051 181.599 251.105 181.561 251.17C181.497 251.261 181.458 251.367 181.448 251.478C181.438 251.588 181.458 251.7 181.505 251.801C181.7 252.063 181.985 252.245 182.305 252.311ZM183.377 252.311C182.469 252.204 181.858 251.983 181.706 251.681C181.677 251.615 181.666 251.543 181.675 251.472C181.684 251.401 181.712 251.334 181.757 251.277C181.775 251.245 181.8 251.218 181.831 251.198C181.862 251.178 181.897 251.167 181.933 251.164C182.274 251.151 182.942 251.788 183.377 252.299V252.311Z" fill="#407BFF"/>
<path d="M183.598 252.545H183.655C183.673 252.542 183.691 252.534 183.706 252.524C183.722 252.513 183.734 252.498 183.743 252.481C183.743 252.425 184.323 251.145 183.995 250.552C183.95 250.477 183.89 250.411 183.818 250.36C183.747 250.309 183.665 250.274 183.579 250.256C183.484 250.229 183.383 250.233 183.291 250.268C183.199 250.303 183.121 250.368 183.068 250.451C182.785 250.918 183.169 252.091 183.547 252.507C183.56 252.524 183.577 252.538 183.598 252.545ZM183.598 250.489C183.641 250.502 183.682 250.524 183.716 250.554C183.751 250.583 183.779 250.619 183.8 250.659C183.914 251.18 183.849 251.724 183.617 252.204C183.32 251.738 183.093 250.867 183.283 250.565C183.283 250.508 183.377 250.445 183.541 250.477L183.598 250.489Z" fill="#407BFF"/>
<path d="M210.682 96.6638C210.26 97.6852 209.856 98.593 209.421 99.5261C208.986 100.459 208.52 101.373 208.047 102.287C207.089 104.11 206.08 105.906 204.97 107.659C202.762 111.302 200.092 114.644 197.027 117.601L196.913 117.715C196.752 117.86 196.574 117.985 196.383 118.087C195.858 118.37 195.282 118.544 194.688 118.597C194.348 118.622 194.006 118.622 193.666 118.597C193.157 118.565 192.652 118.495 192.153 118.389C191.258 118.2 190.463 117.967 189.682 117.721C188.131 117.229 186.687 116.63 185.268 116.025C183.85 115.42 182.45 114.764 181.076 114.052C179.702 113.339 178.352 112.627 177.016 111.82C176.706 111.631 176.474 111.337 176.361 110.992C176.248 110.647 176.262 110.273 176.4 109.937C176.538 109.601 176.792 109.326 177.115 109.16C177.438 108.994 177.81 108.95 178.163 109.033C181.089 109.74 184.008 110.528 186.882 111.227C188.314 111.587 189.745 111.902 191.119 112.167C191.767 112.298 192.421 112.393 193.08 112.45C193.328 112.465 193.576 112.465 193.824 112.45C193.918 112.45 193.956 112.45 193.931 112.45C193.707 112.457 193.489 112.524 193.301 112.646L192.67 113.131C193.89 111.781 195.021 110.353 196.056 108.857C197.115 107.325 198.117 105.705 199.082 104.078C200.046 102.451 200.973 100.743 201.85 99.0343C202.726 97.3258 203.596 95.5668 204.371 93.9213L204.409 93.8394C204.781 93.0033 205.47 92.3493 206.324 92.0212C207.179 91.6931 208.128 91.7178 208.964 92.0898C209.8 92.4619 210.454 93.1508 210.782 94.005C211.11 94.8593 211.086 95.8089 210.714 96.6449L210.682 96.6638Z" fill="#FFC3BD"/>
<path d="M209.711 89.9935C205.651 90.107 202.865 94.5139 200.204 100.005C202.243 103.531 205.166 106.464 208.684 108.516C208.684 108.516 219.351 89.7224 209.711 89.9935Z" fill="#E0E0E0"/>
<path d="M176.814 111.845L173.157 110.912L176.007 107.249C176.007 107.249 179.159 107.747 180.357 110.401L179.058 111.328C178.743 111.57 178.38 111.742 177.993 111.831C177.605 111.92 177.203 111.925 176.814 111.845Z" fill="#FFC3BD"/>
<path d="M172.269 107.167L172.975 106.537C173.263 106.284 173.632 106.141 174.016 106.133C174.4 106.124 174.775 106.252 175.074 106.493L176.007 107.243L173.157 110.906L171.991 109.09C171.798 108.79 171.72 108.43 171.771 108.077C171.822 107.724 171.998 107.401 172.269 107.167Z" fill="#FFC3BD"/>
<path d="M231.74 253.976H226.753L225.561 242.867H230.548L231.74 253.976Z" fill="#FFC3BD"/>
<path d="M226.318 253.421H231.922C232.015 253.416 232.106 253.447 232.176 253.509C232.245 253.57 232.288 253.656 232.294 253.749L232.565 258.011C232.561 258.24 232.466 258.458 232.302 258.618C232.138 258.778 231.918 258.868 231.689 258.868C229.741 258.83 228.808 258.723 226.343 258.723C224.83 258.723 220.669 258.874 218.557 258.874C216.445 258.874 216.52 256.882 217.409 256.706C221.387 255.892 224.048 254.776 225.46 253.717C225.706 253.527 226.007 253.423 226.318 253.421Z" fill="#263238"/>
<path opacity="0.2" d="M230.548 242.867H225.561L226.179 248.598H231.166L230.548 242.867Z" fill="black"/>
<path d="M213.677 132.178C213.677 132.178 214.78 173.863 215.568 187.601C216.451 202.644 223.922 247.211 223.922 247.211H233.064C233.064 247.211 231.059 202.076 229.546 187.317C230.176 171.152 230.592 132.165 230.592 132.165L213.677 132.178Z" fill="#03819B"/>
<path d="M233.429 247.211H223.064L222.573 243.876L233.707 244.065L233.429 247.211Z" fill="#263238"/>
<path d="M224.552 254.253C225.001 254.243 225.446 254.186 225.883 254.083C225.904 254.079 225.923 254.068 225.938 254.052C225.953 254.036 225.962 254.016 225.965 253.995C225.971 253.973 225.97 253.951 225.962 253.93C225.954 253.91 225.939 253.893 225.92 253.881C225.763 253.78 224.351 252.847 223.739 253.08C223.671 253.106 223.61 253.148 223.563 253.203C223.515 253.258 223.483 253.324 223.468 253.396C223.428 253.504 223.421 253.621 223.447 253.732C223.473 253.844 223.53 253.946 223.613 254.026C223.889 254.211 224.222 254.292 224.552 254.253ZM225.561 253.925C224.666 254.096 224.01 254.064 223.777 253.843C223.729 253.791 223.696 253.726 223.681 253.656C223.667 253.586 223.672 253.514 223.695 253.446C223.701 253.411 223.716 253.379 223.738 253.351C223.76 253.323 223.788 253.302 223.821 253.289C224.149 253.162 224.981 253.566 225.561 253.925Z" fill="#407BFF"/>
<path d="M225.851 254.089H225.908C225.925 254.079 225.939 254.065 225.95 254.049C225.961 254.033 225.968 254.014 225.971 253.995C225.971 253.938 226.084 252.557 225.58 252.103C225.516 252.042 225.437 251.996 225.352 251.969C225.267 251.943 225.176 251.937 225.088 251.952C224.991 251.953 224.897 251.987 224.82 252.047C224.744 252.108 224.69 252.192 224.666 252.286C224.552 252.809 225.296 253.812 225.794 254.096L225.851 254.089ZM225.145 252.141C225.192 252.14 225.238 252.148 225.282 252.165C225.325 252.183 225.364 252.209 225.397 252.242C225.673 252.7 225.789 253.237 225.725 253.768C225.29 253.415 224.792 252.652 224.868 252.311C224.868 252.242 224.924 252.166 225.095 252.147L225.145 252.141Z" fill="#407BFF"/>
<path d="M206.03 93.2027C206.299 92.3864 206.782 91.6577 207.43 91.093C208.078 90.5284 208.866 90.1486 209.711 89.9936C210.943 89.7063 212.192 89.4957 213.45 89.3632C217.23 89.1545 221.018 89.1545 224.798 89.3632C226.778 89.4514 228.795 89.6847 230.403 89.9117H230.46C230.873 89.9597 231.272 90.0913 231.632 90.2985C231.993 90.5057 232.307 90.7841 232.557 91.1167C232.806 91.4494 232.986 91.8294 233.084 92.2335C233.182 92.6376 233.196 93.0575 233.127 93.4675C231.868 99.892 231.045 106.394 230.662 112.93C230.271 122.424 230.8 129.876 230.611 132.165H203.93C202.31 109.008 204.403 98.4796 206.03 93.2027Z" fill="#E0E0E0"/>
<path d="M226.608 75.2345C227.073 75.5706 227.443 76.0218 227.682 76.5439C227.921 77.066 228.02 77.6411 227.97 78.213C227.92 78.7849 227.722 79.334 227.396 79.8065C227.07 80.279 226.626 80.6588 226.11 80.9087C227.188 82.6929 224.319 85.8452 221.432 83.8655C218.544 81.8859 222.623 73.5512 226.608 75.2345Z" fill="#263238"/>
<path d="M214.667 73.318C214.271 73.3297 213.878 73.2384 213.528 73.0529C213.178 72.8674 212.882 72.5941 212.669 72.2599C212.456 71.9256 212.333 71.5417 212.313 71.1459C212.293 70.7501 212.377 70.3559 212.555 70.0018C211.212 69.4785 211.451 66.5469 213.872 66.4208C216.293 66.2947 217.542 72.5804 214.667 73.318Z" fill="#263238"/>
<path d="M213.879 91.8408C213.698 91.6752 213.564 91.4655 213.489 91.2323C213.414 90.9991 213.401 90.7504 213.451 90.5107C213.502 90.2709 213.613 90.0484 213.776 89.8649C213.938 89.6814 214.145 89.5432 214.377 89.464C216.81 88.5687 217.252 86.8034 217.056 84.8805C217 84.3398 216.912 83.803 216.791 83.2729L220.921 79.9756L223.96 77.5546C223.203 80.7069 222.358 86.1982 223.96 88.9785C224.139 89.2694 224.209 89.615 224.155 89.9527C224.102 90.2903 223.93 90.5978 223.67 90.8195C222.623 91.7462 220.48 92.9441 216.949 92.755C215.329 92.673 214.427 92.301 213.879 91.8408Z" fill="#FFC3BD"/>
<path d="M204.661 93.3161C204.962 92.4084 205.492 91.5937 206.2 90.9508C206.908 90.308 207.77 89.8589 208.703 89.6469C209.899 89.4569 211.105 89.3306 212.315 89.2686C212.442 89.2505 212.57 89.2641 212.69 89.3081C212.81 89.3522 212.917 89.4254 213.001 89.5211C213.086 89.6168 213.145 89.732 213.174 89.8563C213.203 89.9806 213.2 90.1101 213.166 90.2332C211.054 98.0761 208.041 113.768 208.974 133.205C208.978 133.326 208.958 133.447 208.914 133.56C208.87 133.672 208.803 133.775 208.718 133.861C208.633 133.947 208.532 134.015 208.419 134.061C208.307 134.106 208.187 134.128 208.066 134.126H202.77C202.54 134.13 202.318 134.046 202.148 133.891C201.978 133.736 201.874 133.523 201.856 133.294C200.261 109.544 203.079 97.7104 204.661 93.3161Z" fill="#263238"/>
<path d="M230.258 89.4388C228.563 89.196 226.856 89.0402 225.145 88.9722C224.835 88.9497 224.527 89.0373 224.276 89.2195C224.025 89.4018 223.846 89.667 223.771 89.9684C221.81 98.6056 220.064 117.797 219.988 133.237C219.99 133.354 220.016 133.47 220.063 133.578C220.11 133.686 220.178 133.783 220.263 133.864C220.348 133.946 220.448 134.009 220.558 134.052C220.668 134.095 220.784 134.116 220.902 134.113H230.359C230.593 134.118 230.82 134.031 230.991 133.871C231.162 133.711 231.263 133.49 231.273 133.256C231.336 130.147 230.907 122.866 231.273 113.825C231.623 107.383 232.432 100.973 233.694 94.6464C234.022 92.8748 232.13 89.7036 230.258 89.4388Z" fill="#263238"/>
<path d="M233.581 92.1812C235.604 95.2326 237.445 98.2904 239.185 101.499C240.043 103.107 240.888 104.74 241.65 106.455C242.029 107.312 242.401 108.189 242.747 109.115C243.13 110.118 243.425 111.151 243.63 112.205C243.785 112.972 243.819 113.759 243.731 114.537C243.628 115.167 243.465 115.786 243.245 116.385C242.886 117.361 242.445 118.306 241.928 119.209C241 120.847 239.966 122.422 238.832 123.925C236.651 126.835 234.266 129.587 231.695 132.159C231.398 132.456 231.002 132.634 230.582 132.659C230.163 132.684 229.748 132.554 229.418 132.293C229.088 132.032 228.866 131.659 228.793 131.245C228.72 130.831 228.801 130.404 229.022 130.047V130.009C230.857 127.052 232.71 124.038 234.387 121.05C235.22 119.562 236.014 118.049 236.651 116.586C237.288 115.124 237.754 113.522 237.426 113.478C237.225 112.807 236.981 112.15 236.695 111.511C236.38 110.792 236.02 110.048 235.642 109.311C234.873 107.829 234.047 106.322 233.183 104.841C231.456 101.865 229.615 98.8641 227.793 95.9577V95.9198C227.297 95.1524 227.127 94.2194 227.319 93.3261C227.511 92.4328 228.05 91.6525 228.817 91.1567C229.585 90.661 230.518 90.4904 231.411 90.6825C232.304 90.8746 233.085 91.4137 233.581 92.1812Z" fill="#FFC3BD"/>
<path d="M229.659 89.3569C233.719 89.2812 235.869 92.7172 238.53 98.1833C235.516 103.763 229.766 106.177 229.766 106.177C229.766 106.177 221.677 89.4956 229.659 89.3569Z" fill="#E0E0E0"/>
<path d="M227.579 129.883L225.24 130.627L229.571 133.918C229.571 133.918 233.114 132.077 232.004 130.406L231.286 130.084C230.116 129.568 228.798 129.496 227.579 129.883Z" fill="#FFC3BD"/>
<path d="M223.928 133.514L226.557 136.156C226.642 136.239 226.744 136.303 226.855 136.345C226.966 136.386 227.084 136.405 227.203 136.398C227.321 136.391 227.437 136.36 227.543 136.307C227.649 136.253 227.743 136.178 227.818 136.086L229.565 133.918L225.233 130.627L223.884 132.474C223.76 132.621 223.695 132.81 223.703 133.003C223.712 133.195 223.792 133.378 223.928 133.514Z" fill="#FFC3BD"/>
<path opacity="0.2" d="M216.791 83.2981C216.912 83.8282 217 84.365 217.056 84.9058C218.62 85.3029 220.839 83.5124 221.047 81.993C221.074 81.3264 221.031 80.6588 220.921 80.0008L216.791 83.2981Z" fill="black"/>
<path d="M226.551 73.0784C225.485 77.7311 225.107 80.5052 222.245 82.5794C221.309 83.2642 220.207 83.6886 219.054 83.8094C217.9 83.9302 216.735 83.743 215.677 83.2669C214.619 82.7909 213.706 82.0429 213.032 81.0993C212.357 80.1556 211.944 79.05 211.836 77.8951C211.47 73.5323 213.273 66.654 218.368 65.4309C223.462 64.2078 227.616 68.4193 226.551 73.0784Z" fill="#FFC3BD"/>
<path d="M224.395 77.1512C223.046 77.2205 221.608 72.4606 224.584 70.1657C224.111 70.4242 222.819 69.9513 223.046 69.0624C222.169 69.4281 218.336 69.2704 219.263 67.7132C217.315 68.2176 213.065 67.3728 212.611 65.5129C212.158 63.6531 214.352 63.59 214.692 63.8359C213.727 62.4867 213.746 60.5071 216.306 59.7883C218.866 59.0696 222.724 62.7704 222.724 62.7704C222.321 61.7932 223.739 61.0051 225.208 61.8436C226.677 62.6821 227.364 65.0653 227.364 65.0653C227.364 64.3466 230.794 65.3112 229.167 68.3247C230.851 68.9552 231.62 69.8505 231.513 71.4077C231.405 72.9649 230.34 73.0532 230.34 73.0532C230.565 73.6138 230.597 74.2339 230.429 74.8143C230.261 75.3948 229.903 75.9023 229.413 76.2559C227.667 77.6618 226.141 76.01 224.395 77.1512Z" fill="#263238"/>
<path d="M227.068 77.5104C226.475 78.3781 225.599 79.0131 224.59 79.3072C223.291 79.6539 222.85 78.4939 223.38 77.2834C223.859 76.1927 225.107 74.6922 226.33 74.8814C227.553 75.0705 227.799 76.426 227.068 77.5104Z" fill="#FFC3BD"/>
<path d="M218.84 72.8892C218.777 73.2675 218.513 73.5512 218.254 73.5197C217.996 73.4882 217.832 73.1477 217.895 72.7631C217.958 72.3786 218.223 72.1327 218.481 72.1327C218.74 72.1327 218.872 72.5047 218.84 72.8892Z" fill="#263238"/>
<path d="M214.225 72.0507C214.162 72.4353 213.904 72.719 213.645 72.6811C213.387 72.6433 213.223 72.3092 213.286 71.9246C213.349 71.54 213.608 71.2941 213.866 71.2941C214.125 71.2941 214.289 71.6724 214.225 72.0507Z" fill="#263238"/>
<path d="M216.047 72.9081C215.376 74.0176 214.555 75.0295 213.608 75.9154C213.853 76.146 214.145 76.3215 214.463 76.4302C214.782 76.5389 215.12 76.5784 215.455 76.5459L216.047 72.9081Z" fill="#ED847E"/>
<path d="M216.275 78.4247C216.733 78.4765 217.197 78.4363 217.64 78.3063C218.083 78.1764 218.495 77.9595 218.853 77.6681C218.874 77.6459 218.886 77.6166 218.886 77.5862C218.886 77.5557 218.874 77.5264 218.853 77.5042C218.83 77.4847 218.801 77.4739 218.771 77.4739C218.741 77.4739 218.712 77.4847 218.689 77.5042C218.296 77.8164 217.837 78.0354 217.346 78.1446C216.856 78.2538 216.347 78.2504 215.858 78.1347C215.844 78.131 215.828 78.1303 215.813 78.1328C215.798 78.1353 215.783 78.1408 215.77 78.1491C215.757 78.1573 215.746 78.1681 215.737 78.1808C215.729 78.1935 215.723 78.2078 215.72 78.2229C215.716 78.2375 215.715 78.2526 215.718 78.2674C215.721 78.2822 215.726 78.2963 215.734 78.3087C215.743 78.3212 215.754 78.3318 215.766 78.3398C215.779 78.3479 215.793 78.3531 215.808 78.3553C215.962 78.3898 216.118 78.413 216.275 78.4247Z" fill="#263238"/>
<path d="M219.03 70.2665C218.992 70.2766 218.957 70.2961 218.929 70.3232C218.907 70.3439 218.889 70.3688 218.877 70.3964C218.865 70.4241 218.859 70.4539 218.859 70.484C218.859 70.5141 218.865 70.5439 218.877 70.5716C218.889 70.5992 218.907 70.6241 218.929 70.6448C219.174 70.9193 219.482 71.1303 219.827 71.2599C220.172 71.3894 220.543 71.4336 220.908 71.3887C220.939 71.3857 220.968 71.3765 220.994 71.3616C221.021 71.3467 221.044 71.3265 221.063 71.3022C221.081 71.2779 221.094 71.2501 221.101 71.2205C221.108 71.1909 221.109 71.1602 221.104 71.1302C221.098 71.1 221.087 71.0711 221.071 71.0452C221.054 71.0193 221.033 70.9969 221.007 70.9793C220.982 70.9618 220.954 70.9493 220.924 70.9428C220.894 70.9362 220.863 70.9356 220.833 70.9411C220.544 70.9666 220.253 70.9227 219.984 70.813C219.715 70.7034 219.477 70.5311 219.288 70.3106C219.253 70.2803 219.211 70.2601 219.165 70.2523C219.119 70.2445 219.073 70.2494 219.03 70.2665Z" fill="#263238"/>
<path d="M212.92 69.1254C212.955 69.1409 212.993 69.1489 213.031 69.1489C213.069 69.1489 213.106 69.1409 213.141 69.1254C213.41 68.9912 213.706 68.9177 214.006 68.9101C214.307 68.9024 214.606 68.9609 214.881 69.0813C214.935 69.1118 214.998 69.1203 215.058 69.105C215.118 69.0897 215.17 69.0518 215.203 68.9993C215.23 68.9446 215.236 68.8815 215.218 68.8229C215.2 68.7643 215.161 68.7146 215.108 68.6841C214.768 68.5208 214.395 68.436 214.017 68.436C213.64 68.436 213.267 68.5208 212.927 68.6841C212.899 68.6961 212.874 68.7138 212.854 68.7359C212.834 68.7581 212.818 68.7844 212.809 68.8129C212.799 68.8415 212.796 68.8717 212.799 68.9016C212.802 68.9316 212.811 68.9606 212.826 68.9867C212.84 69.0426 212.874 69.0917 212.92 69.1254Z" fill="#263238"/>
</svg>
