<svg width="24" height="24" viewBox="0 0 24 24" fill="none" xmlns="http://www.w3.org/2000/svg">
<path fill-rule="evenodd" clip-rule="evenodd" d="M5 5C5.26522 5 5.51957 4.89464 5.70711 4.70711C5.89464 4.51957 6 4.26522 6 4C6 3.73478 6.10536 3.48043 6.29289 3.29289C6.48043 3.10536 6.73478 3 7 3C7.26522 3 7.51957 3.10536 7.70711 3.29289C7.89464 3.48043 8 3.73478 8 4C8 4.26522 8.10536 4.51957 8.29289 4.70711C8.48043 4.89464 8.73478 5 9 5H10C10.2652 5 10.5196 4.89464 10.7071 4.70711C10.8946 4.51957 11 4.26522 11 4C11 3.73478 11.1054 3.48043 11.2929 3.29289C11.4804 3.10536 11.7348 3 12 3C12.2652 3 12.5196 3.10536 12.7071 3.29289C12.8946 3.48043 13 3.73478 13 4C13 4.26522 13.1054 4.51957 13.2929 4.70711C13.4804 4.89464 13.7348 5 14 5H15C15.2652 5 15.5196 4.89464 15.7071 4.70711C15.8946 4.51957 16 4.26522 16 4C16 3.73478 16.1054 3.48043 16.2929 3.29289C16.4804 3.10536 16.7348 3 17 3C17.2652 3 17.5196 3.10536 17.7071 3.29289C17.8946 3.48043 18 3.73478 18 4C18 4.26522 18.1054 4.51957 18.2929 4.70711C18.4804 4.89464 18.7348 5 19 5C19.5304 5 20.0391 5.21071 20.4142 5.58579C20.7893 5.96086 21 6.46957 21 7V8C21 8.26522 20.8946 8.51957 20.7071 8.70711C20.5196 8.89464 20.2652 9 20 9H4C3.73478 9 3.48043 8.89464 3.29289 8.70711C3.10536 8.51957 3 8.26522 3 8V7C3 6.46957 3.21071 5.96086 3.58579 5.58579C3.96086 5.21071 4.46957 5 5 5ZM3 19V12C3 11.7348 3.10536 11.4804 3.29289 11.2929C3.48043 11.1054 3.73478 11 4 11H20C20.2652 11 20.5196 11.1054 20.7071 11.2929C20.8946 11.4804 21 11.7348 21 12V19C21 19.5304 20.7893 20.0391 20.4142 20.4142C20.0391 20.7893 19.5304 21 19 21H5C4.46957 21 3.96086 20.7893 3.58579 20.4142C3.21071 20.0391 3 19.5304 3 19ZM9.01 13C9.01 12.7348 8.90464 12.4804 8.71711 12.2929C8.52957 12.1054 8.27522 12 8.01 12C7.74478 12 7.49043 12.1054 7.30289 12.2929C7.11536 12.4804 7.01 12.7348 7.01 13C7.01 13.2652 7.11536 13.5196 7.30289 13.7071C7.49043 13.8946 7.74478 14 8.01 14C8.27522 14 8.52957 13.8946 8.71711 13.7071C8.90464 13.5196 9.01 13.2652 9.01 13ZM11.01 13C11.01 12.7348 11.1154 12.4804 11.3029 12.2929C11.4904 12.1054 11.7448 12 12.01 12C12.2752 12 12.5296 12.1054 12.7171 12.2929C12.9046 12.4804 13.01 12.7348 13.01 13C13.01 13.2652 12.9046 13.5196 12.7171 13.7071C12.5296 13.8946 12.2752 14 12.01 14C11.7448 14 11.4904 13.8946 11.3029 13.7071C11.1154 13.5196 11.01 13.2652 11.01 13ZM17.01 13C17.01 12.7348 16.9046 12.4804 16.7171 12.2929C16.5296 12.1054 16.2752 12 16.01 12C15.7448 12 15.4904 12.1054 15.3029 12.2929C15.1154 12.4804 15.01 12.7348 15.01 13C15.01 13.2652 15.1154 13.5196 15.3029 13.7071C15.4904 13.8946 15.7448 14 16.01 14C16.2752 14 16.5296 13.8946 16.7171 13.7071C16.9046 13.5196 17.01 13.2652 17.01 13ZM7.01 17C7.01 16.7348 7.11536 16.4804 7.30289 16.2929C7.49043 16.1054 7.74478 16 8.01 16C8.27522 16 8.52957 16.1054 8.71711 16.2929C8.90464 16.4804 9.01 16.7348 9.01 17C9.01 17.2652 8.90464 17.5196 8.71711 17.7071C8.52957 17.8946 8.27522 18 8.01 18C7.74478 18 7.49043 17.8946 7.30289 17.7071C7.11536 17.5196 7.01 17.2652 7.01 17ZM13.01 17C13.01 16.7348 12.9046 16.4804 12.7171 16.2929C12.5296 16.1054 12.2752 16 12.01 16C11.7448 16 11.4904 16.1054 11.3029 16.2929C11.1154 16.4804 11.01 16.7348 11.01 17C11.01 17.2652 11.1154 17.5196 11.3029 17.7071C11.4904 17.8946 11.7448 18 12.01 18C12.2752 18 12.5296 17.8946 12.7171 17.7071C12.9046 17.5196 13.01 17.2652 13.01 17ZM15.01 17C15.01 16.7348 15.1154 16.4804 15.3029 16.2929C15.4904 16.1054 15.7448 16 16.01 16C16.2752 16 16.5296 16.1054 16.7171 16.2929C16.9046 16.4804 17.01 16.7348 17.01 17C17.01 17.2652 16.9046 17.5196 16.7171 17.7071C16.5296 17.8946 16.2752 18 16.01 18C15.7448 18 15.4904 17.8946 15.3029 17.7071C15.1154 17.5196 15.01 17.2652 15.01 17Z" fill="#033849"/>
</svg>
