<svg width="24" height="24" viewBox="0 0 24 24" fill="none" xmlns="http://www.w3.org/2000/svg">
<path d="M2.038 5.60999C2.01266 5.73844 1.99993 5.86906 2 5.99999V18C2 18.5304 2.21071 19.0391 2.58579 19.4142C2.96086 19.7893 3.46957 20 4 20H20C20.5304 20 21.0391 19.7893 21.4142 19.4142C21.7893 19.0391 22 18.5304 22 18V5.99999C22 5.87999 21.99 5.76198 21.97 5.64798L21.104 6.29799L13.214 12.33C12.8652 12.5965 12.4385 12.741 11.9995 12.741C11.5605 12.741 11.1338 12.5965 10.785 12.33L2.884 6.28799L2.038 5.60999Z" fill="#033849"/>
<path d="M20.6769 4.117C20.4597 4.03917 20.2306 3.99958 19.9999 4H3.99991C3.77491 4 3.55991 4.037 3.35791 4.105L4.11591 4.712L11.9999 10.742L19.8999 4.7L20.6769 4.117Z" fill="#033849"/>
</svg>
