<svg width="545" height="545" viewBox="0 0 545 545" fill="none" xmlns="http://www.w3.org/2000/svg">
<path d="M484.189 312.994H305.549V209.618H484.189V312.994ZM306.639 311.904H483.099V210.708H306.639V311.904Z" fill="#E0E0E0"/>
<path d="M447.336 264.739H329.474V268.194H447.336V264.739Z" fill="#F0F0F0"/>
<path d="M455.456 277.623H329.474V281.394H455.456V277.623Z" fill="#F0F0F0"/>
<path d="M455.456 290.659H329.474V294.431H455.456V290.659Z" fill="#F0F0F0"/>
<path d="M370.665 246.024H329.474V254.995H370.665V246.024Z" fill="#F0F0F0"/>
<path d="M483.644 210.163H306.126V226.622H483.644V210.163Z" fill="#E0E0E0"/>
<path d="M469.986 224.158C469.757 223.94 472.046 221.183 475.087 218C478.128 214.817 480.799 212.408 481.017 212.615C481.235 212.822 478.957 215.591 475.916 218.785C472.874 221.978 470.204 224.376 469.986 224.158Z" fill="white"/>
<path d="M481.039 224.158C480.821 224.376 478.161 221.979 475.109 218.785C472.057 215.591 469.779 212.833 470.008 212.615C470.237 212.397 472.886 214.795 475.938 218C478.99 221.205 481.246 223.94 481.039 224.158Z" fill="white"/>
<path d="M264.368 5.45H86.8511V107.747H264.368V5.45Z" fill="#E6E6E6"/>
<path d="M228.071 60.0372H110.209V63.4925H228.071V60.0372Z" fill="#F0F0F0"/>
<path d="M236.192 72.921H110.209V76.6924H236.192V72.921Z" fill="#F0F0F0"/>
<path d="M236.192 85.9574H110.209V89.7288H236.192V85.9574Z" fill="#F0F0F0"/>
<path d="M151.401 41.3219H110.209V50.2926H151.401V41.3219Z" fill="#F0F0F0"/>
<path d="M264.368 5.45H86.8511V21.909H264.368V5.45Z" fill="#E0E0E0"/>
<path d="M250.111 19.3693C249.882 19.1622 252.171 16.3936 255.212 13.2108C258.253 10.028 260.924 7.6191 261.142 7.8371C261.36 8.0551 259.082 10.8128 256.041 13.9956C252.999 17.1784 250.329 19.5655 250.111 19.3693Z" fill="white"/>
<path d="M261.142 19.3693C260.924 19.5873 258.264 17.1893 255.212 13.9956C252.16 10.8019 249.882 8.05509 250.111 7.83709C250.34 7.61909 252.989 10.0171 256.041 13.2108C259.093 16.4045 261.371 19.1622 261.142 19.3693Z" fill="white"/>
<path d="M197.137 195.481H18.5298V92.0941H197.137V195.481ZM19.6198 194.391H196.047V93.1841H19.6198V194.391Z" fill="#E0E0E0"/>
<path d="M160.295 147.226H42.4336V150.682H160.295V147.226Z" fill="#F0F0F0"/>
<path d="M168.416 160.11H42.4336V163.881H168.416V160.11Z" fill="#F0F0F0"/>
<path d="M168.416 173.146H42.4336V176.918H168.416V173.146Z" fill="#F0F0F0"/>
<path d="M83.6247 128.511H42.4336V137.482H83.6247V128.511Z" fill="#F0F0F0"/>
<path d="M196.592 92.6391H19.0747V109.098H196.592V92.6391Z" fill="#E0E0E0"/>
<path d="M204.201 160.056H40.0029V330.651H204.201V160.056Z" fill="#F0F0F0"/>
<path d="M204.201 160.056H40.0029V178.64H204.201V160.056Z" fill="#E0E0E0"/>
<path d="M53.5622 169.157C53.5323 169.831 53.3052 170.481 52.909 171.027C52.5128 171.573 51.965 171.991 51.3336 172.228C50.7022 172.466 50.0149 172.513 49.3571 172.363C48.6993 172.213 48.1 171.874 47.6334 171.387C47.1668 170.899 46.8536 170.286 46.7326 169.622C46.6116 168.959 46.6882 168.274 46.9528 167.654C47.2173 167.033 47.6583 166.504 48.221 166.132C48.7836 165.759 49.4432 165.561 50.1178 165.56C51.0507 165.583 51.9366 165.974 52.5819 166.648C53.2273 167.322 53.5797 168.224 53.5622 169.157Z" fill="white"/>
<path d="M67.5469 169.157C67.5191 169.834 67.2928 170.488 66.8961 171.038C66.4995 171.587 65.95 172.008 65.316 172.248C64.6821 172.487 63.9917 172.535 63.3308 172.385C62.6698 172.235 62.0675 171.895 61.5988 171.405C61.1301 170.916 60.8157 170.299 60.6947 169.632C60.5737 168.966 60.6514 168.278 60.9183 167.655C61.1851 167.032 61.6292 166.501 62.1954 166.129C62.7616 165.756 63.4248 165.559 64.1025 165.56C65.0353 165.583 65.9212 165.974 66.5666 166.648C67.212 167.322 67.5644 168.224 67.5469 169.157Z" fill="white"/>
<path d="M81.5317 169.157C81.5039 169.834 81.2776 170.488 80.881 171.038C80.4843 171.587 79.9348 172.008 79.3009 172.248C78.667 172.487 77.9766 172.535 77.3156 172.385C76.6547 172.235 76.0524 171.895 75.5837 171.405C75.115 170.916 74.8006 170.299 74.6796 169.632C74.5585 168.966 74.6363 168.278 74.9031 167.655C75.17 167.032 75.6141 166.501 76.1803 166.129C76.7464 165.756 77.4096 165.559 78.0873 165.56C79.0202 165.583 79.9061 165.974 80.5515 166.648C81.1969 167.322 81.5493 168.224 81.5317 169.157Z" fill="white"/>
<path d="M460.743 42.7607H251.136V251.67H460.743V42.7607Z" fill="#F0F0F0"/>
<path d="M460.743 42.7607H251.136V67.2312H460.743V42.7607Z" fill="#E0E0E0"/>
<path d="M268.99 54.7507C268.952 55.6403 268.653 56.499 268.131 57.2203C267.608 57.9415 266.886 58.4934 266.053 58.8076C265.219 59.1217 264.312 59.1842 263.444 58.9873C262.576 58.7903 261.784 58.3427 261.168 57.6999C260.552 57.0571 260.138 56.2475 259.978 55.3716C259.818 54.4956 259.919 53.592 260.268 52.7728C260.617 51.9536 261.199 51.255 261.941 50.7637C262.684 50.2724 263.554 50.01 264.445 50.0092C265.676 50.0378 266.845 50.5528 267.697 51.4414C268.548 52.33 269.014 53.5199 268.99 54.7507Z" fill="white"/>
<path d="M286.07 51.5461C286.674 52.2023 287.072 53.0218 287.214 53.9026C287.356 54.7833 287.235 55.6863 286.867 56.499C286.5 57.3117 285.901 57.9982 285.146 58.473C284.39 58.9478 283.512 59.1899 282.62 59.1691C281.729 59.1483 280.863 58.8655 280.13 58.356C279.398 57.8465 278.832 57.1328 278.503 56.3038C278.173 55.4748 278.095 54.5672 278.278 53.6941C278.46 52.8209 278.896 52.0208 279.53 51.3935C280.418 50.5481 281.606 50.0895 282.832 50.1181C284.058 50.1467 285.222 50.6602 286.07 51.5461Z" fill="white"/>
<path d="M305.81 54.7507C305.772 55.6403 305.473 56.499 304.95 57.2203C304.428 57.9415 303.706 58.4934 302.872 58.8076C302.039 59.1217 301.132 59.1842 300.264 58.9873C299.395 58.7903 298.604 58.3427 297.988 57.6999C297.372 57.0571 296.958 56.2475 296.798 55.3716C296.638 54.4956 296.738 53.592 297.087 52.7728C297.436 51.9536 298.018 51.255 298.761 50.7637C299.504 50.2724 300.374 50.01 301.265 50.0092C302.495 50.0378 303.665 50.5528 304.516 51.4414C305.368 52.33 305.833 53.5199 305.81 54.7507Z" fill="white"/>
<path d="M366.436 360.474C349.596 348.713 345.781 326.88 346.446 307.249C346.555 303.979 346.195 300.513 347.754 297.646C349.313 294.78 352.953 292.807 355.885 294.18C358.316 295.325 359.373 298.159 360.736 300.502C362.554 303.623 365.218 306.167 368.42 307.838C370.502 308.928 373.085 309.582 375.146 308.448C377.98 306.89 378.307 302.998 378.285 299.728C378.285 293.646 378.248 287.571 378.176 281.503C377.98 278.245 378.311 274.977 379.157 271.824C380.17 268.729 382.427 265.862 385.511 264.99C388.596 264.118 392.444 265.916 393.141 269.099C393.262 270.447 393.294 271.802 393.24 273.154C393.327 274.517 393.959 276.01 395.234 276.424C396.51 276.838 397.839 275.89 398.82 274.931C402.178 271.661 404.467 267.399 406.592 263.191C408.718 258.984 410.799 254.657 413.851 251.071C416.903 247.484 421.122 244.64 425.841 244.367C430.561 244.095 435.477 246.994 436.654 251.572C437.831 256.15 435.161 260.826 432.294 264.543C427.968 270.06 422.869 274.925 417.154 278.986C416.039 279.595 415.148 280.546 414.614 281.7C413.906 283.88 415.966 286.06 418.113 286.746C420.544 287.553 423.182 287.302 425.743 287.607C428.305 287.913 431.03 289.024 432 291.422C433.33 294.758 430.539 298.246 427.803 300.535C422.31 305.113 416.072 308.715 409.361 311.184C406.963 312.056 404.445 312.83 402.505 314.509C400.564 316.187 399.409 319.119 400.575 321.419C401.742 323.719 404.739 324.449 407.257 323.981C409.775 323.512 412.009 322.16 414.407 321.256C418.887 319.566 424.664 319.871 427.487 323.741C428.362 325.074 428.916 326.591 429.105 328.174C429.294 329.757 429.113 331.363 428.577 332.864C427.486 335.852 425.807 338.591 423.64 340.919C416.501 349.449 407.225 355.93 396.76 359.7C386.373 363.297 376.748 364.278 366.426 360.496" fill="#00CDE5"/>
<path d="M431.858 247.059C431.858 247.059 431.76 247.168 431.542 247.365L430.572 248.226C429.722 248.989 428.468 250.101 426.888 251.572C422.407 255.733 418.246 260.225 414.44 265.012C412.009 268.031 409.492 271.454 406.81 275.17C404.129 278.887 401.36 282.899 398.613 287.161C395.685 291.655 393.003 296.305 390.58 301.091C389.316 303.587 388.204 306.192 387.059 308.852L383.68 316.972C379.226 327.201 375.347 337.67 372.061 348.331C369.414 357.054 367.589 366.006 366.611 375.069C365.977 381.185 365.875 387.345 366.306 393.479C366.48 395.659 366.644 397.327 366.796 398.46C366.862 399.005 366.905 399.441 366.949 399.758V400.204C366.902 400.063 366.869 399.917 366.851 399.768C366.796 399.452 366.731 399.027 366.644 398.482C366.447 397.392 366.24 395.67 366.044 393.49C365.518 387.345 365.555 381.164 366.153 375.025C367.071 365.924 368.856 356.93 371.483 348.168C374.742 337.477 378.61 326.981 383.07 316.732L386.536 308.644C387.681 305.996 388.803 303.369 390.079 300.862C392.519 296.062 395.222 291.4 398.177 286.899C400.968 282.539 403.78 278.593 406.429 274.909C409.077 271.225 411.639 267.78 414.059 264.772C417.903 259.998 422.12 255.537 426.67 251.43C428.283 249.981 429.569 248.891 430.441 248.16L431.455 247.343C431.579 247.235 431.714 247.14 431.858 247.059Z" fill="#263238"/>
<path d="M390.22 300.84C390.066 300.391 389.96 299.927 389.904 299.456C389.73 298.551 389.533 297.276 389.305 295.619C388.836 292.349 388.356 287.869 387.844 282.909C387.332 277.95 386.754 273.459 386.274 270.222C386.024 268.609 385.806 267.312 385.653 266.407C385.534 265.944 385.472 265.468 385.468 264.99C385.655 265.427 385.791 265.884 385.871 266.352C386.111 267.246 386.383 268.532 386.689 270.157C387.31 273.427 387.92 277.874 388.433 282.844C388.945 287.814 389.381 292.174 389.719 295.564C389.882 297.09 390.024 298.388 390.133 299.423C390.218 299.89 390.247 300.366 390.22 300.84Z" fill="#263238"/>
<path d="M432.164 293.014C431.633 293.129 431.093 293.195 430.55 293.21C429.46 293.308 427.913 293.439 425.994 293.657C422.157 294.071 416.882 294.834 411.094 295.924C405.306 297.014 400.107 298.246 396.368 299.194C394.504 299.674 393 300.11 392.008 300.404C391.478 300.592 390.93 300.724 390.373 300.796C390.877 300.543 391.402 300.335 391.943 300.175C392.967 299.815 394.45 299.314 396.303 298.78C400.02 297.69 405.219 296.393 411.029 295.281C415.95 294.34 420.916 293.649 425.907 293.21C427.836 293.047 429.395 292.981 430.485 292.959C431.045 292.921 431.607 292.94 432.164 293.014Z" fill="#263238"/>
<path d="M372.017 347.405C371.901 347.247 371.806 347.075 371.734 346.892L371.014 345.377C370.393 344.058 369.554 342.107 368.551 339.72C366.524 334.924 363.94 328.21 361.194 320.754C358.447 313.299 355.918 306.584 354 301.734C353.062 299.379 352.288 297.45 351.711 296.011L351.1 294.453C351.016 294.273 350.957 294.082 350.926 293.886C351.042 294.044 351.137 294.216 351.209 294.398L351.929 295.913C352.539 297.232 353.389 299.183 354.392 301.57C356.419 306.366 359.003 313.081 361.749 320.536C364.496 327.992 367.025 334.706 368.943 339.557C369.881 341.911 370.655 343.84 371.222 345.279C371.472 345.901 371.679 346.369 371.843 346.838C371.927 347.018 371.986 347.209 372.017 347.405Z" fill="#263238"/>
<path d="M427.694 329.452C427.52 329.553 427.333 329.63 427.139 329.681L425.525 330.226L419.563 332.156C414.527 333.791 407.573 336.123 399.943 338.696C392.313 341.268 385.326 343.557 380.258 345.083C377.729 345.857 375.669 346.446 374.241 346.838L372.595 347.263C372.404 347.324 372.206 347.364 372.006 347.383C372.181 347.283 372.368 347.206 372.562 347.154L374.175 346.609L380.138 344.68C385.174 343.045 392.128 340.712 399.758 338.14C407.388 335.567 414.364 333.278 419.432 331.752C421.972 330.978 424.021 330.39 425.46 329.997L427.106 329.572C427.297 329.512 427.495 329.471 427.694 329.452Z" fill="#263238"/>
<path d="M404.979 65.0512L399.365 67.0568L396.956 59.7211C392.531 46.1942 378.426 39.0111 365.466 43.5782C352.506 48.1453 345.606 62.9802 350.032 76.5071L352.44 83.8428L346.805 85.8593C344.656 86.6928 342.911 88.3223 341.933 90.4091C340.954 92.4959 340.818 94.8795 341.551 97.0645L357.171 144.796C357.495 145.877 358.034 146.883 358.754 147.752C359.475 148.622 360.362 149.337 361.365 149.857C362.368 150.377 363.464 150.689 364.59 150.777C365.716 150.864 366.848 150.724 367.919 150.365L426.092 129.557C428.269 128.725 430.039 127.081 431.029 124.971C432.019 122.861 432.152 120.449 431.4 118.243L415.769 70.5121C415.437 69.4335 414.89 68.433 414.163 67.5702C413.435 66.7074 412.541 66.0001 411.534 65.4904C410.526 64.9808 409.427 64.6792 408.301 64.6037C407.174 64.5283 406.045 64.6805 404.979 65.0512ZM360.637 72.6812C359.444 69.164 359.658 65.3215 361.235 61.9587C362.812 58.5959 365.629 55.9738 369.096 54.6417C370.808 54.056 372.62 53.8211 374.425 53.9511C376.229 54.081 377.99 54.5732 379.6 55.3982C381.21 56.2232 382.638 57.3642 383.798 58.753C384.958 60.1418 385.826 61.75 386.35 63.4816L388.748 70.8173L363.035 80.0169L360.637 72.6812ZM393.337 115.039L397.327 127.225C397.4 127.469 397.376 127.732 397.261 127.96C397.145 128.187 396.946 128.361 396.705 128.446L391.114 130.44C390.891 130.502 390.653 130.475 390.45 130.365C390.247 130.256 390.094 130.072 390.024 129.852L386.002 117.72C383.784 117.599 381.656 116.804 379.903 115.44C378.149 114.076 376.855 112.21 376.192 110.09C375.244 107.288 375.417 104.227 376.674 101.549C377.932 98.8713 380.177 96.7838 382.939 95.7238C384.302 95.2579 385.746 95.0712 387.183 95.1751C388.621 95.2789 390.023 95.671 391.305 96.3281C392.588 96.9852 393.725 97.8937 394.649 98.9997C395.573 100.106 396.265 101.386 396.684 102.765C397.385 104.919 397.443 107.23 396.85 109.415C396.258 111.601 395.041 113.567 393.348 115.071L393.337 115.039Z" fill="#00CDE5"/>
<path d="M347.59 411.279L238.71 410.777C232.422 410.743 226.405 408.214 221.981 403.746C217.556 399.279 215.085 393.238 215.112 386.95L216.267 114.003C216.28 110.888 216.906 107.806 218.111 104.933C219.316 102.06 221.075 99.4529 223.288 97.2603C225.501 95.0677 228.124 93.3327 231.008 92.1544C233.891 90.9762 236.979 90.3779 240.094 90.3937L348.964 90.8951C355.251 90.9268 361.269 93.4528 365.696 97.9184C370.123 102.384 372.596 108.424 372.573 114.712L371.418 387.648C371.405 390.764 370.778 393.847 369.574 396.721C368.369 399.595 366.611 402.204 364.398 404.398C362.185 406.592 359.562 408.33 356.678 409.51C353.795 410.691 350.706 411.292 347.59 411.279Z" fill="#455A64"/>
<path d="M348.8 100.28H327.698C327.009 100.293 326.33 100.441 325.699 100.716C325.067 100.992 324.497 101.389 324.019 101.885C323.541 102.381 323.166 102.966 322.914 103.607C322.663 104.248 322.54 104.932 322.553 105.621V109.447C322.566 110.135 322.443 110.819 322.191 111.459C321.94 112.1 321.564 112.684 321.086 113.179C320.608 113.674 320.037 114.07 319.406 114.345C318.775 114.619 318.096 114.766 317.408 114.777L276.271 114.592C274.88 114.555 273.56 113.967 272.601 112.957C271.643 111.948 271.124 110.599 271.159 109.207V105.381C271.195 103.991 270.677 102.644 269.721 101.635C268.765 100.626 267.448 100.037 266.058 99.9966H258.635L240.16 99.9094C235.765 99.8832 231.54 101.599 228.408 104.682C225.276 107.765 223.493 111.963 223.45 116.358L222.36 382.775C222.35 384.955 222.769 387.116 223.594 389.134C224.419 391.152 225.634 392.988 227.168 394.536C228.703 396.085 230.527 397.316 232.537 398.159C234.548 399.003 236.704 399.442 238.884 399.452L347.536 399.954C349.717 399.964 351.879 399.544 353.898 398.718C355.918 397.893 357.755 396.678 359.304 395.142C360.854 393.607 362.086 391.781 362.93 389.77C363.774 387.758 364.214 385.6 364.224 383.418L365.314 117.001C365.34 112.594 363.615 108.357 360.518 105.222C357.422 102.086 353.207 100.309 348.8 100.28Z" fill="white"/>
<path d="M334.295 365.539L253.504 365.19C252.665 365.19 251.989 364.274 252 363.163L252.087 342.028C252.087 340.938 252.774 340 253.613 340L334.404 340.371C334.869 340.451 335.285 340.708 335.566 341.088C335.846 341.468 335.969 341.941 335.908 342.409L335.832 363.522C335.832 364.645 335.134 365.55 334.295 365.539Z" fill="#00CDE5"/>
<path d="M279.057 357V348.273H280.114V356.063H284.17V357H279.057ZM288.33 357.136C287.739 357.136 287.22 356.996 286.774 356.715C286.331 356.433 285.984 356.04 285.734 355.534C285.487 355.028 285.364 354.438 285.364 353.761C285.364 353.08 285.487 352.484 285.734 351.976C285.984 351.467 286.331 351.073 286.774 350.791C287.22 350.51 287.739 350.369 288.33 350.369C288.92 350.369 289.438 350.51 289.881 350.791C290.327 351.073 290.673 351.467 290.92 351.976C291.17 352.484 291.295 353.08 291.295 353.761C291.295 354.438 291.17 355.028 290.92 355.534C290.673 356.04 290.327 356.433 289.881 356.715C289.438 356.996 288.92 357.136 288.33 357.136ZM288.33 356.233C288.778 356.233 289.148 356.118 289.438 355.888C289.727 355.658 289.942 355.355 290.081 354.98C290.22 354.605 290.29 354.199 290.29 353.761C290.29 353.324 290.22 352.916 290.081 352.538C289.942 352.161 289.727 351.855 289.438 351.622C289.148 351.389 288.778 351.273 288.33 351.273C287.881 351.273 287.511 351.389 287.222 351.622C286.932 351.855 286.717 352.161 286.578 352.538C286.439 352.916 286.369 353.324 286.369 353.761C286.369 354.199 286.439 354.605 286.578 354.98C286.717 355.355 286.932 355.658 287.222 355.888C287.511 356.118 287.881 356.233 288.33 356.233ZM295.473 359.591C294.987 359.591 294.569 359.528 294.22 359.403C293.87 359.281 293.579 359.119 293.346 358.918C293.116 358.719 292.933 358.506 292.797 358.278L293.598 357.716C293.689 357.835 293.804 357.972 293.943 358.125C294.082 358.281 294.272 358.416 294.514 358.53C294.758 358.646 295.078 358.705 295.473 358.705C296.001 358.705 296.437 358.577 296.781 358.321C297.125 358.065 297.297 357.665 297.297 357.119V355.79H297.211C297.137 355.909 297.032 356.057 296.896 356.233C296.762 356.406 296.569 356.561 296.316 356.698C296.066 356.831 295.728 356.898 295.302 356.898C294.774 356.898 294.299 356.773 293.879 356.523C293.461 356.273 293.13 355.909 292.886 355.432C292.645 354.955 292.524 354.375 292.524 353.693C292.524 353.023 292.642 352.439 292.877 351.942C293.113 351.442 293.441 351.055 293.862 350.783C294.282 350.507 294.768 350.369 295.319 350.369C295.745 350.369 296.083 350.44 296.333 350.582C296.586 350.722 296.779 350.881 296.913 351.06C297.049 351.236 297.154 351.381 297.228 351.494H297.331V350.455H298.302V357.188C298.302 357.75 298.174 358.207 297.919 358.56C297.666 358.915 297.325 359.175 296.896 359.34C296.47 359.507 295.995 359.591 295.473 359.591ZM295.439 355.994C295.842 355.994 296.183 355.902 296.461 355.717C296.74 355.533 296.951 355.267 297.096 354.921C297.241 354.574 297.314 354.159 297.314 353.676C297.314 353.205 297.243 352.788 297.1 352.428C296.958 352.067 296.748 351.784 296.47 351.58C296.191 351.375 295.848 351.273 295.439 351.273C295.012 351.273 294.657 351.381 294.373 351.597C294.092 351.813 293.88 352.102 293.738 352.466C293.599 352.83 293.529 353.233 293.529 353.676C293.529 354.131 293.6 354.533 293.743 354.882C293.887 355.229 294.1 355.501 294.382 355.7C294.666 355.896 295.018 355.994 295.439 355.994ZM300.143 357V350.455H301.149V357H300.143ZM300.654 349.364C300.458 349.364 300.289 349.297 300.147 349.163C300.008 349.03 299.939 348.869 299.939 348.682C299.939 348.494 300.008 348.334 300.147 348.2C300.289 348.067 300.458 348 300.654 348C300.85 348 301.018 348.067 301.157 348.2C301.299 348.334 301.37 348.494 301.37 348.682C301.37 348.869 301.299 349.03 301.157 349.163C301.018 349.297 300.85 349.364 300.654 349.364ZM303.996 353.063V357H302.991V350.455H303.962V351.477H304.048C304.201 351.145 304.434 350.878 304.746 350.676C305.059 350.472 305.462 350.369 305.957 350.369C306.4 350.369 306.788 350.46 307.12 350.642C307.452 350.821 307.711 351.094 307.896 351.46C308.08 351.824 308.173 352.284 308.173 352.841V357H307.167V352.909C307.167 352.395 307.033 351.994 306.766 351.707C306.499 351.418 306.133 351.273 305.667 351.273C305.346 351.273 305.059 351.342 304.806 351.482C304.556 351.621 304.359 351.824 304.214 352.091C304.069 352.358 303.996 352.682 303.996 353.063Z" fill="#E8E8E3"/>
<path d="M269.507 178.597L241.473 178.47L241.449 183.614L269.484 183.741L269.507 178.597Z" fill="#00CDE5"/>
<path opacity="0.1" d="M269.507 178.597L241.473 178.47L241.449 183.614L269.484 183.741L269.507 178.597Z" fill="black"/>
<path d="M351.688 210.185C351.909 210.162 352.125 210.111 352.331 210.032C352.633 209.914 352.895 209.714 353.088 209.453C353.281 209.193 353.397 208.884 353.421 208.561C353.421 206.828 353.421 204.299 353.421 201.051C353.421 199.426 353.421 197.606 353.421 195.601C353.421 195.11 353.421 194.598 353.421 194.085C353.493 193.588 353.384 193.082 353.116 192.658C352.966 192.454 352.771 192.288 352.546 192.173C352.321 192.057 352.072 191.996 351.819 191.993H350.119H334.368L243.201 191.655C242.967 191.651 242.736 191.703 242.528 191.808C242.319 191.912 242.139 192.065 242.002 192.254C241.738 192.681 241.638 193.188 241.718 193.682C241.718 194.772 241.718 195.862 241.718 196.952C241.718 199.132 241.718 201.312 241.718 203.492C241.718 204.582 241.718 205.672 241.718 206.762C241.673 207.27 241.673 207.78 241.718 208.288C241.776 208.506 241.882 208.707 242.029 208.877C242.177 209.047 242.361 209.181 242.568 209.269C242.783 209.355 243.013 209.395 243.244 209.389H248.792L273.001 209.52L313.985 209.771L341.617 209.989L349.127 210.076H351.078C351.525 210.076 351.743 210.076 351.743 210.076H351.078H349.127H341.617H313.985L273.001 209.945L248.792 209.847H243.244C242.939 209.859 242.634 209.807 242.35 209.694C242.063 209.572 241.808 209.385 241.604 209.149C241.4 208.913 241.253 208.633 241.173 208.332C241.11 208.046 241.088 207.752 241.108 207.46V206.653C241.108 205.563 241.108 204.473 241.108 203.383C241.108 201.203 241.108 199.023 241.108 196.843C241.108 195.753 241.108 194.663 241.108 193.573C241.087 193.283 241.087 192.991 241.108 192.701C241.149 192.38 241.273 192.076 241.468 191.818C241.656 191.555 241.904 191.341 242.193 191.195C242.481 191.049 242.801 190.975 243.124 190.979L334.292 191.48L350.043 191.589H351.743C352.042 191.59 352.338 191.662 352.603 191.8C352.869 191.939 353.097 192.14 353.269 192.385C353.576 192.859 353.7 193.429 353.618 193.987C353.618 194.5 353.618 195.012 353.618 195.502C353.618 197.486 353.618 199.307 353.618 200.952C353.618 204.222 353.541 206.729 353.52 208.473C353.493 208.809 353.371 209.129 353.168 209.398C352.966 209.666 352.69 209.871 352.375 209.989C352.169 210.116 351.931 210.184 351.688 210.185Z" fill="#E0E0E0"/>
<path d="M301.167 197.126H249.894V201.933H301.167V197.126Z" fill="#00CDE5"/>
<path opacity="0.2" d="M301.167 197.126H249.894V201.933H301.167V197.126Z" fill="white"/>
<path d="M269.316 225.531L241.281 225.404L241.258 230.548L269.292 230.675L269.316 225.531Z" fill="#00CDE5"/>
<path opacity="0.1" d="M269.316 225.531L241.281 225.404L241.258 230.548L269.292 230.675L269.316 225.531Z" fill="black"/>
<path d="M350.98 257.12C351.2 257.093 351.419 257.053 351.634 257C351.939 256.903 352.219 256.742 352.456 256.528C352.693 256.314 352.881 256.051 353.008 255.758C353.179 255.318 353.246 254.844 353.204 254.373C353.204 253.85 353.204 253.283 353.204 252.651C353.204 251.387 353.204 249.948 353.204 248.291V241.37C353.256 240.868 353.145 240.364 352.888 239.931C352.619 239.487 352.196 239.157 351.7 239.004C351.157 238.907 350.604 238.878 350.054 238.917H334.369L243.517 238.579C243.028 238.58 242.557 238.759 242.19 239.082C241.823 239.404 241.586 239.85 241.522 240.334C241.522 241.37 241.522 242.514 241.522 243.604C241.522 245.784 241.522 247.964 241.522 250.144C241.522 251.234 241.522 252.324 241.522 253.414C241.482 253.924 241.504 254.436 241.588 254.94C241.724 255.382 242.004 255.766 242.384 256.03C242.786 256.286 243.259 256.408 243.735 256.379H245.25H248.4L272.522 256.499L313.364 256.75L340.898 256.967L348.386 257.055H340.898H313.364L272.5 257.011L248.379 256.924H243.637C243.047 256.959 242.462 256.802 241.969 256.477C241.473 256.133 241.111 255.629 240.945 255.049C240.847 254.495 240.818 253.931 240.858 253.37C240.858 252.28 240.858 251.19 240.858 250.1C240.858 247.92 240.858 245.74 240.858 243.56C240.858 242.47 240.858 241.38 240.858 240.29C240.937 239.667 241.241 239.094 241.713 238.679C242.184 238.264 242.791 238.034 243.419 238.034L334.271 238.536L349.956 238.655C350.54 238.62 351.126 238.66 351.7 238.775C352.266 238.96 352.744 239.349 353.04 239.865C353.322 240.345 353.444 240.903 353.389 241.457C353.389 241.969 353.389 242.471 353.389 242.972C353.389 244.945 353.389 246.754 353.389 248.422C353.389 250.09 353.389 251.496 353.389 252.782C353.389 253.403 353.389 253.981 353.389 254.515C353.429 255.002 353.35 255.492 353.16 255.943C353.019 256.244 352.814 256.51 352.56 256.725C352.306 256.939 352.009 257.096 351.689 257.185C351.451 257.205 351.211 257.183 350.98 257.12Z" fill="#E0E0E0"/>
<path d="M269.104 274.503L241.07 274.376L241.046 279.521L269.081 279.648L269.104 274.503Z" fill="#00CDE5"/>
<path opacity="0.1" d="M269.104 274.503L241.07 274.376L241.046 279.521L269.081 279.648L269.104 274.503Z" fill="black"/>
<path d="M350.762 306.072C350.982 306.046 351.201 306.006 351.416 305.952C351.719 305.856 351.998 305.696 352.235 305.484C352.472 305.271 352.661 305.011 352.789 304.72C352.96 304.28 353.027 303.806 352.986 303.336C352.986 302.802 352.986 302.246 352.986 301.603C352.986 300.35 352.986 298.9 352.986 297.243V290.322C353.038 289.82 352.927 289.316 352.669 288.883C352.394 288.447 351.973 288.122 351.481 287.967C350.939 287.866 350.386 287.833 349.836 287.869H334.15L243.299 287.531C242.81 287.532 242.339 287.711 241.972 288.034C241.605 288.356 241.368 288.801 241.304 289.286C241.304 290.376 241.304 291.466 241.304 292.556C241.304 294.736 241.304 296.916 241.304 299.096C241.304 300.186 241.304 301.276 241.304 302.366C241.264 302.872 241.286 303.381 241.37 303.881C241.5 304.326 241.781 304.711 242.165 304.971C242.565 305.232 243.04 305.355 243.517 305.32H248.258L272.38 305.451L313.222 305.701L340.756 305.919L348.244 306.007H340.756H313.222L272.38 305.887L248.258 305.789H243.517C242.927 305.828 242.34 305.671 241.849 305.342C241.353 304.998 240.991 304.494 240.825 303.914C240.727 303.36 240.698 302.796 240.737 302.235C240.737 301.145 240.737 300.055 240.737 298.965C240.737 296.785 240.737 294.605 240.737 292.425C240.737 291.335 240.737 290.245 240.737 289.101C240.814 288.478 241.116 287.906 241.586 287.49C242.056 287.075 242.661 286.845 243.288 286.844L334.139 287.346L349.825 287.466C350.409 287.43 350.995 287.47 351.569 287.586C352.135 287.771 352.613 288.159 352.909 288.676C353.191 289.156 353.313 289.713 353.258 290.267C353.258 290.779 353.258 291.292 353.258 291.782C353.258 293.755 353.258 295.564 353.258 297.232C353.258 298.9 353.258 300.306 353.258 301.592C353.258 302.213 353.258 302.791 353.258 303.325C353.3 303.813 353.221 304.303 353.029 304.753C352.888 305.054 352.683 305.321 352.429 305.535C352.175 305.749 351.878 305.907 351.558 305.996C351.302 306.083 351.03 306.109 350.762 306.072Z" fill="#E0E0E0"/>
<path d="M300.072 245.421L248.799 245.188L248.778 249.995L300.051 250.228L300.072 245.421Z" fill="#00CDE5"/>
<path opacity="0.2" d="M300.072 245.421L248.799 245.188L248.778 249.995L300.051 250.228L300.072 245.421Z" fill="white"/>
<path d="M253.436 297.178C253.404 297.616 253.244 298.035 252.975 298.384C252.707 298.732 252.342 298.994 251.927 299.137C251.511 299.28 251.062 299.297 250.637 299.188C250.211 299.078 249.827 298.846 249.532 298.52C249.237 298.194 249.044 297.789 248.977 297.354C248.91 296.92 248.973 296.475 249.156 296.076C249.34 295.676 249.637 295.339 250.01 295.107C250.383 294.875 250.816 294.757 251.256 294.769C251.863 294.803 252.433 295.074 252.841 295.525C253.249 295.976 253.463 296.57 253.436 297.178Z" fill="#00CDE5"/>
<path d="M260.379 297.21C260.401 297.518 260.359 297.826 260.256 298.116C260.153 298.407 259.992 298.673 259.782 298.898C259.571 299.123 259.317 299.303 259.035 299.426C258.752 299.549 258.447 299.612 258.139 299.612C257.831 299.612 257.527 299.549 257.244 299.426C256.962 299.303 256.707 299.123 256.497 298.898C256.287 298.673 256.126 298.407 256.023 298.116C255.92 297.826 255.878 297.518 255.899 297.21C255.878 296.903 255.92 296.595 256.023 296.304C256.126 296.014 256.287 295.748 256.497 295.522C256.707 295.297 256.962 295.118 257.244 294.995C257.527 294.872 257.831 294.809 258.139 294.809C258.447 294.809 258.752 294.872 259.035 294.995C259.317 295.118 259.571 295.297 259.782 295.522C259.992 295.748 260.153 296.014 260.256 296.304C260.359 296.595 260.401 296.903 260.379 297.21Z" fill="#00CDE5"/>
<path d="M267.333 297.243C267.301 297.681 267.141 298.101 266.873 298.449C266.604 298.797 266.24 299.059 265.824 299.202C265.408 299.345 264.96 299.363 264.534 299.253C264.108 299.144 263.724 298.911 263.429 298.585C263.134 298.259 262.941 297.854 262.875 297.419C262.808 296.985 262.87 296.54 263.054 296.141C263.237 295.741 263.534 295.405 263.907 295.172C264.281 294.94 264.714 294.822 265.153 294.834C265.76 294.871 266.327 295.143 266.735 295.594C267.142 296.044 267.357 296.636 267.333 297.243Z" fill="#00CDE5"/>
<path d="M274.277 297.276C274.245 297.714 274.084 298.133 273.816 298.482C273.548 298.83 273.183 299.092 272.767 299.235C272.352 299.378 271.903 299.395 271.477 299.286C271.052 299.176 270.668 298.944 270.373 298.618C270.078 298.292 269.885 297.887 269.818 297.452C269.751 297.018 269.814 296.573 269.997 296.174C270.181 295.774 270.478 295.437 270.851 295.205C271.224 294.973 271.657 294.855 272.097 294.867C272.703 294.903 273.271 295.176 273.678 295.626C274.086 296.077 274.301 296.669 274.277 297.276Z" fill="#00CDE5"/>
<path d="M281.22 297.298C281.19 297.737 281.031 298.157 280.764 298.507C280.497 298.857 280.133 299.12 279.717 299.265C279.302 299.409 278.853 299.429 278.426 299.32C278 299.212 277.614 298.98 277.318 298.655C277.022 298.329 276.828 297.923 276.761 297.488C276.693 297.054 276.755 296.608 276.939 296.208C277.122 295.808 277.419 295.471 277.793 295.238C278.166 295.006 278.6 294.888 279.04 294.899C279.644 294.936 280.21 295.207 280.618 295.655C281.025 296.103 281.241 296.692 281.22 297.298Z" fill="#00CDE5"/>
<path d="M288.174 297.33C288.144 297.767 287.988 298.186 287.723 298.534C287.458 298.883 287.098 299.147 286.685 299.294C286.272 299.44 285.826 299.463 285.401 299.359C284.975 299.255 284.59 299.029 284.291 298.708C283.993 298.388 283.794 297.987 283.721 297.556C283.647 297.124 283.701 296.681 283.876 296.279C284.051 295.878 284.34 295.537 284.707 295.297C285.073 295.058 285.502 294.931 285.94 294.932C286.554 294.955 287.133 295.22 287.552 295.67C287.971 296.119 288.195 296.716 288.174 297.33Z" fill="#00CDE5"/>
<path d="M295.118 297.363C295.139 297.67 295.097 297.979 294.994 298.269C294.891 298.559 294.73 298.825 294.52 299.051C294.31 299.276 294.055 299.456 293.773 299.578C293.49 299.701 293.186 299.765 292.878 299.765C292.57 299.765 292.265 299.701 291.982 299.578C291.7 299.456 291.446 299.276 291.236 299.051C291.026 298.825 290.864 298.559 290.761 298.269C290.658 297.979 290.616 297.67 290.638 297.363C290.616 297.056 290.658 296.747 290.761 296.457C290.864 296.166 291.026 295.9 291.236 295.675C291.446 295.45 291.7 295.27 291.982 295.147C292.265 295.025 292.57 294.961 292.878 294.961C293.186 294.961 293.49 295.025 293.773 295.147C294.055 295.27 294.31 295.45 294.52 295.675C294.73 295.9 294.891 296.166 294.994 296.457C295.097 296.747 295.139 297.056 295.118 297.363Z" fill="#00CDE5"/>
<path d="M302.061 297.396C302.031 297.832 301.874 298.251 301.61 298.6C301.345 298.949 300.984 299.213 300.572 299.359C300.159 299.506 299.713 299.528 299.287 299.424C298.862 299.32 298.476 299.094 298.178 298.774C297.879 298.453 297.681 298.053 297.607 297.621C297.534 297.19 297.588 296.746 297.763 296.345C297.938 295.943 298.227 295.602 298.593 295.363C298.96 295.123 299.388 294.997 299.826 294.998C300.44 295.02 301.02 295.285 301.439 295.735C301.858 296.184 302.081 296.782 302.061 297.396Z" fill="#00CDE5"/>
<path d="M309.004 297.428C308.974 297.867 308.816 298.288 308.548 298.638C308.281 298.988 307.917 299.251 307.502 299.396C307.086 299.54 306.637 299.56 306.21 299.451C305.784 299.342 305.399 299.111 305.102 298.785C304.806 298.46 304.613 298.054 304.545 297.619C304.478 297.184 304.539 296.739 304.723 296.339C304.906 295.939 305.203 295.602 305.577 295.369C305.95 295.136 306.384 295.019 306.824 295.03C307.428 295.067 307.994 295.338 308.402 295.786C308.809 296.234 309.025 296.823 309.004 297.428Z" fill="#00CDE5"/>
<g opacity="0.2">
<path d="M253.436 297.178C253.404 297.616 253.244 298.035 252.975 298.384C252.707 298.732 252.342 298.994 251.927 299.137C251.511 299.28 251.062 299.297 250.637 299.188C250.211 299.078 249.827 298.846 249.532 298.52C249.237 298.194 249.044 297.789 248.977 297.354C248.91 296.92 248.973 296.475 249.156 296.076C249.34 295.676 249.637 295.339 250.01 295.107C250.383 294.875 250.816 294.757 251.256 294.769C251.863 294.803 252.433 295.074 252.841 295.525C253.249 295.976 253.463 296.57 253.436 297.178Z" fill="white"/>
<path d="M260.379 297.21C260.401 297.518 260.359 297.826 260.256 298.116C260.153 298.407 259.992 298.673 259.782 298.898C259.571 299.123 259.317 299.303 259.035 299.426C258.752 299.549 258.447 299.612 258.139 299.612C257.831 299.612 257.527 299.549 257.244 299.426C256.962 299.303 256.707 299.123 256.497 298.898C256.287 298.673 256.126 298.407 256.023 298.116C255.92 297.826 255.878 297.518 255.899 297.21C255.878 296.903 255.92 296.595 256.023 296.304C256.126 296.014 256.287 295.748 256.497 295.522C256.707 295.297 256.962 295.118 257.244 294.995C257.527 294.872 257.831 294.809 258.139 294.809C258.447 294.809 258.752 294.872 259.035 294.995C259.317 295.118 259.571 295.297 259.782 295.522C259.992 295.748 260.153 296.014 260.256 296.304C260.359 296.595 260.401 296.903 260.379 297.21Z" fill="white"/>
<path d="M267.333 297.243C267.301 297.681 267.141 298.101 266.873 298.449C266.604 298.797 266.24 299.059 265.824 299.202C265.408 299.345 264.96 299.363 264.534 299.253C264.108 299.144 263.724 298.911 263.429 298.585C263.134 298.259 262.941 297.854 262.875 297.419C262.808 296.985 262.87 296.54 263.054 296.141C263.237 295.741 263.534 295.405 263.907 295.172C264.281 294.94 264.714 294.822 265.153 294.834C265.76 294.871 266.327 295.143 266.735 295.594C267.142 296.044 267.357 296.636 267.333 297.243Z" fill="white"/>
<path d="M274.277 297.276C274.245 297.714 274.084 298.133 273.816 298.482C273.548 298.83 273.183 299.092 272.767 299.235C272.352 299.378 271.903 299.395 271.477 299.286C271.052 299.176 270.668 298.944 270.373 298.618C270.078 298.292 269.885 297.887 269.818 297.452C269.751 297.018 269.814 296.573 269.997 296.174C270.181 295.774 270.478 295.437 270.851 295.205C271.224 294.973 271.657 294.855 272.097 294.867C272.703 294.903 273.271 295.176 273.678 295.626C274.086 296.077 274.301 296.669 274.277 297.276Z" fill="white"/>
<path d="M281.22 297.298C281.19 297.737 281.031 298.157 280.764 298.507C280.497 298.857 280.133 299.12 279.717 299.265C279.302 299.409 278.853 299.429 278.426 299.32C278 299.212 277.614 298.98 277.318 298.655C277.022 298.329 276.828 297.923 276.761 297.488C276.693 297.054 276.755 296.608 276.939 296.208C277.122 295.808 277.419 295.471 277.793 295.238C278.166 295.006 278.6 294.888 279.04 294.899C279.644 294.936 280.21 295.207 280.618 295.655C281.025 296.103 281.241 296.692 281.22 297.298Z" fill="white"/>
<path d="M288.174 297.33C288.144 297.767 287.988 298.186 287.723 298.534C287.458 298.883 287.098 299.147 286.685 299.294C286.272 299.44 285.826 299.463 285.401 299.359C284.975 299.255 284.59 299.029 284.291 298.708C283.993 298.388 283.794 297.987 283.721 297.556C283.647 297.124 283.701 296.681 283.876 296.279C284.051 295.878 284.34 295.537 284.707 295.297C285.073 295.058 285.502 294.931 285.94 294.932C286.554 294.955 287.133 295.22 287.552 295.67C287.971 296.119 288.195 296.716 288.174 297.33Z" fill="white"/>
<path d="M295.118 297.363C295.139 297.67 295.097 297.979 294.994 298.269C294.891 298.559 294.73 298.825 294.52 299.051C294.31 299.276 294.055 299.456 293.773 299.578C293.49 299.701 293.186 299.765 292.878 299.765C292.57 299.765 292.265 299.701 291.982 299.578C291.7 299.456 291.446 299.276 291.236 299.051C291.026 298.825 290.864 298.559 290.761 298.269C290.658 297.979 290.616 297.67 290.638 297.363C290.616 297.056 290.658 296.747 290.761 296.457C290.864 296.166 291.026 295.9 291.236 295.675C291.446 295.45 291.7 295.27 291.982 295.147C292.265 295.025 292.57 294.961 292.878 294.961C293.186 294.961 293.49 295.025 293.773 295.147C294.055 295.27 294.31 295.45 294.52 295.675C294.73 295.9 294.891 296.166 294.994 296.457C295.097 296.747 295.139 297.056 295.118 297.363Z" fill="white"/>
<path d="M302.061 297.396C302.031 297.832 301.874 298.251 301.61 298.6C301.345 298.949 300.984 299.213 300.572 299.359C300.159 299.506 299.713 299.528 299.287 299.424C298.862 299.32 298.476 299.094 298.178 298.774C297.879 298.453 297.681 298.053 297.607 297.621C297.534 297.19 297.588 296.746 297.763 296.345C297.938 295.943 298.227 295.602 298.593 295.363C298.96 295.123 299.388 294.997 299.826 294.998C300.44 295.02 301.02 295.285 301.439 295.735C301.858 296.184 302.081 296.782 302.061 297.396Z" fill="white"/>
<path d="M309.004 297.428C308.974 297.867 308.816 298.288 308.548 298.638C308.281 298.988 307.917 299.251 307.502 299.396C307.086 299.54 306.637 299.56 306.21 299.451C305.784 299.342 305.399 299.111 305.102 298.785C304.806 298.46 304.613 298.054 304.545 297.619C304.478 297.184 304.539 296.739 304.723 296.339C304.906 295.939 305.203 295.602 305.577 295.369C305.95 295.136 306.384 295.019 306.824 295.03C307.428 295.067 307.994 295.338 308.402 295.786C308.809 296.234 309.025 296.823 309.004 297.428Z" fill="white"/>
</g>
<path d="M299.14 140.076C299.897 139.742 300.539 139.194 300.987 138.498C301.435 137.802 301.668 136.99 301.658 136.163C301.686 135.625 301.604 135.087 301.418 134.582C301.231 134.077 300.944 133.615 300.573 133.224C300.203 132.833 299.756 132.522 299.262 132.31C298.767 132.097 298.234 131.987 297.695 131.987C297.157 131.987 296.624 132.097 296.129 132.31C295.634 132.522 295.188 132.833 294.817 133.224C294.447 133.615 294.159 134.077 293.973 134.582C293.787 135.087 293.705 135.625 293.733 136.163C293.717 136.998 293.948 137.82 294.398 138.524C294.848 139.229 295.497 139.784 296.262 140.12C290.158 141.035 290.431 147.662 290.431 147.662L304.862 147.728C304.862 147.728 305.2 140.981 299.14 140.076Z" fill="#00CDE5"/>
<path opacity="0.1" d="M299.14 140.076C299.897 139.742 300.539 139.194 300.987 138.498C301.435 137.802 301.668 136.99 301.658 136.163C301.686 135.625 301.604 135.087 301.418 134.582C301.231 134.077 300.944 133.615 300.573 133.224C300.203 132.833 299.756 132.522 299.262 132.31C298.767 132.097 298.234 131.987 297.695 131.987C297.157 131.987 296.624 132.097 296.129 132.31C295.634 132.522 295.188 132.833 294.817 133.224C294.447 133.615 294.159 134.077 293.973 134.582C293.787 135.087 293.705 135.625 293.733 136.163C293.717 136.998 293.948 137.82 294.398 138.524C294.848 139.229 295.497 139.784 296.262 140.12C290.158 141.035 290.431 147.662 290.431 147.662L304.862 147.728C304.862 147.728 305.2 140.981 299.14 140.076Z" fill="black"/>
<path d="M322.59 152.002L271.154 151.769L271.126 157.916L322.562 158.15L322.59 152.002Z" fill="#00CDE5"/>
<path opacity="0.2" d="M322.59 152.002L271.154 151.769L271.126 157.916L322.562 158.15L322.59 152.002Z" fill="white"/>
<path d="M133.493 183.861H132.98L131.498 183.97C130.696 184.018 129.898 184.124 129.111 184.286C128.601 184.358 128.095 184.456 127.596 184.581L125.906 185.049C123.031 185.932 120.317 187.275 117.873 189.028C114.643 191.372 111.946 194.374 109.959 197.835C108.792 199.83 107.862 201.956 107.191 204.168C106.485 206.572 106.079 209.054 105.981 211.558C105.916 212.873 105.938 214.192 106.046 215.504C106.046 216.169 106.232 216.834 106.319 217.51C106.392 218.191 106.52 218.865 106.7 219.526C107.68 223.9 109.669 227.984 112.508 231.453C115.347 234.922 118.957 237.68 123.05 239.506C126.013 240.784 129.189 241.498 132.413 241.609C135.744 241.793 139.078 241.315 142.223 240.203L143.183 239.844H143.313L143.422 239.909L157.167 246.885L156.764 247.234C155.293 242.678 153.876 238.263 152.502 234.023V233.86L152.622 233.74C155.956 230.381 158.432 226.268 159.838 221.75C161.112 217.618 161.483 213.262 160.928 208.975C160.434 205.165 159.209 201.486 157.32 198.14C155.692 195.266 153.591 192.687 151.107 190.51C149.057 188.787 146.788 187.343 144.36 186.216C142.522 185.423 140.608 184.82 138.648 184.417L136.468 184.057L134.888 183.938L133.929 183.872H133.602C133.71 183.86 133.82 183.86 133.929 183.872H134.899L136.479 183.938L138.659 184.254C140.644 184.627 142.584 185.208 144.447 185.987C146.917 187.101 149.227 188.542 151.314 190.27C153.844 192.437 155.989 195.017 157.658 197.9C159.6 201.282 160.863 205.011 161.375 208.877C161.976 213.23 161.63 217.662 160.361 221.87C158.946 226.482 156.432 230.683 153.036 234.11L153.102 233.827C154.475 238.067 155.903 242.481 157.385 247.027L157.592 247.692L156.971 247.376L143.226 240.41H143.466L142.485 240.77C139.279 241.898 135.883 242.387 132.49 242.209C129.195 242.083 125.953 241.344 122.93 240.029C117.164 237.559 112.366 233.267 109.273 227.81C107.849 225.29 106.809 222.571 106.188 219.744C106.018 219.066 105.89 218.378 105.807 217.684C105.719 216.997 105.578 216.321 105.545 215.646C105.25 211.767 105.66 207.867 106.755 204.135C107.443 201.893 108.398 199.741 109.6 197.726C111.634 194.233 114.387 191.213 117.677 188.864C120.161 187.107 122.92 185.774 125.841 184.919L127.552 184.483C128.056 184.366 128.565 184.275 129.078 184.21C129.873 184.063 130.679 183.975 131.487 183.948L132.98 183.894C133.15 183.871 133.321 183.86 133.493 183.861Z" fill="#00CDE5"/>
<path d="M139.705 209.28H137.689L133.329 203.154V199.132C133.329 199.132 130.211 198.936 130.582 204.201C130.953 209.465 130.582 208.125 130.582 208.125C130.582 208.125 123.966 208.125 123.421 208.724C122.876 209.324 122.843 215.711 122.767 219.275C122.725 220.135 122.972 220.983 123.467 221.686C123.963 222.389 124.679 222.906 125.503 223.156C125.733 223.22 125.972 223.253 126.211 223.254C127.868 223.254 136.294 221.913 136.294 221.913H139.771L139.705 209.28Z" fill="#00CDE5"/>
<path d="M145.472 208.201L144.229 221.978H140.785V208.484L145.472 208.201Z" fill="#00CDE5"/>
<path d="M186.554 488.691V479.371L169.844 479.251L169.702 493.345L170.738 493.421C175.348 493.716 194.194 494.152 197.29 493.192C200.734 492.124 186.554 488.691 186.554 488.691Z" fill="#00CDE5"/>
<path d="M197.683 492.32C197.683 492.473 191.426 492.604 183.72 492.604C176.013 492.604 169.757 492.473 169.757 492.32C169.757 492.168 176.013 492.037 183.72 492.037C191.426 492.037 197.683 492.168 197.683 492.32Z" fill="#263238"/>
<path d="M186.848 490.598C186.706 490.522 186.848 490.031 187.186 489.508C187.524 488.985 187.982 488.767 188.091 488.876C188.2 488.985 187.971 489.399 187.644 489.846C187.317 490.293 186.99 490.674 186.848 490.598Z" fill="#263238"/>
<path d="M187.916 491.208C187.763 491.208 187.84 490.598 188.167 490.02C188.494 489.443 188.93 489.094 189.049 489.181C189.169 489.268 188.973 489.759 188.668 490.271C188.363 490.783 188.058 491.263 187.916 491.208Z" fill="#263238"/>
<path d="M174.792 492.277C174.727 492.277 174.476 492.08 174.116 491.666C173.677 491.134 173.188 490.645 172.656 490.206C172.132 489.787 171.509 489.513 170.846 489.41C170.334 489.345 170.007 489.41 169.974 489.345C169.942 489.279 170.258 489.05 170.857 489.007C171.649 488.99 172.42 489.252 173.037 489.748C173.615 490.219 174.103 490.792 174.476 491.437C174.727 491.917 174.858 492.233 174.792 492.277Z" fill="#263238"/>
<path d="M186.902 488.843C186.979 488.974 186.695 489.301 186.216 489.475C185.736 489.65 185.311 489.584 185.289 489.475C185.267 489.366 185.605 489.137 186.019 488.985C186.434 488.832 186.815 488.712 186.902 488.843Z" fill="#263238"/>
<path d="M186.641 487.939C186.641 488.102 186.205 488.233 185.638 488.244C185.071 488.255 184.624 488.124 184.635 487.971C184.646 487.819 185.093 487.677 185.638 487.666C186.183 487.655 186.619 487.786 186.641 487.939Z" fill="#263238"/>
<path d="M227.701 488.691V479.371L210.991 479.251L210.85 493.203L211.885 493.28C216.496 493.574 235.353 494.152 238.438 493.192C241.882 492.124 227.701 488.691 227.701 488.691Z" fill="#00CDE5"/>
<path d="M238.83 492.342C238.83 492.495 232.584 492.626 224.867 492.626C217.15 492.626 210.915 492.495 210.915 492.342C210.915 492.19 217.161 492.059 224.867 492.059C232.573 492.059 238.83 492.19 238.83 492.342Z" fill="#263238"/>
<path d="M227.995 490.598C227.864 490.522 227.995 490.031 228.333 489.508C228.671 488.985 229.129 488.767 229.238 488.876C229.347 488.985 229.118 489.399 228.791 489.846C228.464 490.293 228.137 490.674 227.995 490.598Z" fill="#263238"/>
<path d="M229.063 491.208C228.922 491.208 228.987 490.598 229.325 490.02C229.663 489.443 230.088 489.094 230.208 489.181C230.328 489.268 230.121 489.759 229.816 490.271C229.51 490.783 229.216 491.263 229.063 491.208Z" fill="#263238"/>
<path d="M215.94 492.277C215.874 492.277 215.635 492.08 215.264 491.666C214.825 491.134 214.336 490.645 213.803 490.206C213.28 489.787 212.656 489.513 211.994 489.41C211.493 489.345 211.155 489.41 211.122 489.345C211.089 489.279 211.405 489.05 212.005 489.007C212.796 488.99 213.568 489.252 214.185 489.748C214.766 490.216 215.254 490.789 215.624 491.437C215.874 491.917 216.005 492.233 215.94 492.277Z" fill="#263238"/>
<path d="M228.05 488.843C228.126 488.974 227.843 489.301 227.363 489.475C226.883 489.65 226.458 489.584 226.437 489.475C226.415 489.366 226.753 489.137 227.167 488.985C227.581 488.832 227.963 488.712 228.05 488.843Z" fill="#263238"/>
<path d="M227.81 487.939C227.81 488.102 227.374 488.233 226.807 488.244C226.24 488.255 225.804 488.124 225.815 487.971C225.826 487.819 226.262 487.677 226.807 487.666C227.352 487.655 227.81 487.786 227.81 487.939Z" fill="#263238"/>
<path d="M289.264 211.94C288.828 211.493 287.749 211.711 287.749 211.711C287.857 211.083 287.857 210.442 287.749 209.814C287.553 209.204 286.18 209.324 286.18 209.324C286.116 208.81 286.116 208.29 286.18 207.776C286.19 207.662 286.166 207.547 286.109 207.448C286.053 207.348 285.967 207.269 285.863 207.22C285.214 206.955 284.516 206.829 283.814 206.849C282.975 206.25 286.376 201.486 287.64 199.96C288.905 198.434 288.676 197.246 287.553 197.246C286.779 197.246 282.811 201.824 281.591 203.361C280.37 204.898 277.133 209.171 277.024 205.759C276.915 202.348 275.541 199.775 274.68 199.339C273.819 198.903 272.903 199.928 273.372 200.876C273.784 201.953 274.041 203.084 274.135 204.233C274.253 205.149 274.213 206.078 274.015 206.98C273.654 208.658 273.162 210.305 272.544 211.907H272.456C272.456 211.907 248.673 234.721 246.95 236.345C245.414 237.805 214.501 234.612 208.299 233.958C206.192 233.649 204.063 233.503 201.933 233.522C199.241 233.642 198.762 234.023 196.08 234.056C189.308 234.131 182.552 234.725 175.872 235.832C172.846 236.347 170.021 237.682 167.702 239.693C165.384 241.703 163.663 244.312 162.726 247.234C156.48 266.745 142.332 312.928 139.836 338.87C137.95 342.291 136.247 345.809 134.735 349.41C132.98 354.185 133.405 354.348 133.994 354.457C135.585 354.751 137.395 346.184 138.07 348.255C138.746 350.326 134.637 358.468 136.305 358.708C138.485 359.013 140.218 349.988 140.425 349.269C140.632 348.549 141.711 348.778 141.515 349.454C141.199 350.413 138.136 360.583 140.272 360.91C141.449 361.084 141.58 358.937 141.58 358.937C141.58 358.937 143.76 349.203 144.752 349.399C145.744 349.596 144.687 355.34 144.185 357.258C143.684 359.177 144.381 360.147 145.406 359.678C146.104 359.351 147.771 353.52 148.229 351.623C148.687 349.726 149.831 344.473 151.368 347.514C152.905 350.555 155.238 352.321 156.197 352.364C156.413 352.339 156.617 352.25 156.782 352.109C156.947 351.967 157.066 351.779 157.124 351.569C157.181 351.359 157.174 351.137 157.104 350.931C157.034 350.725 156.904 350.545 156.731 350.413C155.906 349.608 155.198 348.69 154.627 347.688C154.119 346.908 153.75 346.045 153.537 345.138C153.098 343.33 152.843 341.482 152.774 339.622L152.6 338.532C155.042 326.444 162.072 290.965 172.22 268.303L176.384 276.871L178.193 283.215L167.097 310.606L214.425 309.985L207.362 282.801L215.94 254.46C225.216 254.668 249.032 255.016 253 253.218C257.992 251.038 283.814 218.425 283.814 218.425C285.497 217.117 287.109 215.72 288.643 214.24C288.643 214.24 290.213 212.921 289.264 211.94Z" fill="#FFBE9D"/>
<path d="M165.015 290.365C166.389 285.678 173.441 262.505 173.441 262.505C173.441 262.505 176.907 281.394 175.991 283.673C175.149 285.623 174.154 287.503 173.016 289.297C165.015 301.472 166.062 307.565 166.062 307.565L214.403 306.094C214.512 299.336 210.512 283.618 209.683 281.111C208.855 278.604 211.613 270.396 211.613 270.396C211.613 270.396 217.063 264.848 216.866 261.992C216.763 259.427 216.446 256.875 215.918 254.362L245.348 255.452L244.422 235.505L202.151 231.276C200.68 235.429 187.371 233.391 187.371 233.391C173.005 233.87 172.111 236.508 166.138 241.152C160.165 245.795 150.278 285.645 150.278 285.645L165.015 290.365Z" fill="#00CDE5"/>
<path d="M193.595 285.645C192.757 285.795 191.904 285.839 191.055 285.776C189.475 285.776 187.305 285.667 184.918 285.427C182.531 285.188 180.373 284.85 178.836 284.544C177.989 284.435 177.158 284.223 176.362 283.912C177.214 283.913 178.064 283.993 178.902 284.152C180.449 284.348 182.597 284.621 184.973 284.861C187.349 285.1 189.507 285.264 191.066 285.373C191.916 285.384 192.762 285.475 193.595 285.645Z" fill="#263238"/>
<path d="M196.908 281.536C196.07 281.947 195.184 282.251 194.271 282.441C189.922 283.584 185.435 284.115 180.94 284.021C180.01 284.052 179.079 283.964 178.171 283.76C179.089 283.644 180.015 283.596 180.94 283.618C182.651 283.564 185.006 283.444 187.6 283.138C190.194 282.833 192.505 282.397 194.14 282.048C195.048 281.806 195.974 281.635 196.908 281.536Z" fill="#263238"/>
<path d="M213.171 263.202C213.149 264.033 213.036 264.859 212.833 265.666C212.55 267.181 212.114 269.252 211.558 271.519C211.002 273.786 210.468 275.879 209.988 277.296C209.796 278.107 209.51 278.893 209.138 279.639C209.199 278.811 209.352 277.992 209.596 277.198C210.01 275.497 210.479 273.535 211.002 271.388C211.525 269.241 212.027 267.279 212.441 265.578C212.588 264.76 212.834 263.962 213.171 263.202Z" fill="#263238"/>
<path d="M165.527 287.586C163.006 287.196 160.517 286.617 158.083 285.852C155.595 285.271 153.154 284.506 150.78 283.563C153.3 283.959 155.788 284.538 158.224 285.297C160.713 285.876 163.154 286.641 165.527 287.586Z" fill="#263238"/>
<path d="M216.442 254.123C216.03 254.193 215.61 254.193 215.199 254.123C214.06 254.006 212.942 253.738 211.874 253.327C210.091 252.657 208.468 251.621 207.109 250.287C205.75 248.952 204.685 247.348 203.983 245.577C203.207 243.629 202.875 241.533 203.013 239.44C203.061 237.715 203.577 236.034 204.506 234.579C205.159 233.598 206.135 232.877 207.264 232.541C207.565 232.457 207.877 232.417 208.19 232.421C208.408 232.421 208.517 232.421 208.517 232.421C208.517 232.421 208.059 232.421 207.329 232.715C206.293 233.098 205.415 233.815 204.833 234.753C203.351 237.086 202.936 241.348 204.517 245.326C205.253 247.202 206.404 248.887 207.885 250.253C209.098 251.371 210.496 252.271 212.016 252.913C213.443 253.476 214.927 253.882 216.442 254.123Z" fill="#263238"/>
<path d="M241.849 255.06C241.576 251.717 241.489 248.362 241.587 245.01C241.502 241.661 241.604 238.309 241.893 234.971C242.166 238.31 242.253 241.662 242.154 245.01C242.246 248.363 242.144 251.719 241.849 255.06Z" fill="#263238"/>
<path d="M201.868 232.497C201.988 230.066 202.239 227.32 202.239 227.32C202.239 227.32 208.256 226.655 208.615 220.442C208.975 214.229 208.615 199.895 208.615 199.895L197.715 194.314L185.616 203.83L187.48 234.895L198.576 235.603C199.424 235.627 200.247 235.313 200.864 234.731C201.482 234.148 201.842 233.345 201.868 232.497Z" fill="#FFBE9D"/>
<path d="M202.947 215.526C202.947 215.526 202.947 215.646 202.849 215.787C202.768 215.89 202.663 215.972 202.544 216.025C202.424 216.078 202.293 216.101 202.163 216.092C201.465 216.092 200.789 215.286 200.549 214.348C200.435 213.894 200.435 213.419 200.549 212.964C200.572 212.766 200.643 212.576 200.757 212.413C200.872 212.249 201.025 212.116 201.203 212.027C201.35 211.966 201.515 211.966 201.661 212.027C201.77 212.081 201.858 212.169 201.912 212.277C201.988 212.463 201.912 212.583 201.912 212.572C201.912 212.561 201.912 212.463 201.803 212.354C201.746 212.276 201.662 212.221 201.568 212.201C201.473 212.181 201.374 212.197 201.291 212.245C201.157 212.326 201.046 212.439 200.968 212.574C200.889 212.71 200.847 212.862 200.844 213.019C200.752 213.424 200.752 213.845 200.844 214.25C201.062 215.101 201.65 215.787 202.173 215.853C202.276 215.867 202.38 215.859 202.479 215.831C202.579 215.803 202.671 215.755 202.751 215.689C202.882 215.602 202.926 215.515 202.947 215.526Z" fill="#EB996E"/>
<path d="M212.354 196.538C211.514 193.682 208.473 192.265 205.705 191.48C201.486 190.281 196.93 189.758 192.81 191.273C188.69 192.788 183.741 195.448 183.741 199.993C181.311 199.797 179.915 201.923 178.956 204.56C178.343 206.167 177.975 207.858 177.866 209.574C177.561 215.526 175.893 223.744 172.035 228.104C169.855 230.535 166.835 232.214 165.593 235.244C164.503 237.871 165.07 240.988 164.056 243.648C163.151 245.991 161.156 247.659 159.696 249.697C158.208 252.01 157.332 254.662 157.151 257.406C156.97 260.15 157.489 262.894 158.66 265.382C159.84 267.806 161.501 269.965 163.541 271.726C165.582 273.488 167.96 274.816 170.53 275.628C175.622 277.177 181.051 277.23 186.172 275.781C190.015 274.862 193.6 273.084 196.658 270.582C199.786 268.027 201.935 264.468 202.74 260.51C203.514 256.063 202.271 251.539 201.345 247.114C198.445 233.129 199.274 232.399 202.936 219.417C203.023 219.188 203.067 218.948 203.132 218.719C203.198 218.491 203.23 218.382 203.274 218.207C203.378 217.694 203.433 217.172 203.438 216.648C202.903 216.847 202.322 216.889 201.764 216.77C201.206 216.65 200.694 216.373 200.287 215.973C199.88 215.545 199.596 215.016 199.466 214.44C199.335 213.864 199.363 213.264 199.546 212.703C199.803 212.089 200.187 211.536 200.671 211.08C201.156 210.623 201.73 210.274 202.358 210.054C203.568 209.553 204.865 209.291 206.054 208.735C208.571 207.536 210.315 205.051 211.504 202.446C212.48 200.64 212.782 198.546 212.354 196.538Z" fill="#263238"/>
<path d="M203.383 215.82C203.613 216.16 203.803 216.526 203.95 216.91C204.277 217.597 204.713 218.567 205.192 219.69L205.279 219.897H205.051L203.961 219.995C203.208 219.995 202.576 220.136 201.835 220.125C201.771 220.111 201.711 220.08 201.661 220.037C201.612 219.993 201.574 219.937 201.552 219.875C201.519 219.776 201.519 219.669 201.552 219.57C201.577 219.423 201.61 219.277 201.65 219.134L201.846 218.36C201.945 217.843 202.098 217.339 202.304 216.855C202.283 217.382 202.207 217.904 202.075 218.414L201.922 219.188C201.868 219.45 201.77 219.853 201.922 219.82C202.467 219.82 203.241 219.7 203.961 219.657L205.051 219.559L204.909 219.798C204.44 218.708 204.048 217.684 203.819 216.975C203.618 216.614 203.471 216.224 203.383 215.82Z" fill="#00CDE5"/>
<path d="M166.062 307.565L214.403 306.094L235.44 388.214L231.571 482.412H206.01L209.139 390.22L190.445 333.049L193.323 486.064L167.49 486.445L164.776 342.62C164.656 338.619 163.348 329.605 163.838 325.638L166.062 307.565Z" fill="#263238"/>
<path d="M196.876 334.216C196.084 334.266 195.29 334.218 194.51 334.074C193.05 333.9 191.055 333.595 188.864 333.159C186.673 332.723 184.711 332.221 183.294 331.818C182.537 331.651 181.804 331.388 181.114 331.033C181.114 330.87 184.668 331.72 189.028 332.603C193.388 333.486 196.897 334.052 196.876 334.216Z" fill="#455A64"/>
<path d="M231.309 477.246C231.309 477.398 225.521 477.529 218.382 477.529C211.242 477.529 205.443 477.398 205.443 477.246C205.443 477.093 211.231 476.962 218.382 476.962C225.532 476.962 231.309 477.082 231.309 477.246Z" fill="#455A64"/>
<path d="M193.093 482.085C193.093 482.249 187.469 482.369 180.537 482.369C173.604 482.369 167.991 482.249 167.991 482.085C167.991 481.922 173.615 481.802 180.537 481.802C187.458 481.802 193.093 481.933 193.093 482.085Z" fill="#455A64"/>
<path d="M189.758 481.693C189.606 481.693 188.93 448.263 188.243 407.028C187.556 365.793 187.153 332.341 187.295 332.341C187.437 332.341 188.134 365.76 188.81 407.017C189.486 448.273 189.922 481.693 189.758 481.693Z" fill="#455A64"/>
<path d="M227.875 477.246C227.863 477.097 227.863 476.947 227.875 476.799V475.491C227.875 474.314 227.963 472.624 228.028 470.477C228.181 466.117 228.399 459.784 228.671 452.023C229.26 436.414 230.088 414.898 230.993 391.147C230.993 390.918 230.993 390.7 230.993 390.503V390.58C225.27 367.69 220.093 346.914 216.332 331.883L211.972 314.105C211.471 312.023 211.089 310.399 210.817 309.266C210.686 308.732 210.599 308.317 210.523 308.001C210.48 307.859 210.455 307.713 210.446 307.565C210.503 307.703 210.547 307.845 210.577 307.99C210.664 308.296 210.773 308.71 210.926 309.233C211.22 310.323 211.645 311.98 212.19 314.051C213.28 318.258 214.817 324.319 216.736 331.785C220.529 346.805 225.761 367.526 231.56 390.449V390.525C231.56 390.721 231.56 390.95 231.56 391.168C230.589 414.919 229.707 436.425 229.063 452.034C228.726 459.806 228.442 466.095 228.246 470.477C228.137 472.657 228.05 474.314 227.995 475.491C227.995 476.047 227.93 476.483 227.919 476.799C227.921 476.949 227.906 477.099 227.875 477.246Z" fill="#455A64"/>
<path d="M219.537 388.585C217.701 389.189 215.809 389.609 213.891 389.839C211.536 390.242 209.531 390.525 208.626 390.569V390.351C208.92 390.438 209.073 390.493 209.073 390.536C209.073 390.58 208.887 390.536 208.582 390.536H207.928L208.582 390.34C209.432 390.089 211.438 389.675 213.792 389.25C215.681 388.84 217.605 388.618 219.537 388.585Z" fill="#455A64"/>
<path d="M219.09 391.713C217.39 391.791 215.686 391.715 214 391.484C212.297 391.45 210.601 391.264 208.931 390.928C212.338 390.651 215.767 390.915 219.09 391.713Z" fill="#455A64"/>
<path opacity="0.2" d="M165.854 309.298C166.427 310.034 167.148 310.64 167.971 311.077C168.793 311.515 169.699 311.774 170.629 311.838C172.576 312.069 174.545 312.032 176.482 311.729C188.962 310.345 202.184 309.07 214.403 306.094C198.587 306.977 181.877 306.682 166.062 307.565L165.898 308.917" fill="black"/>
<g opacity="0.2">
<path d="M182.15 331.589L191.066 366.186L190.445 333.049L182.15 331.589Z" fill="black"/>
</g>
</svg>
