<svg width="24" height="24" viewBox="0 0 24 24" fill="none" xmlns="http://www.w3.org/2000/svg">
<path d="M13.5 2C13.322 2 13.144 2.013 13.008 2.022L12.934 2.027C12.6807 2.04375 12.4433 2.15619 12.2699 2.34151C12.0964 2.52684 12 2.77118 12 3.025V11C12 11.2652 12.1054 11.5196 12.2929 11.7071C12.4804 11.8946 12.7348 12 13 12H20.975C21.2288 12 21.4732 11.9036 21.6585 11.7301C21.8438 11.5567 21.9562 11.3193 21.973 11.066L21.978 10.992C21.9911 10.8283 21.9984 10.6642 22 10.5C22 9.38376 21.7801 8.27846 21.353 7.24719C20.9258 6.21592 20.2997 5.27889 19.5104 4.48959C18.7211 3.70029 17.7841 3.07419 16.7528 2.64702C15.7215 2.21986 14.6162 2 13.5 2Z" fill="#033849"/>
<path d="M10.9999 6.02502C10.9999 5.88821 10.9719 5.75286 10.9175 5.62733C10.8631 5.5018 10.7835 5.38876 10.6837 5.29522C10.5839 5.20167 10.4659 5.1296 10.3371 5.08347C10.2083 5.03734 10.0714 5.01812 9.93493 5.02702C8.30471 5.13394 6.73985 5.70839 5.42765 6.68162C4.11545 7.65485 3.11152 8.98561 2.53603 10.5146C1.96054 12.0436 1.83788 13.7061 2.18273 15.303C2.52758 16.8999 3.32532 18.3636 4.48047 19.5189C5.63562 20.6741 7.09923 21.4721 8.6961 21.8171C10.293 22.1621 11.9554 22.0396 13.4845 21.4643C15.0136 20.889 16.3445 19.8852 17.3178 18.5731C18.2912 17.261 18.8658 15.6962 18.9729 14.066C18.982 13.9294 18.9629 13.7924 18.9168 13.6635C18.8707 13.5346 18.7987 13.4165 18.7051 13.3166C18.6116 13.2166 18.4985 13.137 18.3729 13.0825C18.2473 13.0281 18.1118 13 17.9749 13H10.9999V6.02502Z" fill="#033849"/>
</svg>
