<svg width="28" height="30" viewBox="0 0 28 30" fill="none" xmlns="http://www.w3.org/2000/svg">
<g filter="url(#filter0_d_499_201)">
<path d="M15.5 2C15.322 2 15.144 2.013 15.008 2.022L14.934 2.027C14.6807 2.04375 14.4433 2.15619 14.2699 2.34151C14.0964 2.52684 14 2.77118 14 3.025V11C14 11.2652 14.1054 11.5196 14.2929 11.7071C14.4804 11.8946 14.7348 12 15 12H22.975C23.2288 12 23.4732 11.9036 23.6585 11.7301C23.8438 11.5567 23.9562 11.3193 23.973 11.066L23.978 10.992C23.9911 10.8283 23.9984 10.6642 24 10.5C24 9.38376 23.7801 8.27846 23.353 7.24719C22.9258 6.21592 22.2997 5.27889 21.5104 4.48959C20.7211 3.70029 19.7841 3.07419 18.7528 2.64702C17.7215 2.21986 16.6162 2 15.5 2Z" fill="black"/>
<path d="M12.9999 6.02502C12.9999 5.88821 12.9719 5.75286 12.9175 5.62733C12.8631 5.5018 12.7835 5.38876 12.6837 5.29522C12.5839 5.20167 12.4659 5.1296 12.3371 5.08347C12.2083 5.03734 12.0714 5.01812 11.9349 5.02702C10.3047 5.13394 8.73985 5.70839 7.42765 6.68162C6.11545 7.65485 5.11152 8.98561 4.53603 10.5146C3.96054 12.0436 3.83788 13.7061 4.18273 15.303C4.52758 16.8999 5.32532 18.3636 6.48047 19.5189C7.63562 20.6741 9.09923 21.4721 10.6961 21.8171C12.293 22.1621 13.9554 22.0396 15.4845 21.4643C17.0136 20.889 18.3445 19.8852 19.3178 18.5731C20.2912 17.261 20.8658 15.6962 20.9729 14.066C20.982 13.9294 20.9629 13.7924 20.9168 13.6635C20.8707 13.5346 20.7987 13.4165 20.7051 13.3166C20.6116 13.2166 20.4985 13.137 20.3729 13.0825C20.2473 13.0281 20.1118 13 19.9749 13H12.9999V6.02502Z" fill="black"/>
</g>
<defs>
<filter id="filter0_d_499_201" x="-2" y="0" width="32" height="32" filterUnits="userSpaceOnUse" color-interpolation-filters="sRGB">
<feFlood flood-opacity="0" result="BackgroundImageFix"/>
<feColorMatrix in="SourceAlpha" type="matrix" values="0 0 0 0 0 0 0 0 0 0 0 0 0 0 0 0 0 0 127 0" result="hardAlpha"/>
<feOffset dy="4"/>
<feGaussianBlur stdDeviation="2"/>
<feComposite in2="hardAlpha" operator="out"/>
<feColorMatrix type="matrix" values="0 0 0 0 0 0 0 0 0 0 0 0 0 0 0 0 0 0 0.25 0"/>
<feBlend mode="normal" in2="BackgroundImageFix" result="effect1_dropShadow_499_201"/>
<feBlend mode="normal" in="SourceGraphic" in2="effect1_dropShadow_499_201" result="shape"/>
</filter>
</defs>
</svg>
