<svg width="545" height="545" viewBox="0 0 545 545" fill="none" xmlns="http://www.w3.org/2000/svg">
<path d="M484.19 312.993H305.55V209.618H484.19V312.993ZM306.64 311.903H483.1V210.708H306.64V311.903Z" fill="#E0E0E0"/>
<path d="M447.337 264.739H329.475V268.194H447.337V264.739Z" fill="#F0F0F0"/>
<path d="M455.457 277.623H329.475V281.394H455.457V277.623Z" fill="#F0F0F0"/>
<path d="M455.457 290.66H329.475V294.431H455.457V290.66Z" fill="#F0F0F0"/>
<path d="M370.666 246.024H329.475V254.994H370.666V246.024Z" fill="#F0F0F0"/>
<path d="M483.645 210.163H306.127V226.622H483.645V210.163Z" fill="#E0E0E0"/>
<path d="M469.987 224.158C469.759 223.94 472.048 221.183 475.089 218C478.13 214.817 480.8 212.408 481.018 212.615C481.236 212.822 478.958 215.591 475.917 218.785C472.876 221.978 470.205 224.376 469.987 224.158Z" fill="white"/>
<path d="M481.04 224.158C480.822 224.376 478.162 221.978 475.11 218.784C472.058 215.591 469.78 212.833 470.009 212.615C470.238 212.397 472.887 214.795 475.939 218C478.991 221.204 481.247 223.94 481.04 224.158Z" fill="white"/>
<path d="M264.369 5.44981H86.8521V107.746H264.369V5.44981Z" fill="#E6E6E6"/>
<path d="M228.072 60.0373H110.21V63.4926H228.072V60.0373Z" fill="#F0F0F0"/>
<path d="M236.193 72.9206H110.21V76.6921H236.193V72.9206Z" fill="#F0F0F0"/>
<path d="M236.193 85.9572H110.21V89.7286H236.193V85.9572Z" fill="#F0F0F0"/>
<path d="M151.402 41.3219H110.21V50.2926H151.402V41.3219Z" fill="#F0F0F0"/>
<path d="M264.369 5.44981H86.8521V21.9088H264.369V5.44981Z" fill="#E0E0E0"/>
<path d="M250.112 19.3691C249.883 19.162 252.172 16.3934 255.213 13.2106C258.254 10.0278 260.925 7.61891 261.143 7.83691C261.361 8.05491 259.083 10.8126 256.042 13.9954C253 17.1782 250.33 19.5653 250.112 19.3691Z" fill="white"/>
<path d="M261.143 19.3692C260.925 19.5872 258.265 17.1892 255.213 13.9955C252.161 10.8018 249.883 8.05496 250.112 7.83696C250.341 7.61896 252.99 10.017 256.042 13.2107C259.094 16.4044 261.372 19.1621 261.143 19.3692Z" fill="white"/>
<path d="M197.138 195.481H18.5308V92.0943H197.138V195.481ZM19.6208 194.391H196.048V93.1843H19.6208V194.391Z" fill="#E0E0E0"/>
<path d="M160.297 147.226H42.4351V150.682H160.297V147.226Z" fill="#F0F0F0"/>
<path d="M168.417 160.11H42.4351V163.881H168.417V160.11Z" fill="#F0F0F0"/>
<path d="M168.417 173.147H42.4351V176.918H168.417V173.147Z" fill="#F0F0F0"/>
<path d="M83.6262 128.511H42.4351V137.482H83.6262V128.511Z" fill="#F0F0F0"/>
<path d="M196.593 92.6388H19.0752V109.098H196.593V92.6388Z" fill="#E0E0E0"/>
<path d="M403.268 219.166H193.661V406.821H403.268V219.166Z" fill="#E6E6E6"/>
<path d="M204.201 160.056H40.0034V330.652H204.201V160.056Z" fill="#F0F0F0"/>
<path d="M204.201 160.056H40.0034V178.64H204.201V160.056Z" fill="#E0E0E0"/>
<path d="M53.5632 169.157C53.5333 169.831 53.3061 170.481 52.91 171.027C52.5138 171.573 51.966 171.991 51.3346 172.229C50.7031 172.466 50.0159 172.513 49.3581 172.363C48.7003 172.214 48.1009 171.874 47.6344 171.387C47.1678 170.9 46.8546 170.286 46.7336 169.622C46.6126 168.959 46.6891 168.274 46.9537 167.654C47.2183 167.033 47.6593 166.504 48.222 166.132C48.7846 165.76 49.4442 165.561 50.1188 165.56C51.0516 165.583 51.9375 165.974 52.5829 166.648C53.2283 167.322 53.5807 168.224 53.5632 169.157Z" fill="white"/>
<path d="M67.5483 169.157C67.5205 169.834 67.2942 170.488 66.8976 171.038C66.5009 171.587 65.9514 172.008 65.3175 172.248C64.6836 172.487 63.9932 172.535 63.3322 172.385C62.6713 172.236 62.069 171.895 61.6003 171.405C61.1316 170.916 60.8172 170.299 60.6962 169.632C60.5751 168.966 60.6529 168.278 60.9197 167.655C61.1866 167.032 61.6307 166.501 62.1969 166.129C62.763 165.756 63.4262 165.559 64.1039 165.56C65.0368 165.583 65.9227 165.974 66.5681 166.648C67.2135 167.322 67.5659 168.224 67.5483 169.157Z" fill="white"/>
<path d="M81.5327 169.157C81.5049 169.834 81.2786 170.488 80.882 171.038C80.4853 171.587 79.9358 172.008 79.3019 172.248C78.668 172.487 77.9776 172.535 77.3166 172.385C76.6557 172.236 76.0534 171.895 75.5847 171.405C75.116 170.916 74.8015 170.299 74.6805 169.632C74.5595 168.966 74.6373 168.278 74.9041 167.655C75.1709 167.032 75.6151 166.501 76.1812 166.129C76.7474 165.756 77.4106 165.559 78.0883 165.56C79.0212 165.583 79.9071 165.974 80.5525 166.648C81.1978 167.322 81.5503 168.224 81.5327 169.157Z" fill="white"/>
<path d="M460.744 42.7606H251.137V251.67H460.744V42.7606Z" fill="#F0F0F0"/>
<path d="M460.744 42.7606H251.137V67.2311H460.744V42.7606Z" fill="#E0E0E0"/>
<path d="M268.991 54.7509C268.952 55.6405 268.653 56.4992 268.131 57.2204C267.609 57.9416 266.886 58.4936 266.053 58.8077C265.22 59.1219 264.313 59.1843 263.444 58.9874C262.576 58.7905 261.785 58.3429 261.168 57.7001C260.552 57.0573 260.138 56.2476 259.978 55.3717C259.818 54.4958 259.919 53.5921 260.268 52.7729C260.617 51.9538 261.199 51.2552 261.942 50.7639C262.684 50.2726 263.555 50.0102 264.445 50.0094C265.676 50.038 266.845 50.5529 267.697 51.4416C268.549 52.3302 269.014 53.5201 268.991 54.7509Z" fill="white"/>
<path d="M286.071 51.5458C286.675 52.2021 287.073 53.0216 287.214 53.9023C287.356 54.783 287.236 55.686 286.868 56.4987C286.5 57.3115 285.901 57.998 285.146 58.4728C284.391 58.9476 283.513 59.1897 282.621 59.1688C281.729 59.148 280.863 58.8653 280.131 58.3558C279.399 57.8463 278.832 57.1325 278.503 56.3035C278.174 55.4746 278.095 54.5669 278.278 53.6938C278.461 52.8206 278.896 52.0206 279.531 51.3932C280.419 50.5479 281.606 50.0892 282.832 50.1179C284.058 50.1465 285.223 50.66 286.071 51.5458Z" fill="white"/>
<path d="M305.811 54.7509C305.773 55.6405 305.474 56.4992 304.951 57.2204C304.429 57.9416 303.707 58.4936 302.873 58.8077C302.04 59.1219 301.133 59.1843 300.265 58.9874C299.396 58.7905 298.605 58.3429 297.989 57.7001C297.373 57.0573 296.959 56.2476 296.799 55.3717C296.639 54.4958 296.739 53.5921 297.088 52.7729C297.437 51.9538 298.019 51.2552 298.762 50.7639C299.505 50.2726 300.375 50.0102 301.266 50.0094C302.496 50.038 303.666 50.5529 304.517 51.4416C305.369 52.3302 305.834 53.5201 305.811 54.7509Z" fill="white"/>
<path d="M366.436 360.474C349.596 348.713 345.781 326.88 346.446 307.249C346.555 303.979 346.195 300.513 347.754 297.647C349.313 294.78 352.953 292.807 355.885 294.18C358.316 295.325 359.373 298.159 360.736 300.502C362.554 303.624 365.218 306.167 368.42 307.838C370.502 308.928 373.085 309.582 375.146 308.448C377.98 306.89 378.307 302.998 378.285 299.728C378.285 293.646 378.248 287.571 378.176 281.504C377.98 278.245 378.311 274.977 379.157 271.824C380.17 268.729 382.427 265.862 385.511 264.99C388.596 264.118 392.444 265.917 393.141 269.099C393.262 270.448 393.294 271.802 393.24 273.154C393.327 274.517 393.959 276.01 395.234 276.424C396.51 276.838 397.839 275.89 398.82 274.931C402.178 271.661 404.467 267.399 406.592 263.192C408.718 258.984 410.799 254.657 413.851 251.071C416.903 247.485 421.122 244.64 425.841 244.367C430.561 244.095 435.477 246.994 436.654 251.572C437.831 256.15 435.161 260.826 432.294 264.543C427.968 270.06 422.869 274.925 417.154 278.986C416.039 279.595 415.148 280.546 414.614 281.7C413.906 283.88 415.966 286.06 418.113 286.747C420.544 287.553 423.182 287.302 425.743 287.608C428.305 287.913 431.03 289.025 432 291.423C433.33 294.758 430.539 298.246 427.803 300.535C422.31 305.113 416.072 308.715 409.361 311.184C406.963 312.056 404.445 312.83 402.505 314.509C400.564 316.187 399.409 319.12 400.575 321.419C401.742 323.719 404.739 324.45 407.257 323.981C409.775 323.512 412.009 322.161 414.407 321.256C418.887 319.566 424.664 319.872 427.487 323.741C428.362 325.074 428.916 326.592 429.105 328.175C429.294 329.758 429.113 331.363 428.577 332.864C427.486 335.853 425.807 338.592 423.64 340.92C416.501 349.449 407.225 355.93 396.76 359.7C386.373 363.297 376.748 364.278 366.426 360.496" fill="#00CDE5"/>
<path d="M431.858 247.059C431.858 247.059 431.76 247.168 431.542 247.365L430.572 248.226C429.721 248.989 428.468 250.1 426.888 251.572C422.406 255.733 418.245 260.225 414.44 265.012C412.009 268.031 409.491 271.454 406.81 275.17C404.128 278.887 401.36 282.899 398.613 287.16C395.684 291.655 393.003 296.305 390.58 301.091C389.315 303.587 388.203 306.192 387.059 308.851L383.68 316.972C379.226 327.201 375.347 337.67 372.06 348.331C369.413 357.054 367.589 366.006 366.61 375.069C365.977 381.185 365.874 387.345 366.305 393.479C366.48 395.659 366.643 397.327 366.796 398.46C366.861 399.005 366.905 399.441 366.948 399.757V400.204C366.901 400.063 366.869 399.917 366.85 399.768C366.796 399.452 366.73 399.027 366.643 398.482C366.447 397.392 366.24 395.67 366.044 393.49C365.518 387.345 365.554 381.164 366.153 375.025C367.07 365.924 368.855 356.93 371.483 348.168C374.741 337.477 378.61 326.981 383.069 316.732L386.536 308.644C387.68 305.996 388.803 303.369 390.078 300.862C392.518 296.062 395.222 291.4 398.177 286.899C400.967 282.539 403.779 278.593 406.428 274.909C409.077 271.225 411.638 267.78 414.058 264.772C417.902 259.998 422.119 255.537 426.669 251.43C428.283 249.981 429.569 248.891 430.441 248.16L431.455 247.343C431.579 247.235 431.714 247.14 431.858 247.059Z" fill="#263238"/>
<path d="M390.22 300.84C390.066 300.391 389.96 299.927 389.904 299.456C389.73 298.551 389.533 297.276 389.305 295.619C388.836 292.349 388.356 287.869 387.844 282.91C387.332 277.95 386.754 273.459 386.274 270.222C386.024 268.609 385.806 267.312 385.653 266.407C385.534 265.944 385.472 265.468 385.468 264.99C385.655 265.427 385.791 265.884 385.871 266.353C386.111 267.246 386.383 268.533 386.689 270.157C387.31 273.427 387.92 277.874 388.433 282.844C388.945 287.815 389.381 292.175 389.719 295.565C389.882 297.091 390.024 298.388 390.133 299.423C390.218 299.891 390.247 300.366 390.22 300.84Z" fill="#263238"/>
<path d="M432.164 293.014C431.633 293.129 431.093 293.195 430.55 293.21C429.46 293.308 427.913 293.439 425.994 293.657C422.157 294.071 416.882 294.834 411.094 295.924C405.306 297.014 400.107 298.246 396.368 299.194C394.504 299.674 393 300.11 392.008 300.404C391.478 300.592 390.93 300.724 390.373 300.797C390.877 300.543 391.402 300.335 391.943 300.175C392.967 299.816 394.45 299.314 396.303 298.78C400.02 297.69 405.219 296.393 411.029 295.281C415.95 294.34 420.916 293.649 425.907 293.21C427.836 293.047 429.395 292.981 430.485 292.959C431.045 292.921 431.607 292.94 432.164 293.014Z" fill="#263238"/>
<path d="M372.017 347.405C371.901 347.247 371.805 347.075 371.733 346.893L371.014 345.378C370.393 344.059 369.553 342.108 368.551 339.72C366.523 334.924 363.94 328.21 361.193 320.754C358.446 313.299 355.917 306.584 353.999 301.734C353.062 299.38 352.288 297.45 351.71 296.011L351.1 294.453C351.015 294.273 350.956 294.082 350.925 293.886C351.042 294.044 351.137 294.216 351.209 294.398L351.928 295.913C352.538 297.232 353.389 299.183 354.391 301.57C356.419 306.366 359.002 313.081 361.749 320.536C364.496 327.992 367.025 334.706 368.943 339.557C369.88 341.911 370.654 343.841 371.221 345.279C371.472 345.901 371.679 346.369 371.842 346.838C371.927 347.018 371.986 347.209 372.017 347.405Z" fill="#263238"/>
<path d="M427.694 329.453C427.519 329.553 427.333 329.63 427.138 329.682L425.525 330.227L419.563 332.156C414.527 333.791 407.573 336.123 399.943 338.696C392.313 341.268 385.326 343.557 380.257 345.083C377.728 345.857 375.668 346.446 374.24 346.838L372.594 347.263C372.403 347.324 372.206 347.364 372.006 347.383C372.18 347.283 372.367 347.206 372.562 347.154L374.175 346.609L380.137 344.68C385.173 343.045 392.127 340.712 399.757 338.14C407.387 335.568 414.363 333.279 419.432 331.753C421.971 330.979 424.021 330.39 425.459 329.998L427.105 329.573C427.297 329.512 427.494 329.472 427.694 329.453Z" fill="#263238"/>
<path d="M404.978 65.0512L399.365 67.0568L396.956 59.7211C392.53 46.1942 378.426 39.0111 365.466 43.5782C352.505 48.1453 345.606 62.9802 350.031 76.5071L352.44 83.8428L346.805 85.8593C344.656 86.6927 342.911 88.3222 341.932 90.4091C340.954 92.4959 340.817 94.8795 341.551 97.0645L357.171 144.796C357.495 145.877 358.033 146.883 358.754 147.752C359.474 148.622 360.362 149.337 361.365 149.857C362.367 150.377 363.464 150.689 364.59 150.777C365.715 150.864 366.847 150.724 367.918 150.365L426.091 129.557C428.269 128.725 430.038 127.081 431.028 124.971C432.018 122.861 432.151 120.449 431.4 118.243L415.769 70.5121C415.436 69.4335 414.89 68.4329 414.162 67.5701C413.434 66.7074 412.54 66 411.533 65.4904C410.526 64.9807 409.426 64.6792 408.3 64.6037C407.174 64.5282 406.044 64.6804 404.978 65.0512ZM360.637 72.6812C359.444 69.164 359.658 65.3215 361.235 61.9587C362.811 58.5959 365.628 55.9738 369.095 54.6417C370.807 54.0559 372.62 53.821 374.424 53.951C376.229 54.081 377.989 54.5732 379.599 55.3982C381.21 56.2232 382.637 57.3642 383.797 58.7529C384.957 60.1417 385.825 61.7499 386.35 63.4816L388.748 70.8173L363.035 80.0169L360.637 72.6812ZM393.337 115.039L397.326 127.225C397.399 127.469 397.376 127.732 397.26 127.96C397.144 128.187 396.946 128.361 396.705 128.446L391.113 130.44C390.891 130.502 390.653 130.475 390.45 130.365C390.247 130.256 390.094 130.072 390.023 129.852L386.001 117.72C383.783 117.599 381.655 116.804 379.902 115.44C378.149 114.076 376.854 112.21 376.191 110.09C375.243 107.288 375.416 104.227 376.674 101.549C377.931 98.8713 380.176 96.7838 382.938 95.7238C384.302 95.2578 385.746 95.0712 387.183 95.175C388.62 95.2788 390.022 95.671 391.305 96.328C392.587 96.9851 393.725 97.8937 394.649 98.9996C395.573 100.106 396.265 101.386 396.683 102.765C397.384 104.919 397.442 107.23 396.85 109.415C396.258 111.601 395.04 113.567 393.348 115.071L393.337 115.039Z" fill="#00CDE5"/>
<path d="M399.114 66.926C399.114 67.0786 388.704 70.9917 375.755 75.646C362.806 80.3003 352.244 84.039 352.189 83.93C352.135 83.821 362.599 79.8752 375.559 75.21C388.519 70.5448 399.059 66.7843 399.114 66.926Z" fill="#263238"/>
<path d="M411.474 68.9318C411.523 69.0264 411.563 69.1248 411.594 69.2261C411.682 69.4441 411.78 69.7275 411.91 70.0763C412.194 70.872 412.586 71.9729 413.077 73.3463L417.262 85.5325C419.006 90.6991 421.088 96.8249 423.399 103.626C424.489 107.038 425.775 110.592 426.974 114.33C427.616 116.257 427.893 118.286 427.792 120.314C427.699 121.369 427.399 122.395 426.909 123.334C426.385 124.269 425.686 125.094 424.849 125.764C423.165 126.994 421.296 127.947 419.312 128.587L413.698 130.604L403.071 134.408L385.075 140.817L372.921 145.09L369.651 146.18L368.779 146.463C368.686 146.505 368.586 146.531 368.485 146.54C368.485 146.54 368.572 146.54 368.757 146.409L369.608 146.071L372.878 144.839L384.966 140.392L402.929 133.852L413.535 130.015L419.148 127.988C421.076 127.373 422.891 126.449 424.522 125.252C425.3 124.63 425.952 123.864 426.44 122.996C426.902 122.128 427.18 121.174 427.258 120.194C427.358 118.24 427.092 116.285 426.473 114.428C425.296 110.722 424.053 107.136 422.93 103.725C420.663 96.9121 418.57 90.7645 416.914 85.5979C415.257 80.4313 413.862 76.2784 412.902 73.3572C412.445 71.9293 412.096 70.8175 411.812 70.0109L411.551 69.1389C411.518 69.0728 411.492 69.0034 411.474 68.9318Z" fill="#263238"/>
<path d="M380.781 53.9003C380.781 53.9003 380.203 53.6169 379.135 53.1809C377.612 52.5959 376.002 52.2716 374.371 52.2217C371.955 52.1388 369.55 52.593 367.33 53.5515C364.631 54.745 362.322 56.6755 360.67 59.1214C359.007 61.5603 358.115 64.4425 358.109 67.3945C358.131 69.814 358.498 72.2179 359.199 74.534C359.765 76.5178 360.354 78.0983 360.746 79.1992C360.978 79.7584 361.167 80.334 361.313 80.9214C361.004 80.3986 360.744 79.8474 360.539 79.2755C360.092 78.1855 359.449 76.6377 358.817 74.643C358.041 72.3026 357.619 69.8596 357.564 67.3945C357.535 64.331 358.448 61.3325 360.18 58.8053C361.889 56.2701 364.292 54.2799 367.101 53.0719C369.39 52.1081 371.87 51.683 374.35 51.8293C376.015 51.9142 377.652 52.302 379.178 52.9738C379.587 53.1621 379.98 53.3807 380.356 53.6278C380.511 53.6959 380.654 53.7878 380.781 53.9003Z" fill="#263238"/>
<path d="M381.281 96.5523C381.455 96.4469 381.637 96.3557 381.826 96.2798C382.372 96.0336 382.937 95.8331 383.516 95.6803C384.434 95.4091 385.382 95.2481 386.339 95.2007C387.64 95.1308 388.942 95.3274 390.165 95.7784C392.955 96.7594 395.516 99.6043 396.781 103.408C397.387 105.45 397.387 107.624 396.781 109.665C396.109 111.881 394.903 113.898 393.271 115.54L393.336 115.246C394.786 119.224 396.367 123.541 398.002 128.042L398.1 128.315L397.827 128.413L395.331 129.241L389.881 131.062L389.609 131.149L389.521 130.876C388.028 126.364 386.393 122.156 385.161 118.025L385.401 118.211C383.27 118.034 381.239 117.234 379.559 115.911C378.039 114.74 376.793 113.252 375.907 111.551C375.108 110.042 374.71 108.353 374.752 106.646C374.802 104.901 375.238 103.189 376.028 101.633C376.817 100.076 377.941 98.7135 379.319 97.6423C379.886 97.1819 380.523 96.814 381.205 96.5523C380.589 96.9176 379.992 97.3142 379.417 97.7404C377.904 99.021 376.744 100.669 376.049 102.526C375.453 103.926 375.174 105.441 375.232 106.962C375.291 108.482 375.685 109.971 376.387 111.322C377.258 112.959 378.474 114.387 379.951 115.507C381.554 116.765 383.491 117.523 385.521 117.687H385.706L385.761 117.851C386.96 121.906 388.606 126.146 390.121 130.68L389.761 130.506L395.211 128.685L397.696 127.846L397.522 128.217C395.898 123.715 394.328 119.388 392.89 115.409V115.246L393.02 115.115C394.605 113.541 395.787 111.608 396.465 109.48C397.043 107.527 397.043 105.448 396.465 103.496C395.277 99.8332 392.824 97.0537 390.165 96.0727C388.987 95.6187 387.73 95.4074 386.469 95.4514C385.528 95.473 384.592 95.601 383.679 95.8329C382.055 96.2362 381.292 96.6068 381.281 96.5523Z" fill="#263238"/>
<path d="M347.59 411.279L238.71 410.777C232.422 410.743 226.405 408.214 221.98 403.746C217.556 399.279 215.085 393.238 215.111 386.95L216.266 114.003C216.279 110.888 216.906 107.806 218.111 104.933C219.315 102.06 221.074 99.4528 223.287 97.2601C225.5 95.0675 228.123 93.3325 231.007 92.1543C233.891 90.9761 236.979 90.3777 240.094 90.3935L348.963 90.8949C355.251 90.9267 361.269 93.4527 365.696 97.9182C370.122 102.384 372.596 108.424 372.572 114.711L371.417 387.647C371.404 390.764 370.778 393.847 369.573 396.721C368.369 399.595 366.61 402.204 364.398 404.398C362.185 406.592 359.562 408.329 356.678 409.51C353.794 410.691 350.706 411.292 347.59 411.279Z" fill="#455A64"/>
<path d="M348.8 100.28H327.698C327.009 100.293 326.33 100.441 325.699 100.716C325.067 100.992 324.497 101.389 324.019 101.885C323.541 102.381 323.166 102.966 322.914 103.607C322.663 104.248 322.54 104.932 322.553 105.621V109.447C322.566 110.135 322.443 110.819 322.191 111.459C321.94 112.1 321.564 112.684 321.086 113.179C320.608 113.674 320.037 114.07 319.406 114.344C318.775 114.619 318.096 114.766 317.408 114.777L276.271 114.592C274.88 114.555 273.56 113.967 272.601 112.957C271.643 111.947 271.124 110.599 271.159 109.207V105.381C271.195 103.991 270.677 102.644 269.721 101.635C268.765 100.626 267.448 100.036 266.058 99.9966H258.635L240.16 99.9094C235.765 99.8832 231.54 101.599 228.408 104.682C225.276 107.765 223.493 111.963 223.45 116.357L222.36 382.775C222.35 384.955 222.769 387.116 223.594 389.134C224.419 391.152 225.634 392.987 227.168 394.536C228.703 396.085 230.527 397.316 232.537 398.159C234.548 399.003 236.704 399.442 238.884 399.452L347.536 399.954C349.717 399.964 351.879 399.544 353.898 398.718C355.918 397.893 357.755 396.678 359.304 395.142C360.854 393.607 362.086 391.781 362.93 389.77C363.774 387.758 364.214 385.6 364.224 383.418L365.314 117.001C365.34 112.594 363.615 108.357 360.518 105.222C357.422 102.086 353.207 100.309 348.8 100.28Z" fill="white"/>
<path d="M333.295 364.539L252.504 364.19C251.665 364.19 250.989 363.274 251 362.162L251.087 341.027C251.087 339.937 251.774 339 252.613 339L333.404 339.371C333.869 339.451 334.285 339.708 334.566 340.088C334.846 340.467 334.969 340.941 334.908 341.409L334.832 362.522C334.832 363.645 334.134 364.55 333.295 364.539Z" fill="#00CDE5"/>
<path d="M273.83 349.455C273.778 349.023 273.571 348.688 273.207 348.449C272.844 348.21 272.398 348.091 271.869 348.091C271.483 348.091 271.145 348.153 270.855 348.278C270.568 348.403 270.344 348.575 270.182 348.794C270.023 349.013 269.943 349.261 269.943 349.54C269.943 349.773 269.999 349.973 270.109 350.141C270.223 350.305 270.368 350.443 270.544 350.554C270.72 350.662 270.905 350.751 271.098 350.822C271.291 350.891 271.469 350.946 271.631 350.989L272.517 351.227C272.744 351.287 272.997 351.369 273.276 351.474C273.557 351.58 273.825 351.723 274.081 351.905C274.339 352.084 274.553 352.314 274.72 352.595C274.888 352.876 274.972 353.222 274.972 353.631C274.972 354.102 274.848 354.528 274.601 354.909C274.357 355.29 273.999 355.592 273.527 355.817C273.058 356.041 272.489 356.153 271.818 356.153C271.193 356.153 270.652 356.053 270.195 355.851C269.74 355.649 269.382 355.368 269.121 355.007C268.862 354.646 268.716 354.227 268.682 353.75H269.773C269.801 354.08 269.912 354.352 270.105 354.568C270.301 354.781 270.548 354.94 270.847 355.045C271.148 355.148 271.472 355.199 271.818 355.199C272.222 355.199 272.584 355.134 272.905 355.003C273.226 354.869 273.48 354.685 273.668 354.449C273.855 354.21 273.949 353.932 273.949 353.614C273.949 353.324 273.868 353.088 273.706 352.906C273.544 352.724 273.331 352.577 273.067 352.463C272.803 352.349 272.517 352.25 272.21 352.165L271.136 351.858C270.455 351.662 269.915 351.382 269.517 351.018C269.119 350.655 268.92 350.179 268.92 349.591C268.92 349.102 269.053 348.676 269.317 348.312C269.584 347.946 269.942 347.662 270.391 347.46C270.842 347.256 271.347 347.153 271.903 347.153C272.466 347.153 272.966 347.254 273.403 347.456C273.841 347.655 274.188 347.928 274.443 348.274C274.702 348.621 274.838 349.014 274.852 349.455H273.83ZM277.766 347.273V356H276.709V347.273H277.766ZM286.805 347.273V356H285.783L281.027 349.148H280.942V356H279.885V347.273H280.908L285.68 354.142H285.766V347.273H286.805ZM294.886 350C294.792 349.713 294.669 349.456 294.515 349.229C294.365 348.999 294.184 348.803 293.974 348.641C293.767 348.479 293.531 348.355 293.267 348.27C293.002 348.185 292.713 348.142 292.397 348.142C291.88 348.142 291.41 348.276 290.987 348.543C290.564 348.81 290.227 349.203 289.977 349.723C289.727 350.243 289.602 350.881 289.602 351.636C289.602 352.392 289.728 353.03 289.981 353.55C290.234 354.07 290.576 354.463 291.008 354.73C291.44 354.997 291.926 355.131 292.466 355.131C292.966 355.131 293.406 355.024 293.787 354.811C294.17 354.595 294.468 354.291 294.681 353.899C294.897 353.504 295.005 353.04 295.005 352.506L295.329 352.574H292.704V351.636H296.028V352.574C296.028 353.293 295.875 353.918 295.568 354.449C295.264 354.98 294.843 355.392 294.306 355.685C293.772 355.974 293.159 356.119 292.466 356.119C291.693 356.119 291.014 355.938 290.429 355.574C289.846 355.21 289.392 354.693 289.065 354.023C288.741 353.352 288.579 352.557 288.579 351.636C288.579 350.946 288.672 350.325 288.856 349.774C289.044 349.22 289.308 348.749 289.649 348.359C289.99 347.97 290.393 347.672 290.859 347.464C291.325 347.257 291.838 347.153 292.397 347.153C292.858 347.153 293.287 347.223 293.684 347.362C294.085 347.499 294.441 347.693 294.754 347.946C295.069 348.196 295.332 348.496 295.542 348.845C295.752 349.192 295.897 349.577 295.977 350H294.886ZM306.94 347.273H307.997V353.051C307.997 353.648 307.857 354.18 307.575 354.649C307.297 355.115 306.903 355.483 306.395 355.753C305.886 356.02 305.29 356.153 304.605 356.153C303.92 356.153 303.324 356.02 302.815 355.753C302.307 355.483 301.912 355.115 301.631 354.649C301.352 354.18 301.213 353.648 301.213 353.051V347.273H302.27V352.966C302.27 353.392 302.364 353.771 302.551 354.104C302.739 354.433 303.006 354.693 303.352 354.884C303.702 355.071 304.119 355.165 304.605 355.165C305.091 355.165 305.509 355.071 305.858 354.884C306.207 354.693 306.474 354.433 306.659 354.104C306.847 353.771 306.94 353.392 306.94 352.966V347.273ZM310.108 356V347.273H313.056C313.741 347.273 314.301 347.396 314.735 347.643C315.173 347.888 315.497 348.219 315.707 348.636C315.917 349.054 316.022 349.52 316.022 350.034C316.022 350.548 315.917 351.016 315.707 351.436C315.5 351.857 315.179 352.192 314.744 352.442C314.309 352.689 313.752 352.812 313.074 352.812H310.96V351.875H313.039C313.508 351.875 313.885 351.794 314.169 351.632C314.453 351.47 314.659 351.251 314.787 350.976C314.917 350.697 314.983 350.384 314.983 350.034C314.983 349.685 314.917 349.372 314.787 349.097C314.659 348.821 314.451 348.605 314.164 348.449C313.877 348.29 313.497 348.21 313.022 348.21H311.164V356H310.108Z" fill="#E8E8E3"/>
<path d="M269.507 178.596L241.472 178.469L241.449 183.614L269.483 183.741L269.507 178.596Z" fill="#00CDE5"/>
<path opacity="0.1" d="M269.507 178.596L241.472 178.469L241.449 183.614L269.483 183.741L269.507 178.596Z" fill="black"/>
<path d="M351.689 210.185C351.909 210.163 352.125 210.111 352.332 210.032C352.634 209.914 352.896 209.714 353.089 209.453C353.282 209.193 353.397 208.884 353.422 208.561C353.422 206.828 353.422 204.299 353.422 201.051C353.422 199.427 353.422 197.606 353.422 195.601C353.422 195.11 353.422 194.598 353.422 194.086C353.493 193.589 353.385 193.082 353.117 192.658C352.967 192.454 352.771 192.288 352.546 192.173C352.321 192.057 352.073 191.996 351.82 191.993H350.119H334.369L243.201 191.655C242.968 191.651 242.737 191.703 242.528 191.808C242.319 191.912 242.139 192.065 242.002 192.254C241.739 192.681 241.638 193.188 241.719 193.682C241.719 194.772 241.719 195.862 241.719 196.952C241.719 199.132 241.719 201.312 241.719 203.492C241.719 204.582 241.719 205.672 241.719 206.762C241.674 207.27 241.674 207.781 241.719 208.288C241.776 208.506 241.882 208.708 242.03 208.878C242.177 209.048 242.362 209.182 242.569 209.269C242.784 209.355 243.014 209.396 243.245 209.389H248.793L273.002 209.52L313.986 209.771L341.617 209.989L349.127 210.076H351.078C351.525 210.076 351.743 210.076 351.743 210.076H351.078H349.127H341.617H313.986L273.002 209.945L248.793 209.847H243.245C242.939 209.859 242.635 209.807 242.351 209.694C242.064 209.572 241.809 209.386 241.605 209.149C241.401 208.913 241.253 208.634 241.174 208.332C241.111 208.046 241.089 207.752 241.108 207.46V206.653C241.108 205.563 241.108 204.473 241.108 203.383C241.108 201.203 241.108 199.023 241.108 196.843C241.108 195.753 241.108 194.663 241.108 193.573C241.088 193.283 241.088 192.992 241.108 192.701C241.149 192.381 241.273 192.076 241.468 191.818C241.656 191.555 241.905 191.342 242.193 191.195C242.482 191.049 242.802 190.975 243.125 190.979L334.292 191.481L350.043 191.59H351.743C352.043 191.59 352.338 191.662 352.604 191.801C352.869 191.939 353.098 192.14 353.269 192.385C353.577 192.859 353.701 193.429 353.618 193.988C353.618 194.5 353.618 195.012 353.618 195.503C353.618 197.486 353.618 199.307 353.618 200.953C353.618 204.223 353.542 206.73 353.52 208.474C353.493 208.809 353.372 209.13 353.169 209.398C352.966 209.667 352.691 209.871 352.376 209.989C352.169 210.117 351.932 210.184 351.689 210.185Z" fill="#E0E0E0"/>
<path d="M301.167 197.127H249.893V201.934H301.167V197.127Z" fill="#00CDE5"/>
<path opacity="0.2" d="M301.167 197.127H249.893V201.934H301.167V197.127Z" fill="white"/>
<path d="M269.315 225.531L241.281 225.403L241.257 230.548L269.292 230.675L269.315 225.531Z" fill="#00CDE5"/>
<path opacity="0.1" d="M269.315 225.531L241.281 225.403L241.257 230.548L269.292 230.675L269.315 225.531Z" fill="black"/>
<path d="M350.98 257.12C351.2 257.093 351.418 257.053 351.634 257C351.938 256.904 352.218 256.743 352.455 256.528C352.692 256.314 352.88 256.051 353.007 255.758C353.179 255.318 353.246 254.844 353.203 254.374C353.203 253.85 353.203 253.284 353.203 252.651C353.203 251.387 353.203 249.948 353.203 248.291V241.37C353.255 240.869 353.145 240.364 352.887 239.931C352.618 239.487 352.196 239.157 351.699 239.005C351.156 238.908 350.603 238.878 350.053 238.917H334.368L243.517 238.579C243.028 238.581 242.556 238.759 242.189 239.082C241.823 239.405 241.585 239.85 241.522 240.334C241.522 241.37 241.522 242.514 241.522 243.604C241.522 245.784 241.522 247.964 241.522 250.144C241.522 251.234 241.522 252.324 241.522 253.414C241.481 253.924 241.503 254.436 241.587 254.94C241.723 255.382 242.004 255.766 242.383 256.03C242.786 256.286 243.259 256.408 243.735 256.379H245.25H248.4L272.522 256.499L313.364 256.75L340.897 256.968L348.386 257.055H340.897H313.364L272.5 257.011L248.378 256.924H243.637C243.047 256.959 242.462 256.802 241.969 256.477C241.473 256.134 241.111 255.629 240.944 255.049C240.847 254.496 240.817 253.932 240.857 253.371C240.857 252.281 240.857 251.191 240.857 250.101C240.857 247.921 240.857 245.741 240.857 243.561C240.857 242.471 240.857 241.381 240.857 240.291C240.937 239.667 241.241 239.095 241.712 238.679C242.184 238.264 242.79 238.035 243.419 238.034L334.27 238.536L349.955 238.656C350.539 238.62 351.125 238.66 351.699 238.776C352.265 238.961 352.743 239.349 353.04 239.866C353.322 240.346 353.444 240.903 353.389 241.457C353.389 241.969 353.389 242.471 353.389 242.972C353.389 244.945 353.389 246.754 353.389 248.422C353.389 250.09 353.389 251.496 353.389 252.782C353.389 253.403 353.389 253.981 353.389 254.515C353.428 255.003 353.35 255.493 353.16 255.943C353.018 256.244 352.814 256.511 352.56 256.725C352.306 256.94 352.008 257.097 351.688 257.186C351.45 257.205 351.21 257.183 350.98 257.12Z" fill="#E0E0E0"/>
<path d="M269.104 274.503L241.069 274.376L241.046 279.521L269.081 279.648L269.104 274.503Z" fill="#00CDE5"/>
<path opacity="0.1" d="M269.104 274.503L241.069 274.376L241.046 279.521L269.081 279.648L269.104 274.503Z" fill="black"/>
<path d="M350.762 306.072C350.982 306.046 351.2 306.006 351.416 305.952C351.719 305.856 351.998 305.696 352.235 305.484C352.471 305.271 352.66 305.011 352.789 304.72C352.96 304.28 353.027 303.806 352.985 303.336C352.985 302.802 352.985 302.246 352.985 301.603C352.985 300.349 352.985 298.9 352.985 297.243V290.321C353.037 289.82 352.926 289.316 352.669 288.883C352.394 288.447 351.973 288.122 351.481 287.967C350.938 287.866 350.386 287.833 349.835 287.869H334.15L243.298 287.531C242.81 287.532 242.338 287.711 241.971 288.034C241.604 288.356 241.367 288.801 241.304 289.286C241.304 290.376 241.304 291.466 241.304 292.556C241.304 294.736 241.304 296.916 241.304 299.096C241.304 300.186 241.304 301.276 241.304 302.366C241.263 302.872 241.285 303.381 241.369 303.881C241.5 304.326 241.781 304.711 242.165 304.971C242.565 305.232 243.04 305.355 243.516 305.32H248.258L272.38 305.451L313.222 305.701L340.755 305.919L348.244 306.007H340.755H313.222L272.38 305.887L248.258 305.789H243.516C242.926 305.828 242.34 305.671 241.849 305.342C241.353 304.998 240.991 304.494 240.824 303.914C240.726 303.36 240.697 302.796 240.737 302.235C240.737 301.145 240.737 300.055 240.737 298.965C240.737 296.785 240.737 294.605 240.737 292.425C240.737 291.335 240.737 290.245 240.737 289.101C240.814 288.478 241.116 287.906 241.585 287.49C242.055 287.075 242.66 286.845 243.288 286.844L334.139 287.346L349.824 287.466C350.408 287.43 350.994 287.47 351.568 287.586C352.134 287.771 352.612 288.159 352.909 288.676C353.191 289.156 353.313 289.713 353.258 290.267C353.258 290.779 353.258 291.292 353.258 291.782C353.258 293.755 353.258 295.564 353.258 297.232C353.258 298.9 353.258 300.306 353.258 301.592C353.258 302.213 353.258 302.791 353.258 303.325C353.299 303.813 353.221 304.303 353.029 304.753C352.887 305.054 352.683 305.321 352.429 305.535C352.175 305.749 351.877 305.907 351.557 305.996C351.302 306.083 351.029 306.109 350.762 306.072Z" fill="#E0E0E0"/>
<path d="M300.072 245.421L248.799 245.188L248.778 249.995L300.051 250.228L300.072 245.421Z" fill="#00CDE5"/>
<path opacity="0.2" d="M300.072 245.421L248.799 245.188L248.778 249.995L300.051 250.228L300.072 245.421Z" fill="white"/>
<path d="M253.435 297.178C253.403 297.616 253.243 298.035 252.975 298.384C252.707 298.732 252.342 298.994 251.926 299.137C251.51 299.28 251.062 299.297 250.636 299.188C250.21 299.078 249.826 298.846 249.531 298.52C249.236 298.194 249.043 297.789 248.977 297.354C248.91 296.92 248.972 296.475 249.156 296.076C249.339 295.676 249.636 295.339 250.01 295.107C250.383 294.875 250.816 294.757 251.255 294.769C251.863 294.803 252.432 295.074 252.84 295.525C253.248 295.976 253.462 296.57 253.435 297.178Z" fill="#00CDE5"/>
<path d="M260.379 297.211C260.4 297.518 260.358 297.826 260.255 298.117C260.153 298.407 259.991 298.673 259.781 298.898C259.571 299.124 259.317 299.303 259.034 299.426C258.752 299.549 258.447 299.612 258.139 299.612C257.831 299.612 257.526 299.549 257.244 299.426C256.961 299.303 256.707 299.124 256.497 298.898C256.287 298.673 256.125 298.407 256.022 298.117C255.92 297.826 255.878 297.518 255.899 297.211C255.878 296.903 255.92 296.595 256.022 296.304C256.125 296.014 256.287 295.748 256.497 295.523C256.707 295.297 256.961 295.118 257.244 294.995C257.526 294.872 257.831 294.809 258.139 294.809C258.447 294.809 258.752 294.872 259.034 294.995C259.317 295.118 259.571 295.297 259.781 295.523C259.991 295.748 260.153 296.014 260.255 296.304C260.358 296.595 260.4 296.903 260.379 297.211Z" fill="#00CDE5"/>
<path d="M267.333 297.243C267.301 297.681 267.141 298.101 266.872 298.449C266.604 298.797 266.239 299.059 265.824 299.202C265.408 299.345 264.959 299.363 264.534 299.253C264.108 299.143 263.724 298.911 263.429 298.585C263.134 298.259 262.941 297.854 262.874 297.419C262.807 296.985 262.87 296.54 263.053 296.141C263.237 295.741 263.534 295.405 263.907 295.172C264.28 294.94 264.713 294.822 265.153 294.834C265.759 294.871 266.327 295.143 266.734 295.594C267.142 296.044 267.357 296.636 267.333 297.243Z" fill="#00CDE5"/>
<path d="M274.277 297.276C274.245 297.714 274.084 298.133 273.816 298.482C273.548 298.83 273.183 299.092 272.767 299.235C272.352 299.378 271.903 299.395 271.477 299.286C271.052 299.176 270.668 298.944 270.373 298.618C270.078 298.292 269.885 297.887 269.818 297.452C269.751 297.018 269.814 296.573 269.997 296.174C270.181 295.774 270.478 295.437 270.851 295.205C271.224 294.973 271.657 294.855 272.097 294.867C272.703 294.903 273.271 295.176 273.678 295.626C274.086 296.077 274.301 296.669 274.277 297.276Z" fill="#00CDE5"/>
<path d="M281.219 297.298C281.189 297.737 281.031 298.157 280.764 298.507C280.497 298.857 280.133 299.121 279.717 299.265C279.301 299.41 278.852 299.429 278.426 299.32C277.999 299.212 277.614 298.98 277.318 298.655C277.022 298.329 276.828 297.924 276.76 297.489C276.693 297.054 276.755 296.609 276.938 296.209C277.122 295.808 277.419 295.471 277.792 295.238C278.166 295.006 278.599 294.888 279.039 294.9C279.644 294.936 280.21 295.208 280.617 295.655C281.024 296.103 281.24 296.693 281.219 297.298Z" fill="#00CDE5"/>
<path d="M288.174 297.33C288.144 297.767 287.988 298.185 287.723 298.534C287.458 298.883 287.098 299.147 286.685 299.293C286.272 299.44 285.826 299.463 285.401 299.359C284.975 299.255 284.59 299.028 284.291 298.708C283.993 298.388 283.794 297.987 283.721 297.556C283.647 297.124 283.701 296.68 283.876 296.279C284.051 295.878 284.34 295.536 284.707 295.297C285.073 295.058 285.502 294.931 285.94 294.932C286.554 294.955 287.133 295.22 287.552 295.669C287.971 296.119 288.195 296.716 288.174 297.33Z" fill="#00CDE5"/>
<path d="M295.118 297.363C295.139 297.67 295.097 297.979 294.994 298.269C294.891 298.56 294.73 298.826 294.52 299.051C294.31 299.276 294.055 299.456 293.773 299.579C293.49 299.702 293.186 299.765 292.878 299.765C292.57 299.765 292.265 299.702 291.982 299.579C291.7 299.456 291.446 299.276 291.236 299.051C291.026 298.826 290.864 298.56 290.761 298.269C290.658 297.979 290.616 297.67 290.638 297.363C290.616 297.056 290.658 296.747 290.761 296.457C290.864 296.167 291.026 295.901 291.236 295.675C291.446 295.45 291.7 295.27 291.982 295.148C292.265 295.025 292.57 294.961 292.878 294.961C293.186 294.961 293.49 295.025 293.773 295.148C294.055 295.27 294.31 295.45 294.52 295.675C294.73 295.901 294.891 296.167 294.994 296.457C295.097 296.747 295.139 297.056 295.118 297.363Z" fill="#00CDE5"/>
<path d="M302.06 297.396C302.031 297.833 301.874 298.251 301.609 298.6C301.345 298.949 300.984 299.213 300.571 299.359C300.159 299.506 299.712 299.528 299.287 299.424C298.861 299.32 298.476 299.094 298.177 298.774C297.879 298.454 297.681 298.053 297.607 297.621C297.533 297.19 297.587 296.746 297.762 296.345C297.937 295.944 298.226 295.602 298.593 295.363C298.959 295.124 299.388 294.997 299.826 294.998C300.44 295.02 301.02 295.286 301.438 295.735C301.857 296.185 302.081 296.782 302.06 297.396Z" fill="#00CDE5"/>
<path d="M309.003 297.428C308.973 297.867 308.815 298.288 308.547 298.638C308.28 298.988 307.916 299.251 307.501 299.396C307.085 299.54 306.636 299.56 306.209 299.451C305.783 299.343 305.398 299.111 305.102 298.785C304.805 298.46 304.612 298.054 304.544 297.619C304.477 297.184 304.538 296.739 304.722 296.339C304.905 295.939 305.202 295.602 305.576 295.369C305.949 295.136 306.383 295.019 306.823 295.03C307.427 295.067 307.994 295.338 308.401 295.786C308.808 296.234 309.024 296.823 309.003 297.428Z" fill="#00CDE5"/>
<g opacity="0.2">
<path d="M253.435 297.178C253.403 297.616 253.243 298.035 252.975 298.384C252.707 298.732 252.342 298.994 251.926 299.137C251.51 299.28 251.062 299.297 250.636 299.188C250.21 299.078 249.826 298.846 249.531 298.52C249.236 298.194 249.043 297.789 248.977 297.354C248.91 296.92 248.972 296.475 249.156 296.076C249.339 295.676 249.636 295.339 250.01 295.107C250.383 294.875 250.816 294.757 251.255 294.769C251.863 294.803 252.432 295.074 252.84 295.525C253.248 295.976 253.462 296.57 253.435 297.178Z" fill="white"/>
<path d="M260.379 297.211C260.4 297.518 260.358 297.826 260.255 298.117C260.153 298.407 259.991 298.673 259.781 298.898C259.571 299.124 259.317 299.303 259.034 299.426C258.752 299.549 258.447 299.612 258.139 299.612C257.831 299.612 257.526 299.549 257.244 299.426C256.961 299.303 256.707 299.124 256.497 298.898C256.287 298.673 256.125 298.407 256.022 298.117C255.92 297.826 255.878 297.518 255.899 297.211C255.878 296.903 255.92 296.595 256.022 296.305C256.125 296.014 256.287 295.748 256.497 295.523C256.707 295.297 256.961 295.118 257.244 294.995C257.526 294.872 257.831 294.809 258.139 294.809C258.447 294.809 258.752 294.872 259.034 294.995C259.317 295.118 259.571 295.297 259.781 295.523C259.991 295.748 260.153 296.014 260.255 296.305C260.358 296.595 260.4 296.903 260.379 297.211Z" fill="white"/>
<path d="M267.333 297.243C267.301 297.681 267.141 298.101 266.872 298.449C266.604 298.797 266.239 299.059 265.824 299.202C265.408 299.345 264.959 299.363 264.534 299.253C264.108 299.143 263.724 298.911 263.429 298.585C263.134 298.259 262.941 297.854 262.874 297.419C262.807 296.985 262.87 296.54 263.053 296.141C263.237 295.741 263.534 295.405 263.907 295.172C264.28 294.94 264.713 294.822 265.153 294.834C265.759 294.871 266.327 295.143 266.734 295.594C267.142 296.044 267.357 296.636 267.333 297.243Z" fill="white"/>
<path d="M274.277 297.276C274.245 297.714 274.084 298.133 273.816 298.482C273.548 298.83 273.183 299.092 272.767 299.235C272.352 299.378 271.903 299.395 271.477 299.286C271.052 299.176 270.668 298.944 270.373 298.618C270.078 298.292 269.885 297.887 269.818 297.452C269.751 297.018 269.814 296.573 269.997 296.174C270.181 295.774 270.478 295.437 270.851 295.205C271.224 294.973 271.657 294.855 272.097 294.867C272.703 294.903 273.271 295.176 273.678 295.626C274.086 296.077 274.301 296.669 274.277 297.276Z" fill="white"/>
<path d="M281.219 297.298C281.189 297.737 281.031 298.157 280.764 298.507C280.497 298.857 280.133 299.121 279.717 299.265C279.301 299.41 278.852 299.429 278.426 299.32C277.999 299.212 277.614 298.98 277.318 298.655C277.022 298.329 276.828 297.924 276.76 297.489C276.693 297.054 276.755 296.609 276.938 296.209C277.122 295.808 277.419 295.471 277.792 295.238C278.166 295.006 278.599 294.888 279.039 294.9C279.644 294.936 280.21 295.208 280.617 295.655C281.024 296.103 281.24 296.693 281.219 297.298Z" fill="white"/>
<path d="M288.174 297.33C288.144 297.767 287.988 298.185 287.723 298.534C287.458 298.883 287.098 299.147 286.685 299.293C286.272 299.44 285.826 299.463 285.401 299.359C284.975 299.255 284.59 299.028 284.291 298.708C283.993 298.388 283.794 297.987 283.721 297.556C283.647 297.124 283.701 296.68 283.876 296.279C284.051 295.878 284.34 295.536 284.707 295.297C285.073 295.058 285.502 294.931 285.94 294.932C286.554 294.955 287.133 295.22 287.552 295.669C287.971 296.119 288.195 296.716 288.174 297.33Z" fill="white"/>
<path d="M295.118 297.363C295.139 297.67 295.097 297.979 294.994 298.269C294.891 298.56 294.73 298.826 294.52 299.051C294.31 299.276 294.055 299.456 293.773 299.579C293.49 299.702 293.186 299.765 292.878 299.765C292.57 299.765 292.265 299.702 291.982 299.579C291.7 299.456 291.446 299.276 291.236 299.051C291.026 298.826 290.864 298.56 290.761 298.269C290.658 297.979 290.616 297.67 290.638 297.363C290.616 297.056 290.658 296.747 290.761 296.457C290.864 296.167 291.026 295.901 291.236 295.675C291.446 295.45 291.7 295.27 291.982 295.148C292.265 295.025 292.57 294.961 292.878 294.961C293.186 294.961 293.49 295.025 293.773 295.148C294.055 295.27 294.31 295.45 294.52 295.675C294.73 295.901 294.891 296.167 294.994 296.457C295.097 296.747 295.139 297.056 295.118 297.363Z" fill="white"/>
<path d="M302.06 297.396C302.031 297.833 301.874 298.251 301.609 298.6C301.345 298.949 300.984 299.213 300.571 299.359C300.159 299.506 299.712 299.528 299.287 299.424C298.861 299.32 298.476 299.094 298.177 298.774C297.879 298.454 297.681 298.053 297.607 297.621C297.533 297.19 297.587 296.746 297.762 296.345C297.937 295.944 298.226 295.602 298.593 295.363C298.959 295.124 299.388 294.997 299.826 294.998C300.44 295.02 301.02 295.286 301.438 295.735C301.857 296.185 302.081 296.782 302.06 297.396Z" fill="white"/>
<path d="M309.003 297.428C308.973 297.867 308.815 298.288 308.547 298.638C308.28 298.988 307.916 299.251 307.501 299.396C307.085 299.54 306.636 299.56 306.209 299.451C305.783 299.343 305.398 299.111 305.102 298.785C304.805 298.46 304.612 298.054 304.544 297.619C304.477 297.184 304.538 296.739 304.722 296.339C304.905 295.939 305.202 295.602 305.576 295.369C305.949 295.136 306.383 295.019 306.823 295.03C307.427 295.067 307.994 295.338 308.401 295.786C308.808 296.234 309.024 296.823 309.003 297.428Z" fill="white"/>
</g>
<path d="M299.139 140.076C299.896 139.743 300.539 139.194 300.986 138.498C301.434 137.802 301.667 136.99 301.657 136.163C301.685 135.625 301.604 135.087 301.417 134.582C301.231 134.077 300.944 133.615 300.573 133.224C300.202 132.833 299.756 132.522 299.261 132.31C298.766 132.097 298.233 131.987 297.695 131.987C297.156 131.987 296.623 132.097 296.129 132.31C295.634 132.522 295.187 132.833 294.817 133.224C294.446 133.615 294.159 134.077 293.972 134.582C293.786 135.087 293.705 135.625 293.733 136.163C293.716 136.999 293.947 137.82 294.398 138.524C294.848 139.229 295.496 139.784 296.262 140.12C290.158 141.035 290.43 147.662 290.43 147.662L304.862 147.728C304.862 147.728 305.2 140.981 299.139 140.076Z" fill="#00CDE5"/>
<path opacity="0.1" d="M299.139 140.076C299.896 139.743 300.539 139.194 300.986 138.498C301.434 137.802 301.667 136.99 301.657 136.163C301.685 135.625 301.604 135.087 301.417 134.582C301.231 134.077 300.944 133.615 300.573 133.224C300.202 132.833 299.756 132.522 299.261 132.31C298.766 132.097 298.233 131.987 297.695 131.987C297.156 131.987 296.623 132.097 296.129 132.31C295.634 132.522 295.187 132.833 294.817 133.224C294.446 133.615 294.159 134.077 293.972 134.582C293.786 135.087 293.705 135.625 293.733 136.163C293.716 136.999 293.947 137.82 294.398 138.524C294.848 139.229 295.496 139.784 296.262 140.12C290.158 141.035 290.43 147.662 290.43 147.662L304.862 147.728C304.862 147.728 305.2 140.981 299.139 140.076Z" fill="black"/>
<path d="M322.59 152.002L271.153 151.769L271.125 157.917L322.562 158.15L322.59 152.002Z" fill="#00CDE5"/>
<path opacity="0.2" d="M322.59 152.002L271.153 151.769L271.125 157.917L322.562 158.15L322.59 152.002Z" fill="white"/>
<path d="M133.492 183.861H132.98L131.497 183.97C130.695 184.018 129.897 184.124 129.11 184.286C128.6 184.358 128.095 184.456 127.595 184.581L125.906 185.049C123.03 185.932 120.317 187.275 117.872 189.028C114.643 191.372 111.946 194.374 109.959 197.835C108.791 199.83 107.862 201.956 107.19 204.168C106.485 206.572 106.078 209.054 105.98 211.558C105.915 212.873 105.937 214.192 106.046 215.504C106.046 216.169 106.231 216.834 106.318 217.51C106.392 218.191 106.519 218.865 106.7 219.526C107.68 223.9 109.669 227.984 112.507 231.453C115.346 234.922 118.956 237.68 123.05 239.506C126.013 240.784 129.188 241.498 132.413 241.609C135.744 241.793 139.078 241.315 142.223 240.203L143.182 239.844H143.313L143.422 239.909L157.167 246.885L156.764 247.234C155.292 242.678 153.875 238.263 152.502 234.023V233.86L152.622 233.74C155.956 230.381 158.431 226.268 159.837 221.75C161.111 217.619 161.483 213.262 160.927 208.975C160.433 205.165 159.208 201.486 157.319 198.14C155.691 195.266 153.591 192.687 151.106 190.51C149.057 188.787 146.788 187.343 144.359 186.216C142.522 185.423 140.608 184.82 138.648 184.417L136.468 184.057L134.887 183.938L133.928 183.872H133.601C133.71 183.86 133.819 183.86 133.928 183.872H134.898L136.479 183.938L138.659 184.254C140.643 184.627 142.583 185.208 144.447 185.987C146.917 187.101 149.226 188.542 151.314 190.27C153.844 192.437 155.989 195.017 157.657 197.9C159.6 201.282 160.862 205.011 161.374 208.877C161.976 213.23 161.63 217.662 160.361 221.87C158.945 226.482 156.432 230.683 153.036 234.11L153.101 233.827C154.475 238.067 155.902 242.481 157.385 247.027L157.592 247.692L156.971 247.376L143.226 240.41H143.466L142.485 240.77C139.279 241.898 135.883 242.387 132.489 242.209C129.195 242.084 125.953 241.344 122.93 240.029C117.164 237.559 112.366 233.267 109.272 227.81C107.849 225.29 106.809 222.571 106.188 219.744C106.017 219.066 105.89 218.378 105.806 217.684C105.719 216.997 105.577 216.321 105.544 215.646C105.249 211.767 105.659 207.868 106.754 204.135C107.443 201.893 108.398 199.741 109.599 197.726C111.633 194.233 114.386 191.213 117.676 188.864C120.161 187.107 122.92 185.774 125.84 184.919L127.552 184.483C128.055 184.366 128.565 184.275 129.078 184.21C129.873 184.063 130.678 183.975 131.486 183.948L132.98 183.894C133.15 183.871 133.321 183.86 133.492 183.861Z" fill="#00CDE5"/>
<path d="M139.705 209.28H137.688L133.328 203.154V199.132C133.328 199.132 130.211 198.936 130.582 204.2C130.952 209.465 130.582 208.125 130.582 208.125C130.582 208.125 123.965 208.125 123.42 208.724C122.875 209.324 122.843 215.711 122.766 219.275C122.725 220.134 122.971 220.983 123.467 221.686C123.962 222.389 124.679 222.906 125.502 223.156C125.733 223.22 125.971 223.253 126.211 223.254C127.867 223.254 136.293 221.913 136.293 221.913H139.77L139.705 209.28Z" fill="#00CDE5"/>
<path d="M145.472 208.201L144.229 221.978H140.785V208.484L145.472 208.201Z" fill="#00CDE5"/>
<path d="M186.554 488.691V479.371L169.844 479.251L169.702 493.345L170.738 493.421C175.348 493.716 194.194 494.152 197.29 493.193C200.734 492.124 186.554 488.691 186.554 488.691Z" fill="#00CDE5"/>
<path d="M197.682 492.321C197.682 492.473 191.426 492.604 183.719 492.604C176.013 492.604 169.756 492.473 169.756 492.321C169.756 492.168 176.013 492.037 183.719 492.037C191.426 492.037 197.682 492.168 197.682 492.321Z" fill="#263238"/>
<path d="M186.848 490.598C186.706 490.522 186.848 490.032 187.185 489.508C187.523 488.985 187.981 488.767 188.09 488.876C188.199 488.985 187.97 489.399 187.643 489.846C187.316 490.293 186.989 490.675 186.848 490.598Z" fill="#263238"/>
<path d="M187.916 491.209C187.764 491.209 187.84 490.598 188.167 490.021C188.494 489.443 188.93 489.094 189.05 489.181C189.17 489.269 188.974 489.759 188.668 490.271C188.363 490.784 188.058 491.263 187.916 491.209Z" fill="#263238"/>
<path d="M174.793 492.277C174.727 492.277 174.477 492.081 174.117 491.667C173.678 491.134 173.189 490.645 172.656 490.206C172.133 489.788 171.509 489.513 170.847 489.41C170.335 489.345 170.008 489.41 169.975 489.345C169.942 489.28 170.258 489.051 170.858 489.007C171.649 488.99 172.421 489.253 173.038 489.748C173.616 490.219 174.104 490.792 174.477 491.438C174.727 491.917 174.858 492.233 174.793 492.277Z" fill="#263238"/>
<path d="M186.903 488.844C186.98 488.974 186.696 489.301 186.217 489.476C185.737 489.65 185.312 489.585 185.29 489.476C185.268 489.367 185.606 489.138 186.02 488.985C186.435 488.833 186.816 488.713 186.903 488.844Z" fill="#263238"/>
<path d="M186.641 487.939C186.641 488.102 186.205 488.233 185.638 488.244C185.071 488.255 184.624 488.124 184.635 487.971C184.646 487.819 185.093 487.677 185.638 487.666C186.183 487.655 186.619 487.786 186.641 487.939Z" fill="#263238"/>
<path d="M227.701 488.691V479.371L210.991 479.251L210.85 493.203L211.885 493.28C216.496 493.574 235.353 494.152 238.438 493.193C241.882 492.124 227.701 488.691 227.701 488.691Z" fill="#00CDE5"/>
<path d="M238.83 492.342C238.83 492.495 232.584 492.626 224.867 492.626C217.15 492.626 210.915 492.495 210.915 492.342C210.915 492.19 217.161 492.059 224.867 492.059C232.573 492.059 238.83 492.19 238.83 492.342Z" fill="#263238"/>
<path d="M227.996 490.598C227.865 490.522 227.996 490.032 228.334 489.508C228.672 488.985 229.129 488.767 229.238 488.876C229.347 488.985 229.118 489.399 228.791 489.846C228.464 490.293 228.137 490.675 227.996 490.598Z" fill="#263238"/>
<path d="M229.063 491.209C228.922 491.209 228.987 490.598 229.325 490.021C229.663 489.443 230.088 489.094 230.208 489.181C230.328 489.269 230.121 489.759 229.816 490.271C229.51 490.784 229.216 491.263 229.063 491.209Z" fill="#263238"/>
<path d="M215.941 492.277C215.875 492.277 215.636 492.081 215.265 491.667C214.826 491.134 214.337 490.645 213.804 490.206C213.281 489.788 212.657 489.513 211.995 489.41C211.494 489.345 211.156 489.41 211.123 489.345C211.09 489.28 211.406 489.051 212.006 489.007C212.797 488.99 213.569 489.253 214.186 489.748C214.767 490.216 215.255 490.789 215.625 491.438C215.875 491.917 216.006 492.233 215.941 492.277Z" fill="#263238"/>
<path d="M228.05 488.844C228.127 488.974 227.843 489.301 227.364 489.476C226.884 489.65 226.459 489.585 226.437 489.476C226.415 489.367 226.753 489.138 227.167 488.985C227.582 488.833 227.963 488.713 228.05 488.844Z" fill="#263238"/>
<path d="M227.81 487.939C227.81 488.102 227.374 488.233 226.807 488.244C226.24 488.255 225.804 488.124 225.815 487.971C225.826 487.819 226.262 487.677 226.807 487.666C227.352 487.655 227.81 487.786 227.81 487.939Z" fill="#263238"/>
<path d="M289.264 211.94C288.828 211.493 287.749 211.711 287.749 211.711C287.857 211.083 287.857 210.442 287.749 209.814C287.553 209.204 286.18 209.324 286.18 209.324C286.116 208.81 286.116 208.29 286.18 207.776C286.19 207.662 286.166 207.548 286.109 207.448C286.053 207.349 285.967 207.269 285.863 207.22C285.214 206.955 284.516 206.829 283.814 206.85C282.975 206.25 286.376 201.487 287.64 199.961C288.905 198.435 288.676 197.247 287.553 197.247C286.779 197.247 282.811 201.825 281.591 203.362C280.37 204.899 277.133 209.171 277.024 205.76C276.915 202.348 275.541 199.776 274.68 199.34C273.819 198.904 272.903 199.928 273.372 200.876C273.784 201.954 274.041 203.084 274.135 204.234C274.253 205.149 274.213 206.079 274.015 206.98C273.654 208.659 273.162 210.306 272.544 211.907H272.456C272.456 211.907 248.673 234.721 246.95 236.345C245.414 237.806 214.501 234.612 208.299 233.958C206.191 233.65 204.063 233.504 201.933 233.522C199.241 233.642 198.762 234.023 196.08 234.056C189.308 234.131 182.552 234.725 175.872 235.833C172.846 236.347 170.021 237.682 167.702 239.693C165.384 241.703 163.663 244.312 162.726 247.234C156.48 266.745 142.332 312.928 139.836 338.87C137.95 342.291 136.247 345.809 134.735 349.411C132.98 354.185 133.405 354.348 133.994 354.457C135.585 354.752 137.395 346.184 138.07 348.255C138.746 350.326 134.637 358.469 136.305 358.708C138.485 359.014 140.218 349.988 140.425 349.269C140.632 348.55 141.711 348.779 141.515 349.454C141.199 350.414 138.136 360.583 140.272 360.91C141.449 361.085 141.58 358.937 141.58 358.937C141.58 358.937 143.76 349.204 144.752 349.4C145.744 349.596 144.687 355.34 144.185 357.259C143.684 359.177 144.381 360.147 145.406 359.679C146.104 359.352 147.771 353.52 148.229 351.623C148.687 349.727 149.831 344.473 151.368 347.514C152.905 350.555 155.238 352.321 156.197 352.365C156.413 352.34 156.617 352.251 156.782 352.109C156.947 351.967 157.066 351.779 157.124 351.57C157.181 351.36 157.174 351.137 157.104 350.931C157.034 350.725 156.904 350.545 156.731 350.414C155.906 349.608 155.198 348.691 154.627 347.689C154.119 346.908 153.75 346.045 153.537 345.138C153.098 343.33 152.843 341.482 152.774 339.623L152.6 338.533C155.042 326.444 162.072 290.965 172.22 268.304L176.384 276.871L178.193 283.215L167.097 310.607L214.425 309.985L207.362 282.801L215.94 254.461C225.216 254.668 249.032 255.017 253 253.218C257.992 251.038 283.814 218.425 283.814 218.425C285.497 217.118 287.109 215.72 288.643 214.24C288.643 214.24 290.213 212.921 289.264 211.94Z" fill="#FFBE9D"/>
<path d="M165.015 290.365C166.389 285.678 173.441 262.505 173.441 262.505C173.441 262.505 176.907 281.395 175.991 283.673C175.149 285.623 174.154 287.504 173.016 289.297C165.015 301.473 166.062 307.566 166.062 307.566L214.403 306.094C214.512 299.336 210.512 283.618 209.683 281.111C208.855 278.604 211.613 270.397 211.613 270.397C211.613 270.397 217.063 264.848 216.866 261.993C216.763 259.427 216.446 256.875 215.918 254.363L245.348 255.453L244.422 235.506L202.151 231.276C200.68 235.429 187.371 233.391 187.371 233.391C173.005 233.871 172.111 236.509 166.138 241.152C160.165 245.795 150.278 285.646 150.278 285.646L165.015 290.365Z" fill="#00CDE5"/>
<path d="M193.595 285.645C192.757 285.795 191.904 285.839 191.055 285.776C189.475 285.776 187.306 285.667 184.919 285.427C182.532 285.188 180.374 284.85 178.837 284.544C177.989 284.435 177.158 284.223 176.362 283.912C177.215 283.913 178.065 283.993 178.902 284.152C180.45 284.348 182.597 284.621 184.973 284.861C187.349 285.1 189.508 285.264 191.066 285.373C191.916 285.384 192.763 285.475 193.595 285.645Z" fill="#263238"/>
<path d="M196.909 281.536C196.071 281.947 195.185 282.251 194.271 282.441C189.922 283.584 185.436 284.116 180.94 284.022C180.01 284.052 179.08 283.964 178.172 283.76C179.09 283.644 180.015 283.597 180.94 283.618C182.652 283.564 185.006 283.444 187.6 283.139C190.195 282.834 192.505 282.398 194.14 282.049C195.049 281.806 195.974 281.635 196.909 281.536Z" fill="#263238"/>
<path d="M213.172 263.203C213.15 264.034 213.036 264.86 212.834 265.666C212.55 267.181 212.114 269.252 211.558 271.519C211.003 273.786 210.468 275.879 209.989 277.296C209.796 278.107 209.511 278.894 209.139 279.64C209.199 278.811 209.353 277.992 209.596 277.198C210.011 275.498 210.479 273.536 211.003 271.388C211.526 269.241 212.027 267.279 212.441 265.579C212.589 264.76 212.834 263.963 213.172 263.203Z" fill="#263238"/>
<path d="M165.528 287.586C163.006 287.196 160.518 286.617 158.083 285.853C155.596 285.271 153.155 284.506 150.78 283.564C153.301 283.959 155.789 284.539 158.225 285.297C160.713 285.876 163.154 286.641 165.528 287.586Z" fill="#263238"/>
<path d="M216.442 254.123C216.031 254.194 215.611 254.194 215.199 254.123C214.061 254.006 212.943 253.739 211.875 253.327C210.092 252.657 208.469 251.622 207.109 250.287C205.75 248.952 204.686 247.348 203.983 245.577C203.207 243.63 202.876 241.533 203.013 239.441C203.062 237.715 203.578 236.035 204.507 234.579C205.16 233.599 206.135 232.878 207.264 232.541C207.566 232.458 207.878 232.417 208.191 232.421C208.409 232.421 208.518 232.421 208.518 232.421C208.518 232.421 208.06 232.421 207.33 232.715C206.294 233.098 205.415 233.815 204.834 234.754C203.351 237.086 202.937 241.348 204.517 245.327C205.253 247.203 206.405 248.887 207.886 250.253C209.099 251.372 210.497 252.271 212.017 252.913C213.443 253.477 214.927 253.883 216.442 254.123Z" fill="#263238"/>
<path d="M241.85 255.06C241.577 251.718 241.49 248.363 241.588 245.01C241.503 241.661 241.604 238.309 241.893 234.971C242.166 238.31 242.253 241.662 242.155 245.01C242.246 248.363 242.144 251.719 241.85 255.06Z" fill="#263238"/>
<path d="M201.868 232.497C201.988 230.067 202.238 227.32 202.238 227.32C202.238 227.32 208.255 226.655 208.615 220.442C208.974 214.229 208.615 199.895 208.615 199.895L197.715 194.315L185.616 203.83L187.48 234.895L198.576 235.604C199.424 235.627 200.247 235.313 200.864 234.731C201.481 234.149 201.842 233.345 201.868 232.497Z" fill="#FFBE9D"/>
<path d="M202.947 215.526C202.947 215.526 202.947 215.646 202.849 215.787C202.768 215.89 202.663 215.972 202.544 216.025C202.424 216.078 202.293 216.101 202.163 216.093C201.465 216.093 200.789 215.286 200.549 214.349C200.435 213.894 200.435 213.419 200.549 212.964C200.572 212.766 200.643 212.576 200.757 212.413C200.872 212.249 201.025 212.116 201.203 212.027C201.35 211.966 201.515 211.966 201.661 212.027C201.77 212.081 201.858 212.169 201.912 212.278C201.988 212.463 201.912 212.583 201.912 212.572C201.912 212.561 201.912 212.463 201.803 212.354C201.746 212.276 201.662 212.222 201.568 212.201C201.473 212.181 201.374 212.197 201.291 212.245C201.157 212.326 201.046 212.439 200.968 212.574C200.889 212.71 200.847 212.863 200.844 213.019C200.752 213.424 200.752 213.845 200.844 214.25C201.062 215.101 201.65 215.787 202.173 215.853C202.276 215.867 202.38 215.859 202.479 215.831C202.579 215.803 202.671 215.755 202.751 215.689C202.882 215.602 202.926 215.515 202.947 215.526Z" fill="#EB996E"/>
<path d="M212.354 196.538C211.515 193.682 208.474 192.265 205.705 191.48C201.487 190.281 196.931 189.758 192.811 191.273C188.69 192.788 183.742 195.448 183.742 199.993C181.311 199.797 179.916 201.923 178.957 204.56C178.343 206.167 177.976 207.858 177.867 209.574C177.561 215.526 175.894 223.744 172.035 228.104C169.855 230.535 166.836 232.214 165.593 235.244C164.503 237.871 165.07 240.988 164.056 243.648C163.152 245.991 161.157 247.659 159.696 249.697C158.208 252.01 157.333 254.662 157.151 257.406C156.97 260.15 157.49 262.895 158.661 265.382C159.84 267.806 161.501 269.965 163.542 271.726C165.583 273.488 167.961 274.816 170.531 275.628C175.622 277.177 181.052 277.23 186.172 275.781C190.016 274.862 193.601 273.084 196.658 270.582C199.787 268.027 201.936 264.468 202.74 260.51C203.514 256.063 202.272 251.539 201.345 247.114C198.446 233.129 199.274 232.399 202.937 219.417C203.024 219.188 203.067 218.948 203.133 218.719C203.198 218.491 203.231 218.382 203.275 218.207C203.379 217.694 203.433 217.172 203.438 216.648C202.903 216.847 202.323 216.889 201.764 216.77C201.206 216.65 200.694 216.374 200.288 215.973C199.881 215.545 199.597 215.016 199.466 214.44C199.336 213.864 199.364 213.264 199.547 212.703C199.804 212.089 200.187 211.536 200.672 211.08C201.156 210.623 201.731 210.274 202.359 210.054C203.569 209.553 204.866 209.291 206.054 208.735C208.572 207.536 210.316 205.051 211.504 202.446C212.481 200.64 212.782 198.546 212.354 196.538Z" fill="#263238"/>
<path d="M203.383 215.82C203.614 216.16 203.804 216.526 203.95 216.91C204.277 217.597 204.713 218.567 205.193 219.689L205.28 219.897H205.051L203.961 219.995C203.209 219.995 202.577 220.136 201.836 220.125C201.771 220.111 201.711 220.08 201.662 220.037C201.612 219.993 201.574 219.937 201.552 219.875C201.52 219.776 201.52 219.669 201.552 219.57C201.577 219.423 201.61 219.277 201.65 219.134L201.846 218.36C201.945 217.843 202.099 217.339 202.304 216.855C202.284 217.382 202.207 217.904 202.075 218.414L201.923 219.188C201.868 219.45 201.77 219.853 201.923 219.82C202.468 219.82 203.242 219.7 203.961 219.657L205.051 219.559L204.909 219.798C204.441 218.708 204.048 217.684 203.819 216.975C203.619 216.614 203.472 216.224 203.383 215.82Z" fill="#00CDE5"/>
<path d="M166.062 307.566L214.404 306.094L235.441 388.215L231.571 482.413H206.011L209.139 390.22L190.446 333.05L193.323 486.064L167.49 486.446L164.776 342.62C164.656 338.62 163.348 329.606 163.839 325.638L166.062 307.566Z" fill="#263238"/>
<path d="M196.877 334.216C196.085 334.266 195.291 334.218 194.511 334.074C193.051 333.9 191.056 333.595 188.865 333.159C186.674 332.723 184.712 332.222 183.295 331.818C182.538 331.652 181.805 331.388 181.115 331.033C181.115 330.87 184.669 331.72 189.029 332.603C193.389 333.486 196.898 334.053 196.877 334.216Z" fill="#455A64"/>
<path d="M231.309 477.246C231.309 477.398 225.521 477.529 218.382 477.529C211.242 477.529 205.443 477.398 205.443 477.246C205.443 477.093 211.231 476.962 218.382 476.962C225.532 476.962 231.309 477.082 231.309 477.246Z" fill="#455A64"/>
<path d="M193.094 482.085C193.094 482.249 187.47 482.369 180.538 482.369C173.605 482.369 167.992 482.249 167.992 482.085C167.992 481.922 173.616 481.802 180.538 481.802C187.459 481.802 193.094 481.933 193.094 482.085Z" fill="#455A64"/>
<path d="M189.759 481.693C189.606 481.693 188.93 448.263 188.244 407.028C187.557 365.793 187.154 332.341 187.295 332.341C187.437 332.341 188.135 365.761 188.81 407.017C189.486 448.274 189.922 481.693 189.759 481.693Z" fill="#455A64"/>
<path d="M227.876 477.246C227.864 477.097 227.864 476.948 227.876 476.799V475.491C227.876 474.314 227.964 472.624 228.029 470.477C228.182 466.117 228.4 459.784 228.672 452.023C229.261 436.414 230.089 414.898 230.994 391.147C230.994 390.918 230.994 390.7 230.994 390.504V390.58C225.271 367.69 220.094 346.914 216.333 331.883L211.973 314.105C211.472 312.023 211.09 310.399 210.818 309.266C210.687 308.732 210.6 308.317 210.524 308.001C210.481 307.86 210.455 307.713 210.447 307.565C210.504 307.703 210.548 307.845 210.578 307.99C210.665 308.296 210.774 308.71 210.927 309.233C211.221 310.323 211.646 311.98 212.191 314.051C213.281 318.258 214.818 324.319 216.737 331.785C220.53 346.805 225.762 367.526 231.561 390.449V390.525C231.561 390.721 231.561 390.95 231.561 391.168C230.59 414.919 229.708 436.425 229.064 452.034C228.727 459.806 228.443 466.095 228.247 470.477C228.138 472.657 228.051 474.314 227.996 475.491C227.996 476.047 227.931 476.483 227.92 476.799C227.922 476.949 227.907 477.099 227.876 477.246Z" fill="#455A64"/>
<path d="M219.538 388.585C217.702 389.189 215.81 389.609 213.892 389.839C211.537 390.242 209.531 390.525 208.627 390.569V390.351C208.921 390.438 209.074 390.493 209.074 390.536C209.074 390.58 208.888 390.536 208.583 390.536H207.929L208.583 390.34C209.433 390.089 211.439 389.675 213.793 389.25C215.682 388.84 217.606 388.618 219.538 388.585Z" fill="#455A64"/>
<path d="M219.091 391.714C217.391 391.791 215.687 391.715 214.001 391.485C212.298 391.45 210.602 391.264 208.932 390.929C212.339 390.651 215.768 390.916 219.091 391.714Z" fill="#455A64"/>
<path opacity="0.2" d="M165.854 309.299C166.427 310.034 167.148 310.64 167.97 311.078C168.793 311.515 169.699 311.775 170.628 311.839C172.575 312.069 174.544 312.033 176.482 311.73C188.962 310.345 202.184 309.07 214.403 306.094C198.587 306.977 181.877 306.683 166.061 307.566L165.898 308.917" fill="black"/>
<g opacity="0.2">
<path d="M182.15 331.589L191.067 366.186L190.445 333.05L182.15 331.589Z" fill="black"/>
</g>
</svg>
