<svg width="39" height="40" viewBox="0 0 39 40" fill="none" xmlns="http://www.w3.org/2000/svg">
<path d="M20.0002 18.9749C18.6257 18.9749 17.4485 18.4849 16.4685 17.5049C15.4885 16.5249 14.9991 15.3483 15.0002 13.9749C15.0013 12.6016 15.4907 11.4238 16.4685 10.4416C17.4463 9.45939 18.6235 8.97105 20.0002 8.97661C21.3768 8.98216 22.5541 9.47105 23.5318 10.4433C24.5096 11.4155 24.9991 12.5933 25.0002 13.9766C25.0013 15.3599 24.5118 16.5366 23.5318 17.5066C22.5518 18.4766 21.3746 18.9649 20.0002 18.9749ZM8.3335 31.0266V28.2833C8.3335 27.5955 8.5335 26.9522 8.9335 26.3533C9.33461 25.7533 9.8735 25.2877 10.5502 24.9566C12.1235 24.2022 13.6979 23.6366 15.2735 23.2599C16.8479 22.8822 18.4235 22.6933 20.0002 22.6933C21.5768 22.6933 23.1529 22.8822 24.7285 23.2599C26.3041 23.6377 27.8774 24.2033 29.4485 24.9566C30.1263 25.2877 30.6652 25.7533 31.0652 26.3533C31.4663 26.9522 31.6668 27.5955 31.6668 28.2833V31.0266H8.3335ZM10.0002 29.3599H30.0002V28.2833C30.0002 27.9144 29.8807 27.5672 29.6418 27.2416C29.4041 26.9172 29.0746 26.6427 28.6535 26.4183C27.2824 25.7538 25.8679 25.2449 24.4102 24.8916C22.9524 24.5383 21.4824 24.3611 20.0002 24.3599C18.5179 24.3588 17.0479 24.5355 15.5902 24.8899C14.1324 25.2444 12.7179 25.7533 11.3468 26.4166C10.9246 26.6411 10.5952 26.9155 10.3585 27.2399C10.1196 27.5655 10.0002 27.9133 10.0002 28.2833V29.3599ZM20.0002 17.3099C20.9168 17.3099 21.7018 16.9833 22.3552 16.3299C23.0085 15.6766 23.3346 14.8911 23.3335 13.9733C23.3324 13.0555 23.0063 12.2711 22.3552 11.6199C21.7041 10.9688 20.9191 10.6422 20.0002 10.6399C19.0813 10.6377 18.2968 10.9644 17.6468 11.6199C16.9968 12.2755 16.6702 13.0599 16.6668 13.9733C16.6635 14.8866 16.9902 15.6716 17.6468 16.3283C18.3035 16.9849 19.0879 17.3111 20.0002 17.3066" fill="#00A3C0"/>
</svg>
