<svg width="40" height="41" viewBox="0 0 40 41" fill="none" xmlns="http://www.w3.org/2000/svg">
<g clip-path="url(#clip0_112_288)">
<path d="M36.25 40.5H3.75C1.675 40.5 0 38.825 0 36.75V6.75C0 4.675 1.675 3 3.75 3H36.25C38.325 3 40 4.675 40 6.75V36.75C40 38.825 38.325 40.5 36.25 40.5ZM3.75 5.5C3.05 5.5 2.5 6.05 2.5 6.75V36.75C2.5 37.45 3.05 38 3.75 38H36.25C36.95 38 37.5 37.45 37.5 36.75V6.75C37.5 6.05 36.95 5.5 36.25 5.5H3.75Z" fill="#00A3C0"/>
<path d="M11.25 10.5C10.55 10.5 10 9.95 10 9.25V1.75C10 1.05 10.55 0.5 11.25 0.5C11.95 0.5 12.5 1.05 12.5 1.75V9.25C12.5 9.95 11.95 10.5 11.25 10.5ZM28.75 10.5C28.05 10.5 27.5 9.95 27.5 9.25V1.75C27.5 1.05 28.05 0.5 28.75 0.5C29.45 0.5 30 1.05 30 1.75V9.25C30 9.95 29.45 10.5 28.75 10.5ZM38.75 15.5H1.25C0.55 15.5 0 14.95 0 14.25C0 13.55 0.55 13 1.25 13H38.75C39.45 13 40 13.55 40 14.25C40 14.95 39.45 15.5 38.75 15.5Z" fill="#00A3C0"/>
<path d="M10 25.5C11.3807 25.5 12.5 24.3807 12.5 23C12.5 21.6193 11.3807 20.5 10 20.5C8.61929 20.5 7.5 21.6193 7.5 23C7.5 24.3807 8.61929 25.5 10 25.5Z" fill="#00A3C0"/>
<path d="M20 25.5C21.3807 25.5 22.5 24.3807 22.5 23C22.5 21.6193 21.3807 20.5 20 20.5C18.6193 20.5 17.5 21.6193 17.5 23C17.5 24.3807 18.6193 25.5 20 25.5Z" fill="#00A3C0"/>
<path d="M30 25.5C31.3807 25.5 32.5 24.3807 32.5 23C32.5 21.6193 31.3807 20.5 30 20.5C28.6193 20.5 27.5 21.6193 27.5 23C27.5 24.3807 28.6193 25.5 30 25.5Z" fill="#00A3C0"/>
<path d="M10 33C11.3807 33 12.5 31.8807 12.5 30.5C12.5 29.1193 11.3807 28 10 28C8.61929 28 7.5 29.1193 7.5 30.5C7.5 31.8807 8.61929 33 10 33Z" fill="#00A3C0"/>
<path d="M20 33C21.3807 33 22.5 31.8807 22.5 30.5C22.5 29.1193 21.3807 28 20 28C18.6193 28 17.5 29.1193 17.5 30.5C17.5 31.8807 18.6193 33 20 33Z" fill="#00A3C0"/>
<path d="M30 33C31.3807 33 32.5 31.8807 32.5 30.5C32.5 29.1193 31.3807 28 30 28C28.6193 28 27.5 29.1193 27.5 30.5C27.5 31.8807 28.6193 33 30 33Z" fill="#00A3C0"/>
</g>
<defs>
<clipPath id="clip0_112_288">
<rect width="40" height="40" fill="white" transform="translate(0 0.5)"/>
</clipPath>
</defs>
</svg>
